{
.appVersion = "3260";
classes = (
{
code = "Euro bar cent colon comma degree divide dollar eight equal five four greater less minus multiply nine numbersign one paragraph percent period periodcentered plus plusminus quotedbl quotesingle section semicolon seven six slash sterling three two underscore yen zero";
name = tnum1;
},
{
code = "Euro.tnum bar.tnum cent.tnum colon.tnum comma.tnum degree.tnum divide.tnum dollar.tnum eight.tnum equal.tnum five.tnum four.tnum greater.tnum less.tnum minus.tnum multiply.tnum nine.tnum numbersign.tnum one.tnum paragraph.tnum percent.tnum period.tnum periodcentered.tnum plus.tnum plusminus.tnum quotedbl.tnum quotesingle.tnum section.tnum semicolon.tnum seven.tnum six.tnum slash.tnum sterling.tnum three.tnum two.tnum underscore.tnum yen.tnum zero.tnum";
name = tnum2;
}
);
copyright = "Copyright 2020 The Libre Caslon Text Project Authors (https://github.com/thundernixon/Libre-Caslon)";
customParameters = (
{
name = macintoshFONDFamilyID;
value = 128;
},
{
name = macintoshFONDName;
value = "Libre Caslon Text";
},
{
name = openTypeHeadFlags;
value = (
);
},
{
name = openTypeOS2FamilyClass;
value = (
0,
0
);
},
{
name = openTypeOS2Panose;
value = (
2,
2,
6,
2,
6,
3,
0,
0,
0,
4
);
},
{
name = openTypeOS2Selection;
value = (
);
},
{
name = openTypeOS2StrikeoutPosition;
value = 250;
},
{
name = openTypeOS2StrikeoutSize;
value = 50;
},
{
name = openTypeOS2SubscriptXOffset;
value = 0;
},
{
name = openTypeOS2SubscriptXSize;
value = 700;
},
{
name = openTypeOS2SubscriptYOffset;
value = 140;
},
{
name = openTypeOS2SubscriptYSize;
value = 650;
},
{
name = openTypeOS2SuperscriptXOffset;
value = 0;
},
{
name = openTypeOS2SuperscriptXSize;
value = 700;
},
{
name = openTypeOS2SuperscriptYOffset;
value = 477;
},
{
name = openTypeOS2SuperscriptYSize;
value = 650;
},
{
name = fsType;
value = (
);
},
{
name = blueFuzz;
value = 0;
},
{
name = blueScale;
value = 0.01667;
},
{
name = blueShift;
value = 10;
},
{
name = postscriptForceBold;
value = 0;
},
{

glyphs = (
{
glyphname = A;
layers = (
{
anchors = (
{
name = bottom;
position = "{607, 0}";
},
{
name = ogonekcap;
position = "{797, 0}";
},
{
name = topcap;
position = "{361, 822}";
}
);
layerId = "FA6D65B5-4623-4FAC-A199-3F662257AC29";
paths = (
{
closed = 1;
nodes = (
"287 0 LINE",
"287 37 LINE",
"179 53 OFFCURVE",
"161 72 OFFCURVE",
"186 145 CURVE SMOOTH",
"327 511 LINE",
"331 511 LINE",
"477 113 LINE SMOOTH",
"503 47 OFFCURVE",
"475 39 OFFCURVE",
"389 37 CURVE",
"389 0 LINE",
"797 0 LINE",
"797 37 LINE",
"725 42 OFFCURVE",
"708 52 OFFCURVE",
"690 97 CURVE SMOOTH",
"407 782 LINE",
"259 726 LINE",
"305 624 LINE",
"118 146 LINE SMOOTH",
"86 66 OFFCURVE",
"73 53 OFFCURVE",
"-19 37 CURVE",
"-19 0 LINE"
);
},
{
closed = 1;
nodes = (
"501 220 LINE",
"501 276 LINE",
"182 276 LINE",
"182 220 LINE"
);
}
);
width = 773;
},
{
anchors = (
{
name = bottom;
position = "{592, 0}";
},
{
name = topcap;
position = "{361, 822}";
}
);
associatedMasterId = "FA6D65B5-4623-4FAC-A199-3F662257AC29";
layerId = "CBD44848-52BD-4DC5-BFA6-577546B7224D";
paths = (
{
closed = 1;
nodes = (
"254 0 LINE",
"254 23 LINE",
"188 33 OFFCURVE",
"153 49 OFFCURVE",
"153 84 CURVE SMOOTH",
"153 96 OFFCURVE",
"156 111 OFFCURVE",
"163 131 CURVE SMOOTH",
"334 608 LINE",
"338 608 LINE",
"522 99 LINE SMOOTH",
"531 76 OFFCURVE",
"533 64 OFFCURVE",
"533 56 CURVE SMOOTH",
"533 35 OFFCURVE",
"522 27 OFFCURVE",
"431 23 CURVE",
"431 0 LINE",
"745 0 LINE",
"745 23 LINE",
"676 28 OFFCURVE",
"661 38 OFFCURVE",
"645 84 CURVE SMOOTH",
"383 782 LINE",
"286 729 LINE",
"312 670 LINE",
"120 133 LINE SMOOTH",
"95 64 OFFCURVE",
"81 39 OFFCURVE",
"-23 23 CURVE",
"-23 0 LINE"
);
},
{
closed = 1;
nodes = (
"471 280 LINE",
"471 320 LINE",
"204 320 LINE",
"204 280 LINE"
);
}
);
width = 736;
},
{
anchors = (
{
name = bottom;
position = "{594, 0}";
},
{
name = ogonekcap;
position = "{752, 0}";
},
{
name = topcap;
position = "{361, 822}";
}
);
layerId = "7C8D72FA-6E62-4564-8BB2-D9F9BC4EB15A";
paths = (
{
closed = 1;
nodes = (
"259 0 LINE",
"259 24 LINE",
"164 39 OFFCURVE",
"142 62 OFFCURVE",
"164 123 CURVE SMOOTH",
"333 595 LINE",
"336 595 LINE",
"516 101 LINE SMOOTH",
"541 31 OFFCURVE",
"522 30 OFFCURVE",
"425 24 CURVE",
"425 0 LINE",
"752 0 LINE",
"752 24 LINE",
"683 30 OFFCURVE",
"668 40 OFFCURVE",
"651 85 CURVE SMOOTH",
"387 782 LINE",
"283 728 LINE",
"311 664 LINE",
"119 135 LINE SMOOTH",
"94 64 OFFCURVE",
"80 41 OFFCURVE",
"-23 24 CURVE",
"-23 0 LINE"
);
},
{
closed = 1;
nodes = (
"475 272 LINE",
"475 314 LINE",
"201 314 LINE",
"201 272 LINE"
);
}
);
width = 741;
},
{
anchors = (
{
name = bottom;
position = "{607, 0}";
},
{
name = topcap;
position = "{361, 822}";
}
);
associatedMasterId = "FA6D65B5-4623-4FAC-A199-3F662257AC29";
layerId = "88D3A241-B746-4321-BD8E-66107D9B414D";
name = "Jan 7 19, 14:34";
paths = (
{
closed = 1;
nodes = (
"287 0 LINE",
"287 37 LINE",
"205 49 OFFCURVE",
"176 64 OFFCURVE",
"176 98 CURVE SMOOTH",
"176 111 OFFCURVE",
"180 126 OFFCURVE",
"186 145 CURVE SMOOTH",
"327 511 LINE",
"331 511 LINE",
"477 113 LINE SMOOTH",
"503 47 OFFCURVE",
"475 39 OFFCURVE",
"389 37 CURVE",
"389 0 LINE",
"797 0 LINE",
"797 37 LINE",
"725 42 OFFCURVE",
"708 52 OFFCURVE",
"690 97 CURVE SMOOTH",
"407 782 LINE",
"259 726 LINE",
"305 624 LINE",
"118 146 LINE SMOOTH",
"86 66 OFFCURVE",
"73 53 OFFCURVE",
"-19 37 CURVE",
"-19 0 LINE"
);
},
{
closed = 1;
nodes = (
"501 220 LINE",
"501 276 LINE",
"182 276 LINE",
"182 220 LINE"
);
}
);
width = 773;
},
{
anchors = (
{
name = bottom;
position = "{594, 0}";
},
{
name = topcap;
position = "{361, 822}";
}
);
associatedMasterId = "7C8D72FA-6E62-4564-8BB2-D9F9BC4EB15A";
layerId = "E08BA8F9-D3C9-4B29-8F3A-516038531B7D";
name = "Jan 7 19, 14:34";
paths = (
{
closed = 1;
nodes = (
"259 0 LINE",
"259 24 LINE",
"190 35 OFFCURVE",
"156 51 OFFCURVE",
"156 87 CURVE SMOOTH",
"156 98 OFFCURVE",
"160 113 OFFCURVE",
"167 133 CURVE SMOOTH",
"333 595 LINE",
"336 595 LINE",
"516 101 LINE SMOOTH",
"541 31 OFFCURVE",
"522 30 OFFCURVE",
"425 24 CURVE",
"425 0 LINE",
"752 0 LINE",
"752 24 LINE",
"683 30 OFFCURVE",
"668 40 OFFCURVE",
"651 85 CURVE SMOOTH",
"387 782 LINE",
"283 728 LINE",
"311 664 LINE",
"119 135 LINE SMOOTH",
"94 64 OFFCURVE",
"80 41 OFFCURVE",
"-23 24 CURVE",
"-23 0 LINE"
);
},
{
closed = 1;
nodes = (
"475 272 LINE",
"475 314 LINE",
"201 314 LINE",
"201 272 LINE"
);
}
);
visible = 1;
width = 741;
}
);
leftKerningGroup = A;
rightKerningGroup = A;
unicode = 0041;
},
{
glyphname = Aringacute;
layers = (
{
components = (
{
name = A;
}
);
layerId = "FA6D65B5-4623-4FAC-A199-3F662257AC29";
paths = (
{
closed = 1;
nodes = (
"293 833 LINE",
"304 826 OFFCURVE",
"319 822 OFFCURVE",
"335 822 CURVE SMOOTH",
"369 822 OFFCURVE",
"394 843 OFFCURVE",
"402 873 CURVE",
"446 886 OFFCURVE",
"456 905 OFFCURVE",
"456 924 CURVE SMOOTH",
"456 948 OFFCURVE",
"431 959 OFFCURVE",
"412 959 CURVE SMOOTH",
"398 959 OFFCURVE",
"387 955 OFFCURVE",
"375 948 CURVE",
"364 956 OFFCURVE",
"349 960 OFFCURVE",
"335 960 CURVE SMOOTH",
"295 960 OFFCURVE",
"266 930 OFFCURVE",
"266 891 CURVE SMOOTH",
"266 883 OFFCURVE",
"266 876 OFFCURVE",
"269 869 CURVE",
"226 837 LINE",
"237 817 LINE"
);
},
{
closed = 1;
nodes = (
"323 871 OFFCURVE",
"315 879 OFFCURVE",
"315 891 CURVE SMOOTH",
"315 902 OFFCURVE",
"323 911 OFFCURVE",
"335 911 CURVE SMOOTH",
"347 911 OFFCURVE",
"354 902 OFFCURVE",
"354 891 CURVE SMOOTH",
"354 879 OFFCURVE",
"347 871 OFFCURVE",
"335 871 CURVE SMOOTH"
);
}
);
width = 773;
},
{
associatedMasterId = "FA6D65B5-4623-4FAC-A199-3F662257AC29";
components = (
{
name = A;
}
);
layerId = "CBD44848-52BD-4DC5-BFA6-577546B7224D";
paths = (
{
closed = 1;
nodes = (
"300 833 LINE",
"310 826 OFFCURVE",
"324 822 OFFCURVE",
"341 822 CURVE SMOOTH",
"374 822 OFFCURVE",
"400 843 OFFCURVE",
"408 873 CURVE",
"452 886 OFFCURVE",
"461 905 OFFCURVE",
"461 924 CURVE SMOOTH",
"461 948 OFFCURVE",
"438 959 OFFCURVE",
"418 959 CURVE SMOOTH",
"404 959 OFFCURVE",
"393 955 OFFCURVE",
"381 948 CURVE",
"369 956 OFFCURVE",
"355 960 OFFCURVE",
"341 960 CURVE SMOOTH",
"301 960 OFFCURVE",
"271 930 OFFCURVE",
"271 891 CURVE SMOOTH",
"271 883 OFFCURVE",
"273 876 OFFCURVE",
"275 869 CURVE",
"232 837 LINE",
"243 817 LINE"
);
},
{
closed = 1;
nodes = (
"320 856 OFFCURVE",
"306 870 OFFCURVE",
"306 891 CURVE SMOOTH",
"306 912 OFFCURVE",
"320 925 OFFCURVE",
"341 925 CURVE SMOOTH",
"361 925 OFFCURVE",
"375 912 OFFCURVE",
"375 891 CURVE SMOOTH",
"375 870 OFFCURVE",
"361 856 OFFCURVE",
"341 856 CURVE SMOOTH"
);
}
);
width = 736;
},
{
components = (
{
alignment = -1;
name = A;
}
);
layerId = "7C8D72FA-6E62-4564-8BB2-D9F9BC4EB15A";
paths = (
{
closed = 1;
nodes = (
"298 833 LINE",
"309 826 OFFCURVE",
"324 822 OFFCURVE",
"340 822 CURVE SMOOTH",
"373 822 OFFCURVE",
"399 843 OFFCURVE",
"407 873 CURVE",
"452 886 OFFCURVE",
"460 905 OFFCURVE",
"460 924 CURVE SMOOTH",
"460 948 OFFCURVE",
"437 959 OFFCURVE",
"417 959 CURVE SMOOTH",
"403 959 OFFCURVE",
"392 955 OFFCURVE",
"381 948 CURVE",
"368 956 OFFCURVE",
"355 960 OFFCURVE",
"340 960 CURVE SMOOTH",
"300 960 OFFCURVE",
"270 930 OFFCURVE",
"270 891 CURVE SMOOTH",
"270 883 OFFCURVE",
"271 876 OFFCURVE",
"274 869 CURVE",
"231 837 LINE",
"242 817 LINE"
);
},
{
closed = 1;
nodes = (
"320 858 OFFCURVE",
"307 871 OFFCURVE",
"307 891 CURVE SMOOTH",
"307 911 OFFCURVE",
"320 924 OFFCURVE",
"340 924 CURVE SMOOTH",
"360 924 OFFCURVE",
"373 911 OFFCURVE",
"373 891 CURVE SMOOTH",
"373 871 OFFCURVE",
"360 858 OFFCURVE",
"340 858 CURVE SMOOTH"
);
}
);
width = 741;
}
);
leftKerningGroup = A;
rightKerningGroup = A;
unicode = 01FA;
},
{
glyphname = AE;
layers = (
{
layerId = "FA6D65B5-4623-4FAC-A199-3F662257AC29";
paths = (
{
closed = 1;
nodes = (
"270 0 LINE",
"270 37 LINE",
"216 45 OFFCURVE",
"193 60 OFFCURVE",
"193 87 CURVE SMOOTH",
"193 102 OFFCURVE",
"201 121 OFFCURVE",
"213 145 CURVE SMOOTH",
"285 285 LINE",
"484 285 LINE",
"484 56 LINE",
"400 37 LINE",
"400 0 LINE",
"1000 0 LINE",
"1042 232 LINE",
"991 232 LINE",
"968 167 OFFCURVE",
"943 115 OFFCURVE",
"901 57 CURVE",
"654 57 LINE",
"654 376 LINE",
"779 376 LINE",
"801 340 OFFCURVE",
"814 304 OFFCURVE",
"822 265 CURVE",
"863 265 LINE",
"863 541 LINE",
"822 541 LINE",
"814 502 OFFCURVE",
"801 467 OFFCURVE",
"779 430 CURVE",
"654 430 LINE",
"654 706 LINE",
"906 706 LINE",
"940 654 OFFCURVE",
"968 597 OFFCURVE",
"983 544 CURVE",
"1025 544 LINE",
"1006 762 LINE",
"380 762 LINE",
"380 735 LINE",
"442 718 LINE",
"141 146 LINE SMOOTH",
"102 72 OFFCURVE",
"75 52 OFFCURVE",
"-27 37 CURVE",
"-27 0 LINE"
);
},
{
closed = 1;
nodes = (
"480 660 LINE",
"484 660 LINE",
"484 339 LINE",
"313 339 LINE"
);
}
);
width = 1082;
},
{
associatedMasterId = "FA6D65B5-4623-4FAC-A199-3F662257AC29";
layerId = "CBD44848-52BD-4DC5-BFA6-577546B7224D";
paths = (
{
closed = 1;
nodes = (
"255 0 LINE",
"255 23 LINE",
"194 33 OFFCURVE",
"167 43 OFFCURVE",
"167 72 CURVE SMOOTH",
"167 86 OFFCURVE",
"175 106 OFFCURVE",
"188 131 CURVE SMOOTH",
"270 289 LINE",
"467 289 LINE",
"467 42 LINE",
"382 23 LINE",
"382 0 LINE",
"928 0 LINE",
"965 232 LINE",
"932 232 LINE",
"911 167 OFFCURVE",
"889 104 OFFCURVE",
"849 39 CURVE",
"570 39 LINE",
"570 364 LINE",
"748 364 LINE",
"766 324 OFFCURVE",
"778 284 OFFCURVE",
"784 245 CURVE",
"807 245 LINE",
"807 522 LINE",
"784 522 LINE",
"778 482 OFFCURVE",
"766 443 OFFCURVE",
"748 403 CURVE",
"570 403 LINE",
"570 723 LINE",
"854 723 LINE",
"887 666 OFFCURVE",
"909 601 OFFCURVE",
"925 544 CURVE",
"949 544 LINE",
"932 762 LINE",
"372 762 LINE",
"372 740 LINE",
"456 723 LINE",
"146 133 LINE SMOOTH",
"108 61 OFFCURVE",
"85 39 OFFCURVE",
"-22 23 CURVE",
"-22 0 LINE"
);
},
{
closed = 1;
nodes = (
"461 660 LINE",
"465 660 LINE",
"465 328 LINE",
"291 328 LINE"
);
}
);
width = 1019;
},
{
layerId = "7C8D72FA-6E62-4564-8BB2-D9F9BC4EB15A";
paths = (
{
closed = 1;
nodes = (
"258 0 LINE",
"258 24 LINE",
"197 34 OFFCURVE",
"171 46 OFFCURVE",
"171 74 CURVE SMOOTH",
"171 88 OFFCURVE",
"178 107 OFFCURVE",
"191 133 CURVE SMOOTH",
"272 289 LINE",
"469 289 LINE",
"469 44 LINE",
"384 24 LINE",
"384 0 LINE",
"938 0 LINE",
"976 232 LINE",
"940 232 LINE",
"918 167 OFFCURVE",
"896 106 OFFCURVE",
"856 42 CURVE",
"582 42 LINE",
"582 365 LINE",
"752 365 LINE",
"771 326 OFFCURVE",
"783 287 OFFCURVE",
"789 247 CURVE",
"815 247 LINE",
"815 525 LINE",
"789 525 LINE",
"782 484 OFFCURVE",
"771 446 OFFCURVE",
"752 406 CURVE",
"582 406 LINE",
"582 721 LINE",
"862 721 LINE",
"894 665 OFFCURVE",
"917 600 OFFCURVE",
"934 544 CURVE",
"959 544 LINE",
"942 762 LINE",
"373 762 LINE",
"373 739 LINE",
"455 722 LINE",
"145 135 LINE SMOOTH",
"107 63 OFFCURVE",
"84 41 OFFCURVE",
"-22 24 CURVE",
"-22 0 LINE"
);
},
{
closed = 1;
nodes = (
"464 660 LINE",
"468 660 LINE",
"468 330 LINE",
"294 330 LINE"
);
}
);
width = 1027;
}
);
leftKerningGroup = AE;
rightKerningGroup = E;
unicode = 00C6;
},
{
glyphname = B;
layers = (
{
layerId = "FA6D65B5-4623-4FAC-A199-3F662257AC29";
paths = (
{
closed = 1;
nodes = (
"393 0 LINE SMOOTH",
"512 0 OFFCURVE",
"578 15 OFFCURVE",
"629 52 CURVE SMOOTH",
"674 86 OFFCURVE",
"702 142 OFFCURVE",
"702 202 CURVE SMOOTH",
"702 318 OFFCURVE",
"613 401 OFFCURVE",
"480 414 CURVE",
"480 418 LINE",
"598 439 OFFCURVE",
"664 497 OFFCURVE",
"664 577 CURVE SMOOTH",
"664 636 OFFCURVE",
"635 689 OFFCURVE",
"583 722 CURVE SMOOTH",
"539 749 OFFCURVE",
"475 762 OFFCURVE",
"375 762 CURVE SMOOTH",
"42 762 LINE",
"42 726 LINE",
"126 705 LINE",
"126 59 LINE",
"42 37 LINE",
"42 0 LINE"
);
},
{
closed = 1;
nodes = (
"314 53 OFFCURVE",
"296 65 OFFCURVE",
"296 112 CURVE SMOOTH",
"296 379 LINE",
"332 379 LINE",
"457 379 OFFCURVE",
"516 327 OFFCURVE",
"516 211 CURVE SMOOTH",
"516 102 OFFCURVE",
"470 53 OFFCURVE",
"372 53 CURVE SMOOTH"
);
},
{
closed = 1;
nodes = (
"296 708 LINE",
"314 708 LINE SMOOTH",
"370 708 OFFCURVE",
"413 698 OFFCURVE",
"442 675 CURVE SMOOTH",
"468 654 OFFCURVE",
"483 620 OFFCURVE",
"483 573 CURVE SMOOTH",
"483 492 OFFCURVE",
"439 444 OFFCURVE",
"360 436 CURVE SMOOTH",
"347 434 OFFCURVE",
"331 433 OFFCURVE",
"307 433 CURVE SMOOTH",
"296 433 LINE"
);
}
);
width = 744;
},
{
associatedMasterId = "FA6D65B5-4623-4FAC-A199-3F662257AC29";
layerId = "CBD44848-52BD-4DC5-BFA6-577546B7224D";
paths = (
{
closed = 1;
nodes = (
"358 0 LINE SMOOTH",
"467 0 OFFCURVE",
"526 15 OFFCURVE",
"572 52 CURVE SMOOTH",
"613 86 OFFCURVE",
"638 142 OFFCURVE",
"638 202 CURVE SMOOTH",
"638 310 OFFCURVE",
"560 391 OFFCURVE",
"442 404 CURVE",
"442 408 LINE",
"547 430 OFFCURVE",
"605 491 OFFCURVE",
"605 577 CURVE SMOOTH",
"605 636 OFFCURVE",
"577 689 OFFCURVE",
"531 722 CURVE SMOOTH",
"490 749 OFFCURVE",
"433 762 OFFCURVE",
"342 762 CURVE SMOOTH",
"49 762 LINE",
"49 740 LINE",
"133 721 LINE",
"133 42 LINE",
"49 23 LINE",
"49 0 LINE"
);
},
{
closed = 1;
nodes = (
"256 38 OFFCURVE",
"237 51 OFFCURVE",
"237 97 CURVE SMOOTH",
"237 385 LINE",
"321 385 LINE",
"460 385 OFFCURVE",
"524 330 OFFCURVE",
"524 211 CURVE SMOOTH",
"524 92 OFFCURVE",
"460 38 OFFCURVE",
"324 38 CURVE SMOOTH"
);
},
{
closed = 1;
nodes = (
"237 723 LINE",
"322 723 LINE SMOOTH",
"394 723 OFFCURVE",
"429 712 OFFCURVE",
"457 683 CURVE SMOOTH",
"483 657 OFFCURVE",
"494 627 OFFCURVE",
"494 580 CURVE SMOOTH",
"494 490 OFFCURVE",
"453 436 OFFCURVE",
"381 427 CURVE SMOOTH",
"360 426 OFFCURVE",
"336 425 OFFCURVE",
"298 425 CURVE SMOOTH",
"237 425 LINE"
);
}
);
width = 692;
},
{
layerId = "7C8D72FA-6E62-4564-8BB2-D9F9BC4EB15A";
paths = (
{
closed = 1;
nodes = (
"363 0 LINE SMOOTH",
"472 0 OFFCURVE",
"533 15 OFFCURVE",
"579 52 CURVE SMOOTH",
"621 86 OFFCURVE",
"647 142 OFFCURVE",
"647 202 CURVE SMOOTH",
"647 311 OFFCURVE",
"567 392 OFFCURVE",
"447 406 CURVE",
"447 409 LINE",
"554 431 OFFCURVE",
"613 492 OFFCURVE",
"613 577 CURVE SMOOTH",
"613 636 OFFCURVE",
"585 689 OFFCURVE",
"537 722 CURVE SMOOTH",
"497 749 OFFCURVE",
"438 762 OFFCURVE",
"346 762 CURVE SMOOTH",
"47 762 LINE",
"47 738 LINE",
"132 718 LINE",
"132 44 LINE",
"47 24 LINE",
"47 0 LINE"
);
},
{
closed = 1;
nodes = (
"265 40 OFFCURVE",
"245 53 OFFCURVE",
"245 99 CURVE SMOOTH",
"245 385 LINE",
"322 385 LINE",
"459 385 OFFCURVE",
"522 330 OFFCURVE",
"522 211 CURVE SMOOTH",
"522 94 OFFCURVE",
"461 40 OFFCURVE",
"331 40 CURVE SMOOTH"
);
},
{
closed = 1;
nodes = (
"245 721 LINE",
"321 721 LINE SMOOTH",
"391 721 OFFCURVE",
"426 711 OFFCURVE",
"455 682 CURVE SMOOTH",
"481 656 OFFCURVE",
"493 626 OFFCURVE",
"493 579 CURVE SMOOTH",
"493 490 OFFCURVE",
"452 437 OFFCURVE",
"379 429 CURVE SMOOTH",
"358 427 OFFCURVE",
"336 426 OFFCURVE",
"300 426 CURVE SMOOTH",
"245 426 LINE"
);
}
);
width = 699;
}
);
leftKerningGroup = I;
unicode = 0042;
},
{
glyphname = C;
layers = (
{
anchors = (
{
name = bottom;
position = "{437, 0}";
},
{
name = topcap;
position = "{436, 822}";
}
);
layerId = "FA6D65B5-4623-4FAC-A199-3F662257AC29";
paths = (
{
closed = 1;
nodes = (
"518 -10 OFFCURVE",
"591 13 OFFCURVE",
"668 65 CURVE",
"708 0 LINE",
"745 0 LINE",
"745 275 LINE",
"701 275 LINE",
"692 226 OFFCURVE",
"674 184 OFFCURVE",
"651 151 CURVE SMOOTH",
"607 86 OFFCURVE",
"540 50 OFFCURVE",
"459 50 CURVE SMOOTH",
"311 50 OFFCURVE",
"232 167 OFFCURVE",
"232 386 CURVE SMOOTH",
"232 603 OFFCURVE",
"310 714 OFFCURVE",
"463 714 CURVE SMOOTH",
"545 714 OFFCURVE",
"608 681 OFFCURVE",
"654 610 CURVE SMOOTH",
"671 585 OFFCURVE",
"685 555 OFFCURVE",
"698 520 CURVE",
"745 520 LINE",
"745 762 LINE",
"715 762 LINE",
"672 711 LINE",
"668 711 LINE",
"603 750 OFFCURVE",
"517 772 OFFCURVE",
"435 772 CURVE SMOOTH",
"206 772 OFFCURVE",
"45 608 OFFCURVE",
"45 376 CURVE SMOOTH",
"45 146 OFFCURVE",
"202 -10 OFFCURVE",
"431 -10 CURVE SMOOTH"
);
}
);
width = 805;
},
{
anchors = (
{
name = bottom;
position = "{429, 0}";
},
{
name = topcap;
position = "{429, 822}";
}
);
associatedMasterId = "FA6D65B5-4623-4FAC-A199-3F662257AC29";
layerId = "CBD44848-52BD-4DC5-BFA6-577546B7224D";
paths = (
{
closed = 1;
nodes = (
"495 -10 OFFCURVE",
"562 13 OFFCURVE",
"632 65 CURVE",
"677 0 LINE",
"701 0 LINE",
"701 259 LINE",
"674 259 LINE",
"664 207 OFFCURVE",
"646 163 OFFCURVE",
"621 128 CURVE SMOOTH",
"579 66 OFFCURVE",
"515 35 OFFCURVE",
"436 35 CURVE SMOOTH",
"274 35 OFFCURVE",
"180 163 OFFCURVE",
"180 383 CURVE SMOOTH",
"180 604 OFFCURVE",
"271 729 OFFCURVE",
"435 729 CURVE SMOOTH",
"522 729 OFFCURVE",
"584 699 OFFCURVE",
"631 624 CURVE SMOOTH",
"646 599 OFFCURVE",
"659 570 OFFCURVE",
"671 535 CURVE",
"701 535 LINE",
"701 762 LINE",
"683 762 LINE",
"635 711 LINE",
"631 711 LINE",
"571 750 OFFCURVE",
"495 772 OFFCURVE",
"418 772 CURVE SMOOTH",
"206 772 OFFCURVE",
"56 608 OFFCURVE",
"56 376 CURVE SMOOTH",
"56 148 OFFCURVE",
"201 -10 OFFCURVE",
"414 -10 CURVE SMOOTH"
);
}
);
width = 766;
},
{
anchors = (
{
name = bottom;
position = "{430, 0}";
},
{
name = topcap;
position = "{430, 822}";
}
);
layerId = "7C8D72FA-6E62-4564-8BB2-D9F9BC4EB15A";
paths = (
{
closed = 1;
nodes = (
"498 -10 OFFCURVE",
"566 13 OFFCURVE",
"636 65 CURVE",
"681 0 LINE",
"707 0 LINE",
"707 262 LINE",
"678 262 LINE",
"668 210 OFFCURVE",
"650 165 OFFCURVE",
"626 131 CURVE SMOOTH",
"583 69 OFFCURVE",
"518 37 OFFCURVE",
"438 37 CURVE SMOOTH",
"278 37 OFFCURVE",
"187 163 OFFCURVE",
"187 384 CURVE SMOOTH",
"187 604 OFFCURVE",
"277 726 OFFCURVE",
"438 726 CURVE SMOOTH",
"526 726 OFFCURVE",
"587 697 OFFCURVE",
"634 622 CURVE SMOOTH",
"649 597 OFFCURVE",
"663 569 OFFCURVE",
"674 532 CURVE",
"707 532 LINE",
"707 762 LINE",
"687 762 LINE",
"639 711 LINE",
"635 711 LINE",
"575 750 OFFCURVE",
"498 772 OFFCURVE",
"420 772 CURVE SMOOTH",
"206 772 OFFCURVE",
"54 608 OFFCURVE",
"54 376 CURVE SMOOTH",
"54 148 OFFCURVE",
"201 -10 OFFCURVE",
"417 -10 CURVE SMOOTH"
);
}
);
width = 771;
}
);
leftKerningGroup = C;
rightKerningGroup = C;
unicode = 0043;
},
{
glyphname = D;
layers = (
{
anchors = (
{
name = bottom;
position = "{408, 0}";
},
{
name = topcap;
position = "{406, 822}";
}
);
layerId = "FA6D65B5-4623-4FAC-A199-3F662257AC29";
paths = (
{
closed = 1;
nodes = (
"408 0 LINE",
"520 0 OFFCURVE",
"592 17 OFFCURVE",
"658 59 CURVE SMOOTH",
"758 122 OFFCURVE",
"824 244 OFFCURVE",
"824 382 CURVE SMOOTH",
"824 517 OFFCURVE",
"762 626 OFFCURVE",
"665 690 CURVE SMOOTH",
"585 744 OFFCURVE",
"483 762 OFFCURVE",
"311 762 CURVE SMOOTH",
"41 762 LINE",
"41 726 LINE",
"126 707 LINE",
"126 57 LINE",
"41 38 LINE",
"41 0 LINE"
);
},
{
closed = 1;
nodes = (
"324 54 OFFCURVE",
"296 72 OFFCURVE",
"296 113 CURVE SMOOTH",
"296 707 LINE",
"385 707 LINE SMOOTH",
"469 707 OFFCURVE",
"530 684 OFFCURVE",
"569 636 CURVE SMOOTH",
"613 582 OFFCURVE",
"634 503 OFFCURVE",
"634 382 CURVE SMOOTH",
"634 259 OFFCURVE",
"613 172 OFFCURVE",
"569 120 CURVE SMOOTH",
"531 75 OFFCURVE",
"474 54 OFFCURVE",
"397 54 CURVE SMOOTH"
);
}
);
width = 869;
},
{
anchors = (
{
name = bottom;
position = "{406, 0}";
},
{
name = topcap;
position = "{406, 822}";
}
);
associatedMasterId = "FA6D65B5-4623-4FAC-A199-3F662257AC29";
layerId = "CBD44848-52BD-4DC5-BFA6-577546B7224D";
paths = (
{
closed = 1;
nodes = (
"380 0 LINE",
"479 0 OFFCURVE",
"541 17 OFFCURVE",
"599 59 CURVE SMOOTH",
"691 126 OFFCURVE",
"745 245 OFFCURVE",
"745 379 CURVE SMOOTH",
"745 509 OFFCURVE",
"695 621 OFFCURVE",
"606 690 CURVE SMOOTH",
"537 742 OFFCURVE",
"452 762 OFFCURVE",
"295 762 CURVE SMOOTH",
"49 762 LINE",
"49 740 LINE",
"133 721 LINE",
"133 42 LINE",
"49 23 LINE",
"49 0 LINE"
);
},
{
closed = 1;
nodes = (
"262 38 OFFCURVE",
"237 52 OFFCURVE",
"237 97 CURVE SMOOTH",
"237 723 LINE",
"315 723 LINE SMOOTH",
"426 723 OFFCURVE",
"487 703 OFFCURVE",
"538 650 CURVE SMOOTH",
"593 592 OFFCURVE",
"621 503 OFFCURVE",
"621 391 CURVE SMOOTH",
"621 280 OFFCURVE",
"593 183 OFFCURVE",
"540 118 CURVE SMOOTH",
"493 60 OFFCURVE",
"437 38 OFFCURVE",
"340 38 CURVE SMOOTH"
);
}
);
width = 802;
},
{
anchors = (
{
name = bottom;
position = "{406, 0}";
},
{
name = topcap;
position = "{406, 822}";
}
);
layerId = "7C8D72FA-6E62-4564-8BB2-D9F9BC4EB15A";
paths = (
{
closed = 1;
nodes = (
"384 0 LINE",
"484 0 OFFCURVE",
"548 17 OFFCURVE",
"607 59 CURVE SMOOTH",
"700 126 OFFCURVE",
"756 245 OFFCURVE",
"756 380 CURVE SMOOTH",
"756 510 OFFCURVE",
"704 622 OFFCURVE",
"614 690 CURVE SMOOTH",
"543 742 OFFCURVE",
"456 762 OFFCURVE",
"297 762 CURVE SMOOTH",
"47 762 LINE",
"47 738 LINE",
"132 719 LINE",
"132 44 LINE",
"47 25 LINE",
"47 0 LINE"
);
},
{
closed = 1;
nodes = (
"270 40 OFFCURVE",
"245 54 OFFCURVE",
"245 99 CURVE SMOOTH",
"245 721 LINE",
"324 721 LINE SMOOTH",
"431 721 OFFCURVE",
"493 700 OFFCURVE",
"542 649 CURVE SMOOTH",
"596 590 OFFCURVE",
"623 503 OFFCURVE",
"623 390 CURVE SMOOTH",
"623 278 OFFCURVE",
"596 182 OFFCURVE",
"544 118 CURVE SMOOTH",
"498 62 OFFCURVE",
"442 40 OFFCURVE",
"347 40 CURVE SMOOTH"
);
}
);
width = 811;
}
);
leftKerningGroup = I;
rightKerningGroup = D;
unicode = 0044;
},
{
glyphname = Eth;
layers = (
{
layerId = "FA6D65B5-4623-4FAC-A199-3F662257AC29";
paths = (
{
closed = 1;
nodes = (
"408 0 LINE SMOOTH",
"520 0 OFFCURVE",
"592 17 OFFCURVE",
"658 59 CURVE SMOOTH",
"758 123 OFFCURVE",
"824 244 OFFCURVE",
"824 382 CURVE SMOOTH",
"824 517 OFFCURVE",
"762 626 OFFCURVE",
"665 690 CURVE SMOOTH",
"585 744 OFFCURVE",
"483 762 OFFCURVE",
"311 762 CURVE SMOOTH",
"41 762 LINE",
"41 726 LINE",
"126 707 LINE",
"126 435 LINE",
"52 435 LINE",
"52 350 LINE",
"126 350 LINE",
"126 57 LINE",
"41 38 LINE",
"41 0 LINE"
);
},
{
closed = 1;
nodes = (
"324 54 OFFCURVE",
"296 72 OFFCURVE",
"296 113 CURVE SMOOTH",
"296 350 LINE",
"435 350 LINE",
"435 435 LINE",
"296 435 LINE",
"296 707 LINE",
"385 707 LINE SMOOTH",
"469 707 OFFCURVE",
"530 684 OFFCURVE",
"569 636 CURVE SMOOTH",
"613 582 OFFCURVE",
"634 503 OFFCURVE",
"634 382 CURVE SMOOTH",
"634 259 OFFCURVE",
"613 172 OFFCURVE",
"569 120 CURVE SMOOTH",
"531 75 OFFCURVE",
"474 54 OFFCURVE",
"397 54 CURVE SMOOTH"
);
}
);
width = 869;
},
{
associatedMasterId = "FA6D65B5-4623-4FAC-A199-3F662257AC29";
layerId = "CBD44848-52BD-4DC5-BFA6-577546B7224D";
paths = (
{
closed = 1;
nodes = (
"381 0 LINE SMOOTH",
"480 0 OFFCURVE",
"542 17 OFFCURVE",
"600 59 CURVE SMOOTH",
"692 126 OFFCURVE",
"746 245 OFFCURVE",
"746 379 CURVE SMOOTH",
"746 509 OFFCURVE",
"696 621 OFFCURVE",
"607 690 CURVE SMOOTH",
"538 742 OFFCURVE",
"453 762 OFFCURVE",
"296 762 CURVE SMOOTH",
"50 762 LINE",
"50 740 LINE",
"134 721 LINE",
"134 425 LINE",
"56 425 LINE",
"56 361 LINE",
"134 361 LINE",
"134 42 LINE",
"50 23 LINE",
"50 0 LINE"
);
},
{
closed = 1;
nodes = (
"262 38 OFFCURVE",
"237 52 OFFCURVE",
"237 97 CURVE SMOOTH",
"237 361 LINE",
"360 361 LINE",
"360 425 LINE",
"237 425 LINE",
"237 723 LINE",
"316 723 LINE SMOOTH",
"427 723 OFFCURVE",
"488 703 OFFCURVE",
"539 650 CURVE SMOOTH",
"594 592 OFFCURVE",
"623 503 OFFCURVE",
"623 391 CURVE SMOOTH",
"623 280 OFFCURVE",
"594 183 OFFCURVE",
"541 118 CURVE SMOOTH",
"494 60 OFFCURVE",
"438 38 OFFCURVE",
"341 38 CURVE SMOOTH"
);
}
);
width = 803;
},
{
layerId = "7C8D72FA-6E62-4564-8BB2-D9F9BC4EB15A";
paths = (
{
closed = 1;
nodes = (
"385 0 LINE SMOOTH",
"486 0 OFFCURVE",
"549 17 OFFCURVE",
"608 59 CURVE SMOOTH",
"701 126 OFFCURVE",
"757 245 OFFCURVE",
"757 380 CURVE SMOOTH",
"757 510 OFFCURVE",
"704 622 OFFCURVE",
"615 690 CURVE SMOOTH",
"544 742 OFFCURVE",
"457 762 OFFCURVE",
"298 762 CURVE SMOOTH",
"49 762 LINE",
"49 738 LINE",
"133 719 LINE",
"133 426 LINE",
"56 426 LINE",
"56 360 LINE",
"133 360 LINE",
"133 44 LINE",
"49 25 LINE",
"49 0 LINE"
);
},
{
closed = 1;
nodes = (
"271 40 OFFCURVE",
"246 54 OFFCURVE",
"246 99 CURVE SMOOTH",
"246 360 LINE",
"369 360 LINE",
"369 426 LINE",
"246 426 LINE",
"246 721 LINE",
"325 721 LINE SMOOTH",
"433 721 OFFCURVE",
"494 700 OFFCURVE",
"543 649 CURVE SMOOTH",
"597 590 OFFCURVE",
"624 503 OFFCURVE",
"624 390 CURVE SMOOTH",
"624 278 OFFCURVE",
"597 182 OFFCURVE",
"545 118 CURVE SMOOTH",
"499 62 OFFCURVE",
"442 40 OFFCURVE",
"348 40 CURVE SMOOTH"
);
}
);
width = 811;
}
);
leftKerningGroup = I;
rightKerningGroup = D;
unicode = 00D0;
},
{
glyphname = Dcroat;
layers = (
{
layerId = "FA6D65B5-4623-4FAC-A199-3F662257AC29";
paths = (
{
closed = 1;
nodes = (
"408 0 LINE SMOOTH",
"520 0 OFFCURVE",
"592 17 OFFCURVE",
"658 59 CURVE SMOOTH",
"758 123 OFFCURVE",
"824 244 OFFCURVE",
"824 382 CURVE SMOOTH",
"824 517 OFFCURVE",
"762 626 OFFCURVE",
"665 690 CURVE SMOOTH",
"585 744 OFFCURVE",
"483 762 OFFCURVE",
"311 762 CURVE SMOOTH",
"41 762 LINE",
"41 726 LINE",
"126 707 LINE",
"126 435 LINE",
"52 435 LINE",
"52 350 LINE",
"126 350 LINE",
"126 57 LINE",
"41 38 LINE",
"41 0 LINE"
);
},
{
closed = 1;
nodes = (
"324 54 OFFCURVE",
"296 72 OFFCURVE",
"296 113 CURVE SMOOTH",
"296 350 LINE",
"435 350 LINE",
"435 435 LINE",
"296 435 LINE",
"296 707 LINE",
"385 707 LINE SMOOTH",
"469 707 OFFCURVE",
"530 684 OFFCURVE",
"569 636 CURVE SMOOTH",
"613 582 OFFCURVE",
"634 503 OFFCURVE",
"634 382 CURVE SMOOTH",
"634 259 OFFCURVE",
"613 172 OFFCURVE",
"569 120 CURVE SMOOTH",
"531 75 OFFCURVE",
"474 54 OFFCURVE",
"397 54 CURVE SMOOTH"
);
}
);
width = 869;
},
{
associatedMasterId = "FA6D65B5-4623-4FAC-A199-3F662257AC29";
layerId = "CBD44848-52BD-4DC5-BFA6-577546B7224D";
paths = (
{
closed = 1;
nodes = (
"381 0 LINE SMOOTH",
"480 0 OFFCURVE",
"542 17 OFFCURVE",
"600 59 CURVE SMOOTH",
"692 126 OFFCURVE",
"746 245 OFFCURVE",
"746 379 CURVE SMOOTH",
"746 509 OFFCURVE",
"696 621 OFFCURVE",
"607 690 CURVE SMOOTH",
"538 742 OFFCURVE",
"453 762 OFFCURVE",
"296 762 CURVE SMOOTH",
"50 762 LINE",
"50 740 LINE",
"134 721 LINE",
"134 425 LINE",
"56 425 LINE",
"56 361 LINE",
"134 361 LINE",
"134 42 LINE",
"50 23 LINE",
"50 0 LINE"
);
},
{
closed = 1;
nodes = (
"262 38 OFFCURVE",
"237 52 OFFCURVE",
"237 97 CURVE SMOOTH",
"237 361 LINE",
"360 361 LINE",
"360 425 LINE",
"237 425 LINE",
"237 723 LINE",
"316 723 LINE SMOOTH",
"427 723 OFFCURVE",
"488 703 OFFCURVE",
"539 650 CURVE SMOOTH",
"594 592 OFFCURVE",
"623 503 OFFCURVE",
"623 391 CURVE SMOOTH",
"623 280 OFFCURVE",
"594 183 OFFCURVE",
"541 118 CURVE SMOOTH",
"494 60 OFFCURVE",
"438 38 OFFCURVE",
"341 38 CURVE SMOOTH"
);
}
);
width = 803;
},
{
layerId = "7C8D72FA-6E62-4564-8BB2-D9F9BC4EB15A";
paths = (
{
closed = 1;
nodes = (
"385 0 LINE SMOOTH",
"486 0 OFFCURVE",
"549 17 OFFCURVE",
"608 59 CURVE SMOOTH",
"701 126 OFFCURVE",
"757 245 OFFCURVE",
"757 380 CURVE SMOOTH",
"757 510 OFFCURVE",
"704 622 OFFCURVE",
"615 690 CURVE SMOOTH",
"544 742 OFFCURVE",
"457 762 OFFCURVE",
"298 762 CURVE SMOOTH",
"49 762 LINE",
"49 738 LINE",
"133 719 LINE",
"133 426 LINE",
"56 426 LINE",
"56 360 LINE",
"133 360 LINE",
"133 44 LINE",
"49 25 LINE",
"49 0 LINE"
);
},
{
closed = 1;
nodes = (
"271 40 OFFCURVE",
"246 54 OFFCURVE",
"246 99 CURVE SMOOTH",
"246 360 LINE",
"369 360 LINE",
"369 426 LINE",
"246 426 LINE",
"246 721 LINE",
"325 721 LINE SMOOTH",
"433 721 OFFCURVE",
"494 700 OFFCURVE",
"543 649 CURVE SMOOTH",
"597 590 OFFCURVE",
"624 503 OFFCURVE",
"624 390 CURVE SMOOTH",
"624 278 OFFCURVE",
"597 182 OFFCURVE",
"545 118 CURVE SMOOTH",
"499 62 OFFCURVE",
"442 40 OFFCURVE",
"348 40 CURVE SMOOTH"
);
}
);
width = 811;
}
);
leftKerningGroup = I;
rightKerningGroup = D;
unicode = 0110;
},
{
glyphname = E;
layers = (
{
anchors = (
{
name = bottom;
position = "{383, 0}";
},
{
name = ogonekcap;
position = "{642, 0}";
},
{
name = topcap;
position = "{376, 822}";
}
);
layerId = "FA6D65B5-4623-4FAC-A199-3F662257AC29";
paths = (
{
closed = 1;
nodes = (
"642 0 LINE",
"684 232 LINE",
"633 232 LINE",
"609 174 OFFCURVE",
"585 115 OFFCURVE",
"542 57 CURVE",
"296 57 LINE",
"296 706 LINE",
"548 706 LINE",
"582 654 OFFCURVE",
"607 596 OFFCURVE",
"625 544 CURVE",
"666 544 LINE",
"647 762 LINE",
"42 762 LINE",
"42 726 LINE",
"126 707 LINE",
"126 56 LINE",
"42 37 LINE",
"42 0 LINE"
);
},
{
closed = 1;
nodes = (
"505 265 LINE",
"505 541 LINE",
"464 541 LINE",
"456 505 OFFCURVE",
"443 467 OFFCURVE",
"421 430 CURVE",
"280 430 LINE",
"280 376 LINE",
"421 376 LINE",
"442 340 OFFCURVE",
"456 301 OFFCURVE",
"464 265 CURVE"
);
}
);
width = 724;
},
{
anchors = (
{
name = bottom;
position = "{354, 0}";
},
{
name = topcap;
position = "{353, 822}";
}
);
associatedMasterId = "FA6D65B5-4623-4FAC-A199-3F662257AC29";
layerId = "CBD44848-52BD-4DC5-BFA6-577546B7224D";
paths = (
{
closed = 1;
nodes = (
"595 0 LINE",
"632 232 LINE",
"599 232 LINE",
"577 167 OFFCURVE",
"555 104 OFFCURVE",
"516 39 CURVE",
"237 39 LINE",
"237 723 LINE",
"521 723 LINE",
"554 666 OFFCURVE",
"576 601 OFFCURVE",
"592 544 CURVE",
"616 544 LINE",
"599 762 LINE",
"49 762 LINE",
"49 740 LINE",
"133 721 LINE",
"133 42 LINE",
"49 23 LINE",
"49 0 LINE"
);
},
{
closed = 1;
nodes = (
"474 263 LINE",
"474 540 LINE",
"450 540 LINE",
"444 501 OFFCURVE",
"433 461 OFFCURVE",
"414 422 CURVE",
"223 422 LINE",
"223 382 LINE",
"414 382 LINE",
"433 343 OFFCURVE",
"444 303 OFFCURVE",
"450 263 CURVE"
);
}
);
width = 685;
},
{
anchors = (
{
name = bottom;
position = "{358, 0}";
},
{
name = ogonekcap;
position = "{601, 0}";
},
{
name = topcap;
position = "{356, 822}";
}
);
layerId = "7C8D72FA-6E62-4564-8BB2-D9F9BC4EB15A";
paths = (
{
closed = 1;
nodes = (
"601 0 LINE",
"639 232 LINE",
"604 232 LINE",
"581 168 OFFCURVE",
"559 106 OFFCURVE",
"520 42 CURVE",
"245 42 LINE",
"245 721 LINE",
"525 721 LINE",
"558 665 OFFCURVE",
"580 600 OFFCURVE",
"596 544 CURVE",
"623 544 LINE",
"605 762 LINE",
"47 762 LINE",
"47 738 LINE",
"132 719 LINE",
"132 44 LINE",
"47 24 LINE",
"47 0 LINE"
);
},
{
closed = 1;
nodes = (
"478 263 LINE",
"478 541 LINE",
"452 541 LINE",
"445 502 OFFCURVE",
"434 462 OFFCURVE",
"415 423 CURVE",
"231 423 LINE",
"231 381 LINE",
"415 381 LINE",
"434 342 OFFCURVE",
"446 303 OFFCURVE",
"452 263 CURVE"
);
}
);
width = 690;
}
);
leftKerningGroup = I;
rightKerningGroup = E;
unicode = 0045;
},
{
glyphname = F;
layers = (
{
layerId = "FA6D65B5-4623-4FAC-A199-3F662257AC29";
paths = (
{
closed = 1;
nodes = (
"408 0 LINE",
"408 37 LINE",
"295 56 LINE",
"295 706 LINE",
"555 706 LINE",
"588 654 OFFCURVE",
"610 596 OFFCURVE",
"626 544 CURVE",
"664 544 LINE",
"647 762 LINE",
"42 762 LINE",
"42 726 LINE",
"126 707 LINE",
"126 56 LINE",
"42 37 LINE",
"42 0 LINE"
);
},
{
closed = 1;
nodes = (
"504 265 LINE",
"504 541 LINE",
"465 541 LINE",
"459 504 OFFCURVE",
"448 468 OFFCURVE",
"429 430 CURVE",
"282 430 LINE",
"282 377 LINE",
"429 377 LINE",
"446 340 OFFCURVE",
"459 302 OFFCURVE",
"465 265 CURVE"
);
}
);
width = 677;
},
{
associatedMasterId = "FA6D65B5-4623-4FAC-A199-3F662257AC29";
layerId = "CBD44848-52BD-4DC5-BFA6-577546B7224D";
paths = (
{
closed = 1;
nodes = (
"349 0 LINE",
"349 23 LINE",
"237 42 LINE",
"237 723 LINE",
"521 723 LINE",
"554 666 OFFCURVE",
"576 601 OFFCURVE",
"592 544 CURVE",
"616 544 LINE",
"599 762 LINE",
"49 762 LINE",
"49 740 LINE",
"133 721 LINE",
"133 42 LINE",
"49 23 LINE",
"49 0 LINE"
);
},
{
closed = 1;
nodes = (
"474 263 LINE",
"474 540 LINE",
"450 540 LINE",
"444 501 OFFCURVE",
"433 461 OFFCURVE",
"414 422 CURVE",
"223 422 LINE",
"223 382 LINE",
"414 382 LINE",
"433 343 OFFCURVE",
"444 303 OFFCURVE",
"450 263 CURVE"
);
}
);
width = 643;
},
{
layerId = "7C8D72FA-6E62-4564-8BB2-D9F9BC4EB15A";
paths = (
{
closed = 1;
nodes = (
"357 0 LINE",
"357 24 LINE",
"245 44 LINE",
"245 721 LINE",
"525 721 LINE",
"558 665 OFFCURVE",
"581 600 OFFCURVE",
"596 544 CURVE",
"623 544 LINE",
"605 762 LINE",
"47 762 LINE",
"47 738 LINE",
"132 719 LINE",
"132 44 LINE",
"47 24 LINE",
"47 0 LINE"
);
},
{
closed = 1;
nodes = (
"478 263 LINE",
"478 541 LINE",
"453 541 LINE",
"445 502 OFFCURVE",
"434 462 OFFCURVE",
"416 423 CURVE",
"231 423 LINE",
"231 381 LINE",
"416 381 LINE",
"434 342 OFFCURVE",
"446 303 OFFCURVE",
"453 263 CURVE"
);
}
);
width = 648;
}
);
leftKerningGroup = I;
unicode = 0046;
},
{
glyphname = G;
layers = (
{
anchors = (
{
name = bottom;
position = "{434, 0}";
},
{
name = topcap;
position = "{446, 822}";
}
);
layerId = "FA6D65B5-4623-4FAC-A199-3F662257AC29";
paths = (
{
closed = 1;
nodes = (
"544 -10 OFFCURVE",
"679 29 OFFCURVE",
"741 81 CURVE",
"741 327 LINE",
"829 346 LINE",
"829 382 LINE",
"482 382 LINE",
"482 346 LINE",
"571 327 LINE",
"571 159 LINE SMOOTH",
"571 128 OFFCURVE",
"569 117 OFFCURVE",
"560 104 CURVE SMOOTH",
"537 69 OFFCURVE",
"487 47 OFFCURVE",
"430 47 CURVE SMOOTH",
"296 47 OFFCURVE",
"235 146 OFFCURVE",
"235 373 CURVE SMOOTH",
"235 601 OFFCURVE",
"309 712 OFFCURVE",
"460 712 CURVE SMOOTH",
"564 712 OFFCURVE",
"627 661 OFFCURVE",
"695 520 CURVE",
"740 520 LINE",
"740 762 LINE",
"708 762 LINE",
"664 711 LINE",
"660 711 LINE",
"612 749 OFFCURVE",
"530 772 OFFCURVE",
"442 772 CURVE SMOOTH",
"209 772 OFFCURVE",
"45 606 OFFCURVE",
"45 369 CURVE SMOOTH",
"45 142 OFFCURVE",
"198 -10 OFFCURVE",
"430 -10 CURVE SMOOTH"
);
}
);
width = 847;
},
{
anchors = (
{
name = bottom;
position = "{423, 0}";
},
{
name = topcap;
position = "{433, 822}";
}
);
associatedMasterId = "FA6D65B5-4623-4FAC-A199-3F662257AC29";
layerId = "CBD44848-52BD-4DC5-BFA6-577546B7224D";
paths = (
{
closed = 1;
nodes = (
"516 -10 OFFCURVE",
"630 28 OFFCURVE",
"684 81 CURVE",
"684 341 LINE",
"772 360 LINE",
"772 382 LINE",
"491 382 LINE",
"491 360 LINE",
"580 341 LINE",
"580 148 LINE SMOOTH",
"580 114 OFFCURVE",
"578 106 OFFCURVE",
"572 96 CURVE SMOOTH",
"547 56 OFFCURVE",
"495 36 OFFCURVE",
"431 36 CURVE SMOOTH",
"263 36 OFFCURVE",
"181 148 OFFCURVE",
"181 372 CURVE SMOOTH",
"181 606 OFFCURVE",
"270 728 OFFCURVE",
"440 728 CURVE SMOOTH",
"550 728 OFFCURVE",
"609 678 OFFCURVE",
"672 535 CURVE",
"695 535 LINE",
"695 762 LINE",
"673 762 LINE",
"620 711 LINE",
"616 711 LINE",
"572 750 OFFCURVE",
"503 772 OFFCURVE",
"426 772 CURVE SMOOTH",
"212 772 OFFCURVE",
"55 602 OFFCURVE",
"55 372 CURVE SMOOTH",
"55 149 OFFCURVE",
"203 -10 OFFCURVE",
"414 -10 CURVE SMOOTH"
);
}
);
width = 800;
},
{
anchors = (
{
name = bottom;
position = "{425, 0}";
},
{
name = topcap;
position = "{434, 822}";
}
);
layerId = "7C8D72FA-6E62-4564-8BB2-D9F9BC4EB15A";
paths = (
{
closed = 1;
nodes = (
"520 -10 OFFCURVE",
"636 28 OFFCURVE",
"692 81 CURVE",
"692 339 LINE",
"780 358 LINE",
"780 382 LINE",
"490 382 LINE",
"490 358 LINE",
"579 339 LINE",
"579 149 LINE SMOOTH",
"579 116 OFFCURVE",
"577 107 OFFCURVE",
"570 98 CURVE SMOOTH",
"546 58 OFFCURVE",
"494 37 OFFCURVE",
"431 37 CURVE SMOOTH",
"268 37 OFFCURVE",
"189 147 OFFCURVE",
"189 373 CURVE SMOOTH",
"189 605 OFFCURVE",
"275 726 OFFCURVE",
"442 726 CURVE SMOOTH",
"551 726 OFFCURVE",
"611 676 OFFCURVE",
"675 532 CURVE",
"701 532 LINE",
"701 762 LINE",
"678 762 LINE",
"626 711 LINE",
"622 711 LINE",
"577 750 OFFCURVE",
"506 772 OFFCURVE",
"428 772 CURVE SMOOTH",
"212 772 OFFCURVE",
"53 602 OFFCURVE",
"53 372 CURVE SMOOTH",
"53 148 OFFCURVE",
"202 -10 OFFCURVE",
"416 -10 CURVE SMOOTH"
);
}
);
width = 806;
}
);
leftKerningGroup = G;
rightKerningGroup = G;
unicode = 0047;
},
{
glyphname = H;
layers = (
{
anchors = (
{
name = bottom;
position = "{457, 0}";
},
{
name = topcap;
position = "{457, 822}";
}
);
layerId = "FA6D65B5-4623-4FAC-A199-3F662257AC29";
paths = (
{
closed = 1;
nodes = (
"873 0 LINE",
"873 37 LINE",
"789 58 LINE",
"789 706 LINE",
"873 726 LINE",
"873 762 LINE",
"535 762 LINE",
"535 726 LINE",
"619 706 LINE",
"619 58 LINE",
"535 37 LINE",
"535 0 LINE"
);
},
{
closed = 1;
nodes = (
"379 0 LINE",
"379 37 LINE",
"296 58 LINE",
"296 706 LINE",
"379 726 LINE",
"379 762 LINE",
"42 762 LINE",
"42 726 LINE",
"126 706 LINE",
"126 58 LINE",
"42 37 LINE",
"42 0 LINE"
);
},
{
closed = 1;
nodes = (
"718 374 LINE",
"718 431 LINE",
"199 431 LINE",
"199 374 LINE"
);
}
);
width = 913;
},
{
anchors = (
{
name = bottom;
position = "{427, 0}";
},
{
name = topcap;
position = "{427, 822}";
}
);
associatedMasterId = "FA6D65B5-4623-4FAC-A199-3F662257AC29";
layerId = "CBD44848-52BD-4DC5-BFA6-577546B7224D";
paths = (
{
closed = 1;
nodes = (
"804 0 LINE",
"804 21 LINE",
"715 42 LINE",
"715 721 LINE",
"804 737 LINE",
"804 762 LINE",
"522 762 LINE",
"522 740 LINE",
"612 721 LINE",
"612 42 LINE",
"522 23 LINE",
"522 0 LINE"
);
},
{
closed = 1;
nodes = (
"326 0 LINE",
"326 23 LINE",
"237 42 LINE",
"237 721 LINE",
"326 740 LINE",
"326 762 LINE",
"45 762 LINE",
"45 740 LINE",
"134 721 LINE",
"134 42 LINE",
"45 23 LINE",
"45 0 LINE"
);
},
{
closed = 1;
nodes = (
"654 381 LINE",
"654 421 LINE",
"198 421 LINE",
"198 381 LINE"
);
}
);
width = 848;
},
{
anchors = (
{
name = bottom;
position = "{431, 0}";
},
{
name = topcap;
position = "{431, 822}";
}
);
layerId = "7C8D72FA-6E62-4564-8BB2-D9F9BC4EB15A";
paths = (
{
closed = 1;
nodes = (
"813 0 LINE",
"813 23 LINE",
"725 44 LINE",
"725 719 LINE",
"813 736 LINE",
"813 762 LINE",
"524 762 LINE",
"524 738 LINE",
"613 719 LINE",
"613 44 LINE",
"524 24 LINE",
"524 0 LINE"
);
},
{
closed = 1;
nodes = (
"333 0 LINE",
"333 24 LINE",
"246 44 LINE",
"246 719 LINE",
"333 738 LINE",
"333 762 LINE",
"44 762 LINE",
"44 738 LINE",
"133 719 LINE",
"133 44 LINE",
"44 24 LINE",
"44 0 LINE"
);
},
{
closed = 1;
nodes = (
"662 380 LINE",
"662 422 LINE",
"198 422 LINE",
"198 380 LINE"
);
}
);
width = 857;
}
);
leftKerningGroup = I;
rightKerningGroup = I;
unicode = 0048;
},
{
glyphname = Hbar;
layers = (
{
layerId = "FA6D65B5-4623-4FAC-A199-3F662257AC29";
paths = (
{
closed = 1;
nodes = (
"380 0 LINE",
"380 37 LINE",
"297 58 LINE",
"297 374 LINE",
"620 374 LINE",
"620 58 LINE",
"536 37 LINE",
"536 0 LINE",
"873 0 LINE",
"873 37 LINE",
"790 58 LINE",
"790 532 LINE",
"866 532 LINE",
"866 606 LINE",
"790 606 LINE",
"790 706 LINE",
"873 726 LINE",
"873 762 LINE",
"536 762 LINE",
"536 726 LINE",
"620 706 LINE",
"620 606 LINE",
"297 606 LINE",
"297 706 LINE",
"380 726 LINE",
"380 762 LINE",
"43 762 LINE",
"43 726 LINE",
"127 706 LINE",
"127 606 LINE",
"53 606 LINE",
"53 532 LINE",
"127 532 LINE",
"127 58 LINE",
"43 37 LINE",
"43 0 LINE"
);
},
{
closed = 1;
nodes = (
"297 532 LINE",
"620 532 LINE",
"620 431 LINE",
"297 431 LINE"
);
}
);
width = 916;
},
{
associatedMasterId = "FA6D65B5-4623-4FAC-A199-3F662257AC29";
layerId = "CBD44848-52BD-4DC5-BFA6-577546B7224D";
paths = (
{
closed = 1;
nodes = (
"326 0 LINE",
"326 23 LINE",
"237 42 LINE",
"237 381 LINE",
"612 381 LINE",
"612 42 LINE",
"522 23 LINE",
"522 0 LINE",
"804 0 LINE",
"804 21 LINE",
"715 42 LINE",
"715 541 LINE",
"805 541 LINE",
"805 606 LINE",
"715 606 LINE",
"715 721 LINE",
"804 737 LINE",
"804 762 LINE",
"522 762 LINE",
"522 740 LINE",
"612 721 LINE",
"612 606 LINE",
"237 606 LINE",
"237 721 LINE",
"326 740 LINE",
"326 762 LINE",
"45 762 LINE",
"45 740 LINE",
"134 721 LINE",
"134 606 LINE",
"55 606 LINE",
"55 541 LINE",
"134 541 LINE",
"134 42 LINE",
"45 23 LINE",
"45 0 LINE"
);
},
{
closed = 1;
nodes = (
"237 541 LINE",
"612 541 LINE",
"612 421 LINE",
"237 421 LINE"
);
}
);
width = 849;
},
{
layerId = "7C8D72FA-6E62-4564-8BB2-D9F9BC4EB15A";
paths = (
{
closed = 1;
nodes = (
"333 0 LINE",
"333 24 LINE",
"246 44 LINE",
"246 380 LINE",
"613 380 LINE",
"613 44 LINE",
"524 24 LINE",
"524 0 LINE",
"813 0 LINE",
"813 23 LINE",
"725 44 LINE",
"725 540 LINE",
"813 540 LINE",
"813 606 LINE",
"725 606 LINE",
"725 719 LINE",
"813 736 LINE",
"813 762 LINE",
"524 762 LINE",
"524 738 LINE",
"613 719 LINE",
"613 606 LINE",
"246 606 LINE",
"246 719 LINE",
"333 738 LINE",
"333 762 LINE",
"45 762 LINE",
"45 738 LINE",
"133 719 LINE",
"133 606 LINE",
"54 606 LINE",
"54 540 LINE",
"133 540 LINE",
"133 44 LINE",
"45 24 LINE",
"45 0 LINE"
);
},
{
closed = 1;
nodes = (
"246 540 LINE",
"613 540 LINE",
"613 422 LINE",
"246 422 LINE"
);
}
);
width = 858;
}
);
leftKerningGroup = I;
rightKerningGroup = I;
unicode = 0126;
},
{
glyphname = I;
layers = (
{
anchors = (
{
name = bottom;
position = "{210, 0}";
},
{
name = ogonekcap;
position = "{379, 0}";
},
{
name = topcap;
position = "{210, 822}";
}
);
layerId = "FA6D65B5-4623-4FAC-A199-3F662257AC29";
paths = (
{
closed = 1;
nodes = (
"379 0 LINE",
"379 37 LINE",
"296 58 LINE",
"296 706 LINE",
"379 726 LINE",
"379 762 LINE",
"42 762 LINE",
"42 726 LINE",
"126 706 LINE",
"126 58 LINE",
"42 37 LINE",
"42 0 LINE"
);
}
);
width = 421;
},
{
anchors = (
{
name = bottom;
position = "{186, 0}";
},
{
name = topcap;
position = "{186, 822}";
}
);
associatedMasterId = "FA6D65B5-4623-4FAC-A199-3F662257AC29";
layerId = "CBD44848-52BD-4DC5-BFA6-577546B7224D";
paths = (
{
closed = 1;
nodes = (
"326 0 LINE",
"326 23 LINE",
"237 42 LINE",
"237 721 LINE",
"326 740 LINE",
"326 762 LINE",
"45 762 LINE",
"45 740 LINE",
"134 721 LINE",
"134 42 LINE",
"45 23 LINE",
"45 0 LINE"
);
}
);
width = 370;
},
{
anchors = (
{
name = bottom;
position = "{190, 0}";
},
{
name = ogonekcap;
position = "{333, 0}";
},
{
name = topcap;
position = "{190, 822}";
}
);
layerId = "7C8D72FA-6E62-4564-8BB2-D9F9BC4EB15A";
paths = (
{
closed = 1;
nodes = (
"333 0 LINE",
"333 24 LINE",
"246 44 LINE",
"246 719 LINE",
"333 738 LINE",
"333 762 LINE",
"44 762 LINE",
"44 738 LINE",
"133 719 LINE",
"133 44 LINE",
"44 24 LINE",
"44 0 LINE"
);
}
);
width = 377;
}
);
leftKerningGroup = I;
rightKerningGroup = I;
unicode = 0049;
},
{
glyphname = J;
layers = (
{
anchors = (
{
name = topcap;
position = "{203, 822}";
}
);
layerId = "FA6D65B5-4623-4FAC-A199-3F662257AC29";
paths = (
{
closed = 1;
nodes = (
"108 -257 OFFCURVE",
"202 -212 OFFCURVE",
"254 -130 CURVE SMOOTH",
"283 -77 OFFCURVE",
"288 -40 OFFCURVE",
"288 154 CURVE SMOOTH",
"288 706 LINE",
"372 726 LINE",
"372 762 LINE",
"34 762 LINE",
"34 726 LINE",
"118 706 LINE",
"118 -42 LINE SMOOTH",
"118 -149 OFFCURVE",
"86 -201 OFFCURVE",
"47 -201 CURVE SMOOTH",
"23 -201 OFFCURVE",
"7 -182 OFFCURVE",
"-9 -137 CURVE SMOOTH",
"-22 -102 OFFCURVE",
"-40 -76 OFFCURVE",
"-81 -76 CURVE SMOOTH",
"-121 -76 OFFCURVE",
"-152 -102 OFFCURVE",
"-152 -151 CURVE SMOOTH",
"-152 -216 OFFCURVE",
"-92 -257 OFFCURVE",
"15 -257 CURVE SMOOTH"
);
}
);
width = 405;
},
{
anchors = (
{
name = topcap;
position = "{180, 822}";
}
);
associatedMasterId = "FA6D65B5-4623-4FAC-A199-3F662257AC29";
layerId = "CBD44848-52BD-4DC5-BFA6-577546B7224D";
paths = (
{
closed = 1;
nodes = (
"72 -257 OFFCURVE",
"151 -212 OFFCURVE",
"197 -130 CURVE SMOOTH",
"226 -77 OFFCURVE",
"231 -40 OFFCURVE",
"231 154 CURVE SMOOTH",
"231 721 LINE",
"319 740 LINE",
"319 762 LINE",
"38 762 LINE",
"38 740 LINE",
"127 721 LINE",
"127 -47 LINE SMOOTH",
"127 -155 OFFCURVE",
"91 -205 OFFCURVE",
"46 -205 CURVE SMOOTH",
"20 -205 OFFCURVE",
"-1 -190 OFFCURVE",
"-14 -152 CURVE SMOOTH",
"-26 -122 OFFCURVE",
"-41 -107 OFFCURVE",
"-69 -107 CURVE SMOOTH",
"-105 -107 OFFCURVE",
"-128 -132 OFFCURVE",
"-128 -171 CURVE SMOOTH",
"-128 -225 OFFCURVE",
"-82 -257 OFFCURVE",
"-9 -257 CURVE SMOOTH"
);
}
);
width = 358;
},
{
anchors = (
{
name = topcap;
position = "{183, 822}";
}
);
layerId = "7C8D72FA-6E62-4564-8BB2-D9F9BC4EB15A";
paths = (
{
closed = 1;
nodes = (
"77 -257 OFFCURVE",
"158 -212 OFFCURVE",
"205 -130 CURVE SMOOTH",
"233 -77 OFFCURVE",
"239 -40 OFFCURVE",
"239 154 CURVE SMOOTH",
"239 719 LINE",
"326 738 LINE",
"326 762 LINE",
"38 762 LINE",
"38 738 LINE",
"126 719 LINE",
"126 -46 LINE SMOOTH",
"126 -153 OFFCURVE",
"91 -205 OFFCURVE",
"46 -205 CURVE SMOOTH",
"20 -205 OFFCURVE",
"0 -189 OFFCURVE",
"-14 -150 CURVE SMOOTH",
"-25 -120 OFFCURVE",
"-41 -103 OFFCURVE",
"-71 -103 CURVE SMOOTH",
"-107 -103 OFFCURVE",
"-130 -128 OFFCURVE",
"-130 -168 CURVE SMOOTH",
"-130 -224 OFFCURVE",
"-83 -257 OFFCURVE",
"-6 -257 CURVE SMOOTH"
);
}
);
width = 365;
}
);
leftKerningGroup = J;
rightKerningGroup = J;
unicode = 004A;
},
{
glyphname = K;
layers = (
{
anchors = (
{
name = bottom;
position = "{433, 0}";
}
);
layerId = "FA6D65B5-4623-4FAC-A199-3F662257AC29";
paths = (
{
closed = 1;
nodes = (
"379 0 LINE",
"379 37 LINE",
"296 58 LINE",
"296 324 LINE",
"318 348 LINE",
"562 0 LINE",
"826 0 LINE",
"826 37 LINE",
"735 56 LINE",
"435 474 LINE",
"609 664 LINE SMOOTH",
"641 700 OFFCURVE",
"662 711 OFFCURVE",
"756 726 CURVE",
"756 762 LINE",
"471 762 LINE",
"471 727 LINE",
"522 725 OFFCURVE",
"547 716 OFFCURVE",
"547 698 CURVE SMOOTH",
"547 690 OFFCURVE",
"544 678 OFFCURVE",
"534 667 CURVE SMOOTH",
"296 412 LINE",
"296 706 LINE",
"379 726 LINE",
"379 762 LINE",
"42 762 LINE",
"42 726 LINE",
"126 706 LINE",
"126 58 LINE",
"42 37 LINE",
"42 0 LINE"
);
}
);
width = 799;
},
{
anchors = (
{
name = bottom;
position = "{392, 0}";
}
);
associatedMasterId = "FA6D65B5-4623-4FAC-A199-3F662257AC29";
layerId = "CBD44848-52BD-4DC5-BFA6-577546B7224D";
paths = (
{
closed = 1;
nodes = (
"326 0 LINE",
"326 23 LINE",
"237 42 LINE",
"237 302 LINE",
"302 375 LINE",
"584 0 LINE",
"799 0 LINE",
"799 23 LINE",
"689 42 LINE",
"372 455 LINE",
"567 678 LINE SMOOTH",
"599 715 OFFCURVE",
"621 724 OFFCURVE",
"711 740 CURVE",
"711 762 LINE",
"450 762 LINE",
"450 740 LINE",
"509 735 OFFCURVE",
"534 727 OFFCURVE",
"534 710 CURVE SMOOTH",
"534 702 OFFCURVE",
"529 692 OFFCURVE",
"517 680 CURVE SMOOTH",
"237 366 LINE",
"237 721 LINE",
"326 740 LINE",
"326 762 LINE",
"45 762 LINE",
"45 740 LINE",
"134 721 LINE",
"134 42 LINE",
"45 23 LINE",
"45 0 LINE"
);
}
);
width = 775;
},
{
anchors = (
{
name = bottom;
position = "{398, 0}";
}
);
layerId = "7C8D72FA-6E62-4564-8BB2-D9F9BC4EB15A";
paths = (
{
closed = 1;
nodes = (
"333 0 LINE",
"333 24 LINE",
"246 44 LINE",
"246 305 LINE",
"304 372 LINE",
"581 0 LINE",
"802 0 LINE",
"802 24 LINE",
"695 44 LINE",
"380 457 LINE",
"573 676 LINE SMOOTH",
"605 713 OFFCURVE",
"627 722 OFFCURVE",
"718 738 CURVE",
"718 762 LINE",
"453 762 LINE",
"453 738 LINE",
"511 734 OFFCURVE",
"536 725 OFFCURVE",
"536 708 CURVE SMOOTH",
"536 700 OFFCURVE",
"531 690 OFFCURVE",
"520 678 CURVE SMOOTH",
"246 372 LINE",
"246 719 LINE",
"333 738 LINE",
"333 762 LINE",
"44 762 LINE",
"44 738 LINE",
"133 719 LINE",
"133 44 LINE",
"44 24 LINE",
"44 0 LINE"
);
}
);
width = 778;
}
);
leftKerningGroup = I;
rightKerningGroup = K;
unicode = 004B;
},
{
glyphname = L;
layers = (
{
anchors = (
{
name = bottom;
position = "{369, 0}";
},
{
name = topcap;
position = "{221, 822}";
}
);
layerId = "FA6D65B5-4623-4FAC-A199-3F662257AC29";
paths = (
{
closed = 1;
nodes = (
"642 0 LINE",
"684 232 LINE",
"633 232 LINE",
"608 164 OFFCURVE",
"582 111 OFFCURVE",
"542 57 CURVE",
"296 57 LINE",
"296 706 LINE",
"389 726 LINE",
"389 762 LINE",
"42 762 LINE",
"42 726 LINE",
"126 707 LINE",
"126 56 LINE",
"42 37 LINE",
"42 0 LINE"
);
}
);
width = 692;
},
{
anchors = (
{
name = bottom;
position = "{345, 0}";
},
{
name = topcap;
position = "{193, 822}";
}
);
layerId = "7C8D72FA-6E62-4564-8BB2-D9F9BC4EB15A";
paths = (
{
closed = 1;
nodes = (
"601 0 LINE",
"639 236 LINE",
"609 236 LINE",
"585 160 OFFCURVE",
"561 102 OFFCURVE",
"525 42 CURVE",
"245 42 LINE",
"245 719 LINE",
"339 738 LINE",
"339 762 LINE",
"47 762 LINE",
"47 738 LINE",
"132 719 LINE",
"132 44 LINE",
"47 24 LINE",
"47 0 LINE"
);
}
);
width = 655;
},
{
anchors = (
{
name = bottom;
position = "{345, 0}";
},
{
name = topcap;
position = "{193, 822}";
}
);
associatedMasterId = "7C8D72FA-6E62-4564-8BB2-D9F9BC4EB15A";
layerId = "8ADAAAC7-AFE5-484B-8331-91EA8B26E085";
name = "Jan 7 19, 12:26";
paths = (
{
closed = 1;
nodes = (
"601 0 LINE",
"639 236 LINE",
"609 236 LINE",
"587 171 OFFCURVE",
"566 107 OFFCURVE",
"525 42 CURVE",
"245 42 LINE",
"245 719 LINE",
"339 738 LINE",
"339 762 LINE",
"47 762 LINE",
"47 738 LINE",
"132 719 LINE",
"132 44 LINE",
"47 24 LINE",
"47 0 LINE"
);
}
);
width = 655;
},
{
anchors = (
{
name = bottom;
position = "{369, 0}";
},
{
name = topcap;
position = "{221, 822}";
}
);
associatedMasterId = "FA6D65B5-4623-4FAC-A199-3F662257AC29";
layerId = "6D7EE985-9BFD-4474-8ADC-B784C8159E61";
name = "Jan 7 19, 12:27";
paths = (
{
closed = 1;
nodes = (
"642 0 LINE",
"684 232 LINE",
"633 232 LINE",
"608 172 OFFCURVE",
"585 115 OFFCURVE",
"542 57 CURVE",
"296 57 LINE",
"296 706 LINE",
"389 726 LINE",
"389 762 LINE",
"42 762 LINE",
"42 726 LINE",
"126 707 LINE",
"126 56 LINE",
"42 37 LINE",
"42 0 LINE"
);
}
);
visible = 1;
width = 692;
}
);
leftKerningGroup = I;
rightKerningGroup = L;
unicode = 004C;
},
{
glyphname = Lslash;
layers = (
{
components = (
{
name = L;
transform = "{1, 0, 0, 1, 1, 0}";
}
);
layerId = "FA6D65B5-4623-4FAC-A199-3F662257AC29";
paths = (
{
closed = 1;
nodes = (
"369 438 LINE",
"369 532 LINE",
"60 368 LINE",
"60 274 LINE"
);
}
);
width = 693;
},
{
associatedMasterId = "FA6D65B5-4623-4FAC-A199-3F662257AC29";
components = (
{
name = L;
transform = "{1, 0, 0, 1, 1, 0}";
}
);
layerId = "CBD44848-52BD-4DC5-BFA6-577546B7224D";
paths = (
{
closed = 1;
nodes = (
"332 449 LINE",
"332 514 LINE",
"59 368 LINE",
"59 303 LINE"
);
}
);
width = 650;
},
{
components = (
{
alignment = -1;
name = L;
transform = "{1, 0, 0, 1, 1, 0}";
}
);
layerId = "7C8D72FA-6E62-4564-8BB2-D9F9BC4EB15A";
paths = (
{
closed = 1;
nodes = (
"337 448 LINE",
"337 516 LINE",
"59 368 LINE",
"59 299 LINE"
);
}
);
width = 656;
}
);
leftKerningGroup = I;
rightKerningGroup = L;
unicode = 0141;
},
{
glyphname = M;
layers = (
{
layerId = "FA6D65B5-4623-4FAC-A199-3F662257AC29";
paths = (
{
closed = 1;
nodes = (
"515 -10 LINE",
"763 588 LINE",
"767 588 LINE",
"767 58 LINE",
"683 37 LINE",
"683 0 LINE",
"1020 0 LINE",
"1020 37 LINE",
"938 58 LINE",
"938 706 LINE",
"1020 726 LINE",
"1020 762 LINE",
"766 762 LINE",
"551 252 LINE",
"545 252 LINE",
"340 762 LINE",
"39 762 LINE",
"39 726 LINE",
"127 707 LINE",
"127 56 LINE",
"39 37 LINE",
"39 0 LINE",
"282 0 LINE",
"282 37 LINE",
"195 56 LINE",
"195 615 LINE",
"199 615 LINE",
"468 -10 LINE"
);
}
);
width = 1062;
},
{
associatedMasterId = "FA6D65B5-4623-4FAC-A199-3F662257AC29";
layerId = "CBD44848-52BD-4DC5-BFA6-577546B7224D";
paths = (
{
closed = 1;
nodes = (
"480 -10 LINE",
"761 650 LINE",
"765 650 LINE",
"765 42 LINE",
"676 23 LINE",
"676 0 LINE",
"957 0 LINE",
"957 23 LINE",
"869 42 LINE",
"869 721 LINE",
"957 740 LINE",
"957 762 LINE",
"750 762 LINE",
"504 176 LINE",
"499 176 LINE",
"252 762 LINE",
"45 762 LINE",
"45 740 LINE",
"134 721 LINE",
"134 42 LINE",
"45 23 LINE",
"45 0 LINE",
"262 0 LINE",
"262 23 LINE",
"174 42 LINE",
"174 654 LINE",
"178 654 LINE",
"453 -10 LINE"
);
}
);
width = 1001;
},
{
layerId = "7C8D72FA-6E62-4564-8BB2-D9F9BC4EB15A";
paths = (
{
closed = 1;
nodes = (
"485 -10 LINE",
"761 642 LINE",
"765 642 LINE",
"765 44 LINE",
"677 24 LINE",
"677 0 LINE",
"966 0 LINE",
"966 24 LINE",
"878 44 LINE",
"878 719 LINE",
"966 738 LINE",
"966 762 LINE",
"752 762 LINE",
"510 186 LINE",
"505 186 LINE",
"265 762 LINE",
"44 762 LINE",
"44 738 LINE",
"133 719 LINE",
"133 44 LINE",
"44 24 LINE",
"44 0 LINE",
"265 0 LINE",
"265 24 LINE",
"176 44 LINE",
"176 649 LINE",
"180 649 LINE",
"455 -10 LINE"
);
}
);
width = 1010;
}
);
leftKerningGroup = N;
rightKerningGroup = I;
unicode = 004D;
},
{
glyphname = N;
layers = (
{
anchors = (
{
name = bottom;
position = "{435, 0}";
},
{
name = topcap;
position = "{452, 822}";
}
);
layerId = "FA6D65B5-4623-4FAC-A199-3F662257AC29";
paths = (
{
closed = 1;
nodes = (
"750 -10 LINE",
"750 707 LINE",
"839 726 LINE",
"839 762 LINE",
"595 762 LINE",
"595 726 LINE",
"683 707 LINE",
"683 292 LINE",
"308 762 LINE",
"39 762 LINE",
"39 726 LINE",
"127 707 LINE",
"127 56 LINE",
"39 37 LINE",
"39 0 LINE",
"282 0 LINE",
"282 37 LINE",
"195 56 LINE",
"195 604 LINE",
"683 -10 LINE"
);
}
);
width = 869;
},
{
anchors = (
{
name = bottom;
position = "{401, 0}";
},
{
name = topcap;
position = "{415, 822}";
}
);
associatedMasterId = "FA6D65B5-4623-4FAC-A199-3F662257AC29";
layerId = "CBD44848-52BD-4DC5-BFA6-577546B7224D";
paths = (
{
closed = 1;
nodes = (
"692 -19 LINE",
"692 721 LINE",
"781 740 LINE",
"781 762 LINE",
"564 762 LINE",
"564 740 LINE",
"653 721 LINE",
"653 202 LINE",
"245 762 LINE",
"45 762 LINE",
"45 740 LINE",
"134 721 LINE",
"134 42 LINE",
"45 23 LINE",
"45 0 LINE",
"262 0 LINE",
"262 23 LINE",
"174 42 LINE",
"174 660 LINE",
"661 -19 LINE"
);
}
);
width = 820;
},
{
anchors = (
{
name = bottom;
position = "{406, 0}";
},
{
name = topcap;
position = "{419, 822}";
}
);
layerId = "7C8D72FA-6E62-4564-8BB2-D9F9BC4EB15A";
paths = (
{
closed = 1;
nodes = (
"700 -18 LINE",
"700 719 LINE",
"789 738 LINE",
"789 762 LINE",
"569 762 LINE",
"569 738 LINE",
"657 719 LINE",
"657 214 LINE",
"253 762 LINE",
"44 762 LINE",
"44 738 LINE",
"133 719 LINE",
"133 44 LINE",
"44 24 LINE",
"44 0 LINE",
"265 0 LINE",
"265 24 LINE",
"176 44 LINE",
"176 653 LINE",
"664 -18 LINE"
);
}
);
width = 826;
}
);
leftKerningGroup = N;
rightKerningGroup = N;
unicode = 004E;
},
{
glyphname = Eng;
layers = (
{
layerId = "FA6D65B5-4623-4FAC-A199-3F662257AC29";
paths = (
{
closed = 1;
nodes = (
"710 258 LINE",
"308 762 LINE",
"145 762 LINE",
"140 674 LINE",
"683 -10 LINE"
);
},
{
closed = 1;
nodes = (
"570 -257 OFFCURVE",
"664 -212 OFFCURVE",
"716 -130 CURVE",
"745 -77 OFFCURVE",
"750 -40 OFFCURVE",
"750 154 CURVE",
"580 154 LINE",
"580 -42 LINE SMOOTH",
"580 -149 OFFCURVE",
"548 -201 OFFCURVE",
"509 -201 CURVE SMOOTH",
"485 -201 OFFCURVE",
"468 -182 OFFCURVE",
"453 -137 CURVE SMOOTH",
"441 -102 OFFCURVE",
"422 -76 OFFCURVE",
"381 -76 CURVE SMOOTH",
"342 -76 OFFCURVE",
"310 -102 OFFCURVE",
"310 -151 CURVE SMOOTH",
"310 -216 OFFCURVE",
"370 -257 OFFCURVE",
"477 -257 CURVE SMOOTH"
);
},
{
closed = 1;
nodes = (
"282 0 LINE",
"282 37 LINE",
"195 56 LINE",
"195 762 LINE",
"39 762 LINE",
"39 726 LINE",
"127 707 LINE",
"127 56 LINE",
"39 37 LINE",
"39 0 LINE"
);
},
{
closed = 1;
nodes = (
"750 138 LINE",
"750 707 LINE",
"839 726 LINE",
"839 762 LINE",
"595 762 LINE",
"595 726 LINE",
"683 707 LINE",
"683 138 LINE"
);
}
);
width = 868;
},
{
associatedMasterId = "FA6D65B5-4623-4FAC-A199-3F662257AC29";
layerId = "CBD44848-52BD-4DC5-BFA6-577546B7224D";
paths = (
{
closed = 1;
nodes = (
"673 174 LINE",
"245 762 LINE",
"151 762 LINE",
"146 699 LINE",
"661 -19 LINE"
);
},
{
closed = 1;
nodes = (
"534 -257 OFFCURVE",
"612 -212 OFFCURVE",
"658 -130 CURVE SMOOTH",
"687 -77 OFFCURVE",
"692 -40 OFFCURVE",
"692 154 CURVE",
"588 154 LINE",
"588 -47 LINE SMOOTH",
"588 -155 OFFCURVE",
"552 -205 OFFCURVE",
"507 -205 CURVE SMOOTH",
"481 -205 OFFCURVE",
"460 -190 OFFCURVE",
"446 -152 CURVE SMOOTH",
"436 -122 OFFCURVE",
"420 -107 OFFCURVE",
"392 -107 CURVE SMOOTH",
"357 -107 OFFCURVE",
"334 -132 OFFCURVE",
"334 -171 CURVE SMOOTH",
"334 -225 OFFCURVE",
"379 -257 OFFCURVE",
"452 -257 CURVE SMOOTH"
);
},
{
closed = 1;
nodes = (
"262 0 LINE",
"262 23 LINE",
"174 42 LINE",
"174 762 LINE",
"45 762 LINE",
"45 740 LINE",
"134 721 LINE",
"134 42 LINE",
"45 23 LINE",
"45 0 LINE"
);
},
{
closed = 1;
nodes = (
"692 119 LINE",
"692 721 LINE",
"781 740 LINE",
"781 762 LINE",
"564 762 LINE",
"564 740 LINE",
"653 721 LINE",
"653 119 LINE"
);
}
);
width = 819;
},
{
layerId = "7C8D72FA-6E62-4564-8BB2-D9F9BC4EB15A";
paths = (
{
closed = 1;
nodes = (
"678 184 LINE",
"253 762 LINE",
"150 762 LINE",
"145 696 LINE",
"664 -18 LINE"
);
},
{
closed = 1;
nodes = (
"539 -257 OFFCURVE",
"619 -212 OFFCURVE",
"666 -130 CURVE SMOOTH",
"695 -77 OFFCURVE",
"700 -40 OFFCURVE",
"700 154 CURVE",
"587 154 LINE",
"587 -46 LINE SMOOTH",
"587 -153 OFFCURVE",
"552 -205 OFFCURVE",
"507 -205 CURVE SMOOTH",
"482 -205 OFFCURVE",
"461 -189 OFFCURVE",
"448 -150 CURVE SMOOTH",
"436 -120 OFFCURVE",
"420 -103 OFFCURVE",
"391 -103 CURVE SMOOTH",
"355 -103 OFFCURVE",
"331 -128 OFFCURVE",
"331 -168 CURVE SMOOTH",
"331 -224 OFFCURVE",
"378 -257 OFFCURVE",
"456 -257 CURVE SMOOTH"
);
},
{
closed = 1;
nodes = (
"265 0 LINE",
"265 24 LINE",
"176 44 LINE",
"176 762 LINE",
"44 762 LINE",
"44 738 LINE",
"133 719 LINE",
"133 44 LINE",
"44 24 LINE",
"44 0 LINE"
);
},
{
closed = 1;
nodes = (
"700 122 LINE",
"700 719 LINE",
"789 738 LINE",
"789 762 LINE",
"569 762 LINE",
"569 738 LINE",
"657 719 LINE",
"657 122 LINE"
);
}
);
width = 825;
}
);
leftKerningGroup = N;
rightKerningGroup = N;
unicode = 014A;
},
{
glyphname = O;
layers = (
{
anchors = (
{
name = bottom;
position = "{430, 0}";
},
{
name = ogonekcurvecap;
position = "{646, 47}";
},
{
name = topcap;
position = "{430, 822}";
}
);
layerId = "FA6D65B5-4623-4FAC-A199-3F662257AC29";
paths = (
{
closed = 1;
nodes = (
"678 -10 OFFCURVE",
"816 167 OFFCURVE",
"816 381 CURVE SMOOTH",
"816 596 OFFCURVE",
"678 772 OFFCURVE",
"430 772 CURVE SMOOTH",
"182 772 OFFCURVE",
"45 596 OFFCURVE",
"45 381 CURVE SMOOTH",
"45 167 OFFCURVE",
"182 -10 OFFCURVE",
"430 -10 CURVE SMOOTH"
);
},
{
closed = 1;
nodes = (
"270 47 OFFCURVE",
"240 244 OFFCURVE",
"240 381 CURVE SMOOTH",
"240 517 OFFCURVE",
"270 712 OFFCURVE",
"430 712 CURVE SMOOTH",
"592 712 OFFCURVE",
"621 517 OFFCURVE",
"621 381 CURVE SMOOTH",
"621 244 OFFCURVE",
"590 47 OFFCURVE",
"430 47 CURVE SMOOTH"
);
}
);
width = 860;
},
{
anchors = (
{
name = bottom;
position = "{415, 0}";
},
{
name = topcap;
position = "{415, 822}";
}
);
associatedMasterId = "FA6D65B5-4623-4FAC-A199-3F662257AC29";
layerId = "CBD44848-52BD-4DC5-BFA6-577546B7224D";
paths = (
{
closed = 1;
nodes = (
"619 -10 OFFCURVE",
"773 159 OFFCURVE",
"773 381 CURVE SMOOTH",
"773 604 OFFCURVE",
"619 772 OFFCURVE",
"414 772 CURVE SMOOTH",
"209 772 OFFCURVE",
"55 604 OFFCURVE",
"55 381 CURVE SMOOTH",
"55 159 OFFCURVE",
"209 -10 OFFCURVE",
"414 -10 CURVE SMOOTH"
);
},
{
closed = 1;
nodes = (
"267 35 OFFCURVE",
"180 165 OFFCURVE",
"180 382 CURVE SMOOTH",
"180 599 OFFCURVE",
"267 728 OFFCURVE",
"415 728 CURVE SMOOTH",
"562 728 OFFCURVE",
"649 600 OFFCURVE",
"649 384 CURVE SMOOTH",
"649 165 OFFCURVE",
"560 35 OFFCURVE",
"414 35 CURVE SMOOTH"
);
}
);
width = 828;
},
{
anchors = (
{
name = bottom;
position = "{417, 0}";
},
{
name = ogonekcurvecap;
position = "{598, 39}";
},
{
name = topcap;
position = "{417, 822}";
}
);
layerId = "7C8D72FA-6E62-4564-8BB2-D9F9BC4EB15A";
paths = (
{
closed = 1;
nodes = (
"627 -10 OFFCURVE",
"779 160 OFFCURVE",
"779 381 CURVE SMOOTH",
"779 603 OFFCURVE",
"627 772 OFFCURVE",
"416 772 CURVE SMOOTH",
"205 772 OFFCURVE",
"53 603 OFFCURVE",
"53 381 CURVE SMOOTH",
"53 160 OFFCURVE",
"205 -10 OFFCURVE",
"416 -10 CURVE SMOOTH"
);
},
{
closed = 1;
nodes = (
"268 37 OFFCURVE",
"187 176 OFFCURVE",
"187 382 CURVE SMOOTH",
"187 588 OFFCURVE",
"268 726 OFFCURVE",
"417 726 CURVE SMOOTH",
"566 726 OFFCURVE",
"645 589 OFFCURVE",
"645 384 CURVE SMOOTH",
"645 176 OFFCURVE",
"564 37 OFFCURVE",
"416 37 CURVE SMOOTH"
);
}
);
width = 832;
}
);
leftKerningGroup = O;
rightKerningGroup = O;
unicode = 004F;
},
{
glyphname = Oslash;
layers = (
{
layerId = "FA6D65B5-4623-4FAC-A199-3F662257AC29";
paths = (
{
closed = 1;
nodes = (
"677 -10 OFFCURVE",
"814 167 OFFCURVE",
"814 381 CURVE SMOOTH",
"814 491 OFFCURVE",
"778 590 OFFCURVE",
"710 661 CURVE",
"797 762 LINE",
"720 762 LINE",
"666 700 LINE",
"605 745 OFFCURVE",
"525 772 OFFCURVE",
"429 772 CURVE SMOOTH",
"181 772 OFFCURVE",
"43 596 OFFCURVE",
"43 381 CURVE SMOOTH",
"43 270 OFFCURVE",
"81 170 OFFCURVE",
"150 98 CURVE",
"65 0 LINE",
"142 0 LINE",
"193 60 LINE",
"254 16 OFFCURVE",
"334 -10 OFFCURVE",
"429 -10 CURVE SMOOTH"
);
},
{
closed = 1;
nodes = (
"351 47 OFFCURVE",
"304 93 OFFCURVE",
"276 156 CURVE",
"604 538 LINE",
"616 486 OFFCURVE",
"620 430 OFFCURVE",
"620 381 CURVE SMOOTH",
"620 244 OFFCURVE",
"589 47 OFFCURVE",
"429 47 CURVE SMOOTH"
);
},
{
closed = 1;
nodes = (
"243 275 OFFCURVE",
"239 332 OFFCURVE",
"239 381 CURVE SMOOTH",
"239 517 OFFCURVE",
"270 712 OFFCURVE",
"429 712 CURVE SMOOTH",
"508 712 OFFCURVE",
"555 666 OFFCURVE",
"583 603 CURVE",
"255 221 LINE"
);
}
);
width = 858;
},
{
associatedMasterId = "FA6D65B5-4623-4FAC-A199-3F662257AC29";
layerId = "CBD44848-52BD-4DC5-BFA6-577546B7224D";
paths = (
{
closed = 1;
nodes = (
"620 -10 OFFCURVE",
"774 159 OFFCURVE",
"774 381 CURVE SMOOTH",
"774 490 OFFCURVE",
"736 586 OFFCURVE",
"674 655 CURVE",
"766 762 LINE",
"711 762 LINE",
"645 685 LINE",
"583 740 OFFCURVE",
"504 772 OFFCURVE",
"415 772 CURVE SMOOTH",
"210 772 OFFCURVE",
"56 604 OFFCURVE",
"56 381 CURVE SMOOTH",
"56 275 OFFCURVE",
"91 180 OFFCURVE",
"151 110 CURVE",
"57 0 LINE",
"111 0 LINE",
"180 81 LINE",
"241 24 OFFCURVE",
"323 -10 OFFCURVE",
"415 -10 CURVE SMOOTH"
);
},
{
closed = 1;
nodes = (
"336 35 OFFCURVE",
"274 73 OFFCURVE",
"233 142 CURVE",
"615 586 LINE",
"637 532 OFFCURVE",
"650 464 OFFCURVE",
"650 384 CURVE SMOOTH",
"650 165 OFFCURVE",
"562 35 OFFCURVE",
"415 35 CURVE SMOOTH"
);
},
{
closed = 1;
nodes = (
"191 237 OFFCURVE",
"180 304 OFFCURVE",
"180 382 CURVE SMOOTH",
"180 599 OFFCURVE",
"269 728 OFFCURVE",
"416 728 CURVE SMOOTH",
"493 728 OFFCURVE",
"554 692 OFFCURVE",
"594 627 CURVE",
"213 183 LINE"
);
}
);
width = 828;
},
{
layerId = "7C8D72FA-6E62-4564-8BB2-D9F9BC4EB15A";
paths = (
{
closed = 1;
nodes = (
"627 -10 OFFCURVE",
"779 160 OFFCURVE",
"779 381 CURVE SMOOTH",
"779 490 OFFCURVE",
"742 586 OFFCURVE",
"679 656 CURVE",
"770 762 LINE",
"712 762 LINE",
"647 687 LINE",
"586 740 OFFCURVE",
"507 772 OFFCURVE",
"417 772 CURVE SMOOTH",
"206 772 OFFCURVE",
"54 603 OFFCURVE",
"54 381 CURVE SMOOTH",
"54 274 OFFCURVE",
"90 178 OFFCURVE",
"151 108 CURVE",
"58 0 LINE",
"115 0 LINE",
"182 78 LINE",
"243 23 OFFCURVE",
"324 -10 OFFCURVE",
"417 -10 CURVE SMOOTH"
);
},
{
closed = 1;
nodes = (
"338 37 OFFCURVE",
"278 76 OFFCURVE",
"239 144 CURVE",
"613 579 LINE",
"634 525 OFFCURVE",
"646 460 OFFCURVE",
"646 384 CURVE SMOOTH",
"646 176 OFFCURVE",
"565 37 OFFCURVE",
"417 37 CURVE SMOOTH"
);
},
{
closed = 1;
nodes = (
"198 242 OFFCURVE",
"188 308 OFFCURVE",
"188 382 CURVE SMOOTH",
"188 588 OFFCURVE",
"269 726 OFFCURVE",
"418 726 CURVE SMOOTH",
"495 726 OFFCURVE",
"554 688 OFFCURVE",
"593 623 CURVE",
"218 189 LINE"
);
}
);
width = 832;
}
);
leftKerningGroup = O;
rightKerningGroup = O;
unicode = 00D8;
},
{
glyphname = Oslashacute;
layers = (
{
components = (
{
name = acute.cap;
transform = "{1, 0, 0, 1, 313, 0}";
}
);
layerId = "FA6D65B5-4623-4FAC-A199-3F662257AC29";
paths = (
{
closed = 1;
nodes = (
"677 -10 OFFCURVE",
"814 167 OFFCURVE",
"814 381 CURVE SMOOTH",
"814 491 OFFCURVE",
"778 590 OFFCURVE",
"710 661 CURVE",
"797 762 LINE",
"720 762 LINE",
"666 700 LINE",
"605 745 OFFCURVE",
"525 772 OFFCURVE",
"429 772 CURVE SMOOTH",
"181 772 OFFCURVE",
"43 596 OFFCURVE",
"43 381 CURVE SMOOTH",
"43 270 OFFCURVE",
"81 170 OFFCURVE",
"150 98 CURVE",
"65 0 LINE",
"142 0 LINE",
"193 60 LINE",
"254 16 OFFCURVE",
"334 -10 OFFCURVE",
"429 -10 CURVE SMOOTH"
);
},
{
closed = 1;
nodes = (
"351 47 OFFCURVE",
"304 93 OFFCURVE",
"276 156 CURVE",
"604 538 LINE",
"616 486 OFFCURVE",
"620 430 OFFCURVE",
"620 381 CURVE SMOOTH",
"620 244 OFFCURVE",
"589 47 OFFCURVE",
"429 47 CURVE SMOOTH"
);
},
{
closed = 1;
nodes = (
"243 275 OFFCURVE",
"239 332 OFFCURVE",
"239 381 CURVE SMOOTH",
"239 517 OFFCURVE",
"270 712 OFFCURVE",
"429 712 CURVE SMOOTH",
"508 712 OFFCURVE",
"555 666 OFFCURVE",
"583 603 CURVE",
"255 221 LINE"
);
}
);
width = 858;
},
{
associatedMasterId = "FA6D65B5-4623-4FAC-A199-3F662257AC29";
components = (
{
name = acute.cap;
transform = "{1, 0, 0, 1, 304, 0}";
}
);
layerId = "CBD44848-52BD-4DC5-BFA6-577546B7224D";
paths = (
{
closed = 1;
nodes = (
"620 -10 OFFCURVE",
"774 159 OFFCURVE",
"774 381 CURVE SMOOTH",
"774 490 OFFCURVE",
"736 586 OFFCURVE",
"674 655 CURVE",
"766 762 LINE",
"711 762 LINE",
"645 685 LINE",
"583 740 OFFCURVE",
"504 772 OFFCURVE",
"415 772 CURVE SMOOTH",
"210 772 OFFCURVE",
"56 604 OFFCURVE",
"56 381 CURVE SMOOTH",
"56 275 OFFCURVE",
"91 180 OFFCURVE",
"151 110 CURVE",
"57 0 LINE",
"111 0 LINE",
"180 81 LINE",
"241 24 OFFCURVE",
"323 -10 OFFCURVE",
"415 -10 CURVE SMOOTH"
);
},
{
closed = 1;
nodes = (
"336 35 OFFCURVE",
"274 73 OFFCURVE",
"233 142 CURVE",
"615 586 LINE",
"637 532 OFFCURVE",
"650 464 OFFCURVE",
"650 384 CURVE SMOOTH",
"650 165 OFFCURVE",
"562 35 OFFCURVE",
"415 35 CURVE SMOOTH"
);
},
{
closed = 1;
nodes = (
"191 237 OFFCURVE",
"180 304 OFFCURVE",
"180 382 CURVE SMOOTH",
"180 599 OFFCURVE",
"269 728 OFFCURVE",
"416 728 CURVE SMOOTH",
"493 728 OFFCURVE",
"554 692 OFFCURVE",
"594 627 CURVE",
"213 183 LINE"
);
}
);
width = 828;
},
{
components = (
{
alignment = -1;
name = acute.cap;
transform = "{1, 0, 0, 1, 305, 0}";
}
);
layerId = "7C8D72FA-6E62-4564-8BB2-D9F9BC4EB15A";
paths = (
{
closed = 1;
nodes = (
"627 -10 OFFCURVE",
"779 160 OFFCURVE",
"779 381 CURVE SMOOTH",
"779 490 OFFCURVE",
"742 586 OFFCURVE",
"679 656 CURVE",
"770 762 LINE",
"712 762 LINE",
"647 687 LINE",
"586 740 OFFCURVE",
"507 772 OFFCURVE",
"417 772 CURVE SMOOTH",
"206 772 OFFCURVE",
"54 603 OFFCURVE",
"54 381 CURVE SMOOTH",
"54 274 OFFCURVE",
"90 178 OFFCURVE",
"151 108 CURVE",
"58 0 LINE",
"115 0 LINE",
"182 78 LINE",
"243 23 OFFCURVE",
"324 -10 OFFCURVE",
"417 -10 CURVE SMOOTH"
);
},
{
closed = 1;
nodes = (
"338 37 OFFCURVE",
"278 76 OFFCURVE",
"239 144 CURVE",
"613 579 LINE",
"634 525 OFFCURVE",
"646 460 OFFCURVE",
"646 384 CURVE SMOOTH",
"646 176 OFFCURVE",
"565 37 OFFCURVE",
"417 37 CURVE SMOOTH"
);
},
{
closed = 1;
nodes = (
"198 242 OFFCURVE",
"188 308 OFFCURVE",
"188 382 CURVE SMOOTH",
"188 588 OFFCURVE",
"269 726 OFFCURVE",
"418 726 CURVE SMOOTH",
"495 726 OFFCURVE",
"554 688 OFFCURVE",
"593 623 CURVE",
"218 189 LINE"
);
}
);
width = 832;
}
);
leftKerningGroup = O;
rightKerningGroup = O;
unicode = 01FE;
},
{
glyphname = OE;
layers = (
{
components = (
{
name = E;
transform = "{1, 0, 0, 1, 437, 0}";
}
);
layerId = "FA6D65B5-4623-4FAC-A199-3F662257AC29";
paths = (
{
closed = 1;
nodes = (
"521 -10 OFFCURVE",
"596 14 OFFCURVE",
"657 55 CURVE",
"573 117 LINE",
"544 77 OFFCURVE",
"499 47 OFFCURVE",
"430 47 CURVE SMOOTH",
"270 47 OFFCURVE",
"240 244 OFFCURVE",
"240 381 CURVE SMOOTH",
"240 517 OFFCURVE",
"270 712 OFFCURVE",
"430 712 CURVE SMOOTH",
"506 712 OFFCURVE",
"552 678 OFFCURVE",
"580 631 CURVE",
"663 704 LINE",
"602 748 OFFCURVE",
"524 772 OFFCURVE",
"430 772 CURVE SMOOTH",
"182 772 OFFCURVE",
"45 596 OFFCURVE",
"45 381 CURVE SMOOTH",
"45 167 OFFCURVE",
"182 -10 OFFCURVE",
"430 -10 CURVE SMOOTH"
);
}
);
width = 1160;
},
{
associatedMasterId = "FA6D65B5-4623-4FAC-A199-3F662257AC29";
components = (
{
name = E;
transform = "{1, 0, 0, 1, 449, 0}";
}
);
layerId = "CBD44848-52BD-4DC5-BFA6-577546B7224D";
paths = (
{
closed = 1;
nodes = (
"493 -10 OFFCURVE",
"572 7 OFFCURVE",
"627 32 CURVE",
"588 102 LINE",
"550 60 OFFCURVE",
"486 35 OFFCURVE",
"419 35 CURVE SMOOTH",
"267 35 OFFCURVE",
"180 161 OFFCURVE",
"180 382 CURVE SMOOTH",
"180 602 OFFCURVE",
"266 728 OFFCURVE",
"420 728 CURVE SMOOTH",
"500 728 OFFCURVE",
"568 693 OFFCURVE",
"606 634 CURVE",
"634 725 LINE",
"576 753 OFFCURVE",
"495 772 OFFCURVE",
"423 772 CURVE SMOOTH",
"209 772 OFFCURVE",
"55 609 OFFCURVE",
"55 381 CURVE SMOOTH",
"55 154 OFFCURVE",
"209 -10 OFFCURVE",
"423 -10 CURVE SMOOTH"
);
}
);
width = 1134;
},
{
components = (
{
alignment = -1;
name = E;
transform = "{1, 0, 0, 1, 448, 0}";
}
);
layerId = "7C8D72FA-6E62-4564-8BB2-D9F9BC4EB15A";
paths = (
{
closed = 1;
nodes = (
"497 -10 OFFCURVE",
"575 8 OFFCURVE",
"631 35 CURVE",
"586 103 LINE",
"549 62 OFFCURVE",
"488 37 OFFCURVE",
"420 37 CURVE SMOOTH",
"268 37 OFFCURVE",
"187 172 OFFCURVE",
"187 382 CURVE SMOOTH",
"187 590 OFFCURVE",
"267 726 OFFCURVE",
"421 726 CURVE SMOOTH",
"501 726 OFFCURVE",
"566 691 OFFCURVE",
"602 633 CURVE",
"638 722 LINE",
"579 752 OFFCURVE",
"499 772 OFFCURVE",
"424 772 CURVE SMOOTH",
"205 772 OFFCURVE",
"53 607 OFFCURVE",
"53 381 CURVE SMOOTH",
"53 156 OFFCURVE",
"205 -10 OFFCURVE",
"424 -10 CURVE SMOOTH"
);
}
);
width = 1138;
}
);
leftKerningGroup = O;
rightKerningGroup = E;
unicode = 0152;
},
{
glyphname = P;
layers = (
{
layerId = "FA6D65B5-4623-4FAC-A199-3F662257AC29";
paths = (
{
closed = 1;
nodes = (
"420 0 LINE",
"420 37 LINE",
"296 59 LINE",
"296 317 LINE",
"355 317 LINE SMOOTH",
"551 317 OFFCURVE",
"662 397 OFFCURVE",
"662 537 CURVE SMOOTH",
"662 675 OFFCURVE",
"550 762 OFFCURVE",
"372 762 CURVE SMOOTH",
"42 762 LINE",
"42 726 LINE",
"126 705 LINE",
"126 59 LINE",
"42 37 LINE",
"42 0 LINE"
);
},
{
closed = 1;
nodes = (
"296 708 LINE",
"321 708 LINE SMOOTH",
"381 708 OFFCURVE",
"419 698 OFFCURVE",
"444 673 CURVE SMOOTH",
"468 649 OFFCURVE",
"481 606 OFFCURVE",
"481 545 CURVE SMOOTH",
"481 481 OFFCURVE",
"468 440 OFFCURVE",
"437 411 CURVE SMOOTH",
"407 383 OFFCURVE",
"365 370 OFFCURVE",
"303 370 CURVE SMOOTH",
"296 370 LINE"
);
}
);
width = 687;
},
{
associatedMasterId = "FA6D65B5-4623-4FAC-A199-3F662257AC29";
layerId = "CBD44848-52BD-4DC5-BFA6-577546B7224D";
paths = (
{
closed = 1;
nodes = (
"349 0 LINE",
"349 23 LINE",
"237 42 LINE",
"237 327 LINE",
"342 327 LINE SMOOTH",
"514 327 OFFCURVE",
"621 400 OFFCURVE",
"621 536 CURVE SMOOTH",
"621 683 OFFCURVE",
"512 762 OFFCURVE",
"357 762 CURVE SMOOTH",
"49 762 LINE",
"49 740 LINE",
"133 721 LINE",
"133 42 LINE",
"49 23 LINE",
"49 0 LINE"
);
},
{
closed = 1;
nodes = (
"237 723 LINE",
"328 723 LINE SMOOTH",
"369 723 OFFCURVE",
"394 720 OFFCURVE",
"416 711 CURVE SMOOTH",
"473 688 OFFCURVE",
"507 631 OFFCURVE",
"507 545 CURVE SMOOTH",
"507 499 OFFCURVE",
"497 453 OFFCURVE",
"468 419 CURVE SMOOTH",
"439 385 OFFCURVE",
"394 365 OFFCURVE",
"311 365 CURVE SMOOTH",
"237 365 LINE"
);
}
);
width = 657;
},
{
layerId = "7C8D72FA-6E62-4564-8BB2-D9F9BC4EB15A";
paths = (
{
closed = 1;
nodes = (
"359 0 LINE",
"359 24 LINE",
"245 44 LINE",
"245 326 LINE",
"343 326 LINE SMOOTH",
"518 326 OFFCURVE",
"627 400 OFFCURVE",
"627 536 CURVE SMOOTH",
"627 681 OFFCURVE",
"517 762 OFFCURVE",
"359 762 CURVE SMOOTH",
"47 762 LINE",
"47 738 LINE",
"132 718 LINE",
"132 44 LINE",
"47 24 LINE",
"47 0 LINE"
);
},
{
closed = 1;
nodes = (
"245 721 LINE",
"327 721 LINE SMOOTH",
"370 721 OFFCURVE",
"397 717 OFFCURVE",
"419 706 CURVE SMOOTH",
"472 683 OFFCURVE",
"503 627 OFFCURVE",
"503 545 CURVE SMOOTH",
"503 497 OFFCURVE",
"493 452 OFFCURVE",
"463 418 CURVE SMOOTH",
"434 385 OFFCURVE",
"390 366 OFFCURVE",
"310 366 CURVE SMOOTH",
"245 366 LINE"
);
}
);
width = 661;
}
);
leftKerningGroup = I;
unicode = 0050;
},
{
glyphname = Thorn;
layers = (
{
layerId = "FA6D65B5-4623-4FAC-A199-3F662257AC29";
paths = (
{
closed = 1;
nodes = (
"420 0 LINE",
"420 37 LINE",
"296 59 LINE",
"296 161 LINE",
"355 161 LINE SMOOTH",
"551 161 OFFCURVE",
"662 241 OFFCURVE",
"662 381 CURVE SMOOTH",
"662 520 OFFCURVE",
"550 607 OFFCURVE",
"372 607 CURVE SMOOTH",
"296 607 LINE",
"296 704 LINE",
"420 726 LINE",
"420 762 LINE",
"42 762 LINE",
"42 726 LINE",
"126 704 LINE",
"126 59 LINE",
"42 37 LINE",
"42 0 LINE"
);
},
{
closed = 1;
nodes = (
"296 554 LINE",
"321 554 LINE SMOOTH",
"381 554 OFFCURVE",
"419 542 OFFCURVE",
"444 517 CURVE SMOOTH",
"468 493 OFFCURVE",
"481 450 OFFCURVE",
"481 390 CURVE SMOOTH",
"481 326 OFFCURVE",
"468 284 OFFCURVE",
"437 255 CURVE SMOOTH",
"407 228 OFFCURVE",
"365 215 OFFCURVE",
"303 215 CURVE SMOOTH",
"296 215 LINE"
);
}
);
width = 689;
},
{
associatedMasterId = "FA6D65B5-4623-4FAC-A199-3F662257AC29";
layerId = "CBD44848-52BD-4DC5-BFA6-577546B7224D";
paths = (
{
closed = 1;
nodes = (
"349 0 LINE",
"349 23 LINE",
"237 42 LINE",
"237 165 LINE",
"342 165 LINE SMOOTH",
"514 165 OFFCURVE",
"621 239 OFFCURVE",
"621 374 CURVE SMOOTH",
"621 521 OFFCURVE",
"512 601 OFFCURVE",
"357 601 CURVE SMOOTH",
"237 601 LINE",
"237 721 LINE",
"349 740 LINE",
"349 762 LINE",
"49 762 LINE",
"49 740 LINE",
"133 721 LINE",
"133 42 LINE",
"49 23 LINE",
"49 0 LINE"
);
},
{
closed = 1;
nodes = (
"237 562 LINE",
"328 562 LINE SMOOTH",
"369 562 OFFCURVE",
"394 559 OFFCURVE",
"416 550 CURVE SMOOTH",
"473 526 OFFCURVE",
"507 469 OFFCURVE",
"507 384 CURVE SMOOTH",
"507 338 OFFCURVE",
"497 292 OFFCURVE",
"468 258 CURVE SMOOTH",
"439 224 OFFCURVE",
"394 204 OFFCURVE",
"311 204 CURVE SMOOTH",
"237 204 LINE"
);
}
);
width = 658;
},
{
layerId = "7C8D72FA-6E62-4564-8BB2-D9F9BC4EB15A";
paths = (
{
closed = 1;
nodes = (
"359 0 LINE",
"359 24 LINE",
"245 44 LINE",
"245 165 LINE",
"343 165 LINE SMOOTH",
"518 165 OFFCURVE",
"627 239 OFFCURVE",
"627 375 CURVE SMOOTH",
"627 521 OFFCURVE",
"517 601 OFFCURVE",
"359 601 CURVE SMOOTH",
"245 601 LINE",
"245 718 LINE",
"359 738 LINE",
"359 762 LINE",
"47 762 LINE",
"47 738 LINE",
"132 718 LINE",
"132 44 LINE",
"47 24 LINE",
"47 0 LINE"
);
},
{
closed = 1;
nodes = (
"245 560 LINE",
"327 560 LINE SMOOTH",
"370 560 OFFCURVE",
"397 556 OFFCURVE",
"419 545 CURVE SMOOTH",
"472 522 OFFCURVE",
"503 467 OFFCURVE",
"503 385 CURVE SMOOTH",
"503 336 OFFCURVE",
"493 291 OFFCURVE",
"463 258 CURVE SMOOTH",
"434 225 OFFCURVE",
"390 206 OFFCURVE",
"310 206 CURVE SMOOTH",
"245 206 LINE"
);
}
);
width = 662;
}
);
leftKerningGroup = I;
unicode = 00DE;
},
{
glyphname = Q;
layers = (
{
layerId = "FA6D65B5-4623-4FAC-A199-3F662257AC29";
paths = (
{
closed = 1;
nodes = (
"295 -193 OFFCURVE",
"326 -163 OFFCURVE",
"326 -125 CURVE SMOOTH",
"326 -97 OFFCURVE",
"307 -84 OFFCURVE",
"307 -63 CURVE SMOOTH",
"307 -36 OFFCURVE",
"332 -22 OFFCURVE",
"365 -22 CURVE SMOOTH",
"412 -22 OFFCURVE",
"446 -42 OFFCURVE",
"503 -106 CURVE SMOOTH",
"562 -170 OFFCURVE",
"597 -191 OFFCURVE",
"646 -191 CURVE SMOOTH",
"718 -191 OFFCURVE",
"793 -138 OFFCURVE",
"836 -34 CURVE",
"806 -14 LINE",
"775 -45 OFFCURVE",
"744 -56 OFFCURVE",
"703 -56 CURVE SMOOTH",
"631 -56 OFFCURVE",
"562 -20 OFFCURVE",
"512 -5 CURVE",
"512 -1 LINE",
"706 35 OFFCURVE",
"816 192 OFFCURVE",
"816 381 CURVE SMOOTH",
"816 596 OFFCURVE",
"678 772 OFFCURVE",
"430 772 CURVE SMOOTH",
"182 772 OFFCURVE",
"45 596 OFFCURVE",
"45 381 CURVE SMOOTH",
"45 210 OFFCURVE",
"137 64 OFFCURVE",
"297 11 CURVE",
"297 7 LINE",
"228 -20 OFFCURVE",
"185 -63 OFFCURVE",
"185 -117 CURVE SMOOTH",
"185 -160 OFFCURVE",
"213 -193 OFFCURVE",
"254 -193 CURVE SMOOTH"
);
},
{
closed = 1;
nodes = (
"270 38 OFFCURVE",
"240 240 OFFCURVE",
"240 379 CURVE SMOOTH",
"240 517 OFFCURVE",
"270 712 OFFCURVE",
"431 712 CURVE SMOOTH",
"592 712 OFFCURVE",
"621 517 OFFCURVE",
"621 381 CURVE SMOOTH",
"621 240 OFFCURVE",
"590 38 OFFCURVE",
"430 38 CURVE SMOOTH"
);
}
);
width = 860;
},
{
associatedMasterId = "FA6D65B5-4623-4FAC-A199-3F662257AC29";
layerId = "CBD44848-52BD-4DC5-BFA6-577546B7224D";
paths = (
{
closed = 1;
nodes = (
"282 -158 OFFCURVE",
"304 -137 OFFCURVE",
"304 -109 CURVE SMOOTH",
"304 -84 OFFCURVE",
"287 -79 OFFCURVE",
"287 -56 CURVE SMOOTH",
"287 -31 OFFCURVE",
"306 -12 OFFCURVE",
"349 -12 CURVE SMOOTH",
"465 -12 OFFCURVE",
"500 -162 OFFCURVE",
"624 -162 CURVE SMOOTH",
"692 -162 OFFCURVE",
"759 -117 OFFCURVE",
"800 -23 CURVE",
"773 -14 LINE",
"746 -49 OFFCURVE",
"721 -66 OFFCURVE",
"676 -66 CURVE SMOOTH",
"594 -66 OFFCURVE",
"532 -12 OFFCURVE",
"464 3 CURVE",
"464 7 LINE",
"649 22 OFFCURVE",
"773 184 OFFCURVE",
"773 381 CURVE SMOOTH",
"773 604 OFFCURVE",
"619 772 OFFCURVE",
"414 772 CURVE SMOOTH",
"209 772 OFFCURVE",
"55 604 OFFCURVE",
"55 381 CURVE SMOOTH",
"55 201 OFFCURVE",
"159 51 OFFCURVE",
"313 17 CURVE",
"313 13 LINE",
"246 -12 OFFCURVE",
"204 -56 OFFCURVE",
"204 -104 CURVE SMOOTH",
"204 -136 OFFCURVE",
"224 -158 OFFCURVE",
"254 -158 CURVE SMOOTH"
);
},
{
closed = 1;
nodes = (
"267 35 OFFCURVE",
"180 165 OFFCURVE",
"180 382 CURVE SMOOTH",
"180 599 OFFCURVE",
"267 728 OFFCURVE",
"415 728 CURVE SMOOTH",
"562 728 OFFCURVE",
"649 600 OFFCURVE",
"649 383 CURVE SMOOTH",
"649 165 OFFCURVE",
"560 35 OFFCURVE",
"414 35 CURVE SMOOTH"
);
}
);
width = 828;
},
{
layerId = "7C8D72FA-6E62-4564-8BB2-D9F9BC4EB15A";
paths = (
{
closed = 1;
nodes = (
"284 -163 OFFCURVE",
"307 -141 OFFCURVE",
"307 -111 CURVE SMOOTH",
"307 -87 OFFCURVE",
"290 -79 OFFCURVE",
"290 -57 CURVE SMOOTH",
"290 -32 OFFCURVE",
"309 -13 OFFCURVE",
"351 -13 CURVE SMOOTH",
"395 -13 OFFCURVE",
"428 -32 OFFCURVE",
"485 -88 CURVE SMOOTH",
"524 -127 OFFCURVE",
"564 -166 OFFCURVE",
"627 -166 CURVE SMOOTH",
"695 -166 OFFCURVE",
"764 -120 OFFCURVE",
"805 -25 CURVE",
"778 -14 LINE",
"750 -49 OFFCURVE",
"723 -65 OFFCURVE",
"680 -65 CURVE SMOOTH",
"601 -65 OFFCURVE",
"535 -14 OFFCURVE",
"471 2 CURVE",
"471 6 LINE",
"656 24 OFFCURVE",
"779 185 OFFCURVE",
"779 381 CURVE SMOOTH",
"779 603 OFFCURVE",
"627 772 OFFCURVE",
"416 772 CURVE SMOOTH",
"205 772 OFFCURVE",
"53 603 OFFCURVE",
"53 381 CURVE SMOOTH",
"53 202 OFFCURVE",
"156 53 OFFCURVE",
"311 16 CURVE",
"311 12 LINE",
"243 -14 OFFCURVE",
"202 -57 OFFCURVE",
"202 -106 CURVE SMOOTH",
"202 -140 OFFCURVE",
"222 -163 OFFCURVE",
"254 -163 CURVE SMOOTH"
);
},
{
closed = 1;
nodes = (
"268 35 OFFCURVE",
"187 175 OFFCURVE",
"187 381 CURVE SMOOTH",
"187 588 OFFCURVE",
"267 726 OFFCURVE",
"417 726 CURVE SMOOTH",
"566 726 OFFCURVE",
"645 589 OFFCURVE",
"645 383 CURVE SMOOTH",
"645 175 OFFCURVE",
"564 35 OFFCURVE",
"416 35 CURVE SMOOTH"
);
}
);
width = 832;
}
);
leftKerningGroup = O;
rightKerningGroup = O;
unicode = 0051;
},
{
glyphname = R;
layers = (
{
anchors = (
{
name = bottom;
position = "{431, 0}";
},
{
name = topcap;
position = "{359, 822}";
}
);
layerId = "FA6D65B5-4623-4FAC-A199-3F662257AC29";
paths = (
{
closed = 1;
nodes = (
"409 0 LINE",
"409 37 LINE",
"296 59 LINE",
"296 332 LINE",
"336 332 LINE",
"536 0 LINE",
"806 0 LINE",
"806 37 LINE",
"715 56 LINE",
"525 353 LINE",
"612 384 OFFCURVE",
"663 449 OFFCURVE",
"663 545 CURVE SMOOTH",
"663 686 OFFCURVE",
"555 762 OFFCURVE",
"399 762 CURVE SMOOTH",
"42 762 LINE",
"42 726 LINE",
"126 705 LINE",
"126 59 LINE",
"42 37 LINE",
"42 0 LINE"
);
},
{
closed = 1;
nodes = (
"296 708 LINE",
"317 708 LINE SMOOTH",
"357 708 OFFCURVE",
"381 705 OFFCURVE",
"404 696 CURVE SMOOTH",
"455 675 OFFCURVE",
"490 627 OFFCURVE",
"490 555 CURVE SMOOTH",
"490 513 OFFCURVE",
"479 471 OFFCURVE",
"450 439 CURVE SMOOTH",
"423 406 OFFCURVE",
"382 385 OFFCURVE",
"310 385 CURVE SMOOTH",
"296 385 LINE"
);
}
);
width = 770;
},
{
anchors = (
{
name = bottom;
position = "{392, 0}";
},
{
name = topcap;
position = "{365, 822}";
}
);
associatedMasterId = "FA6D65B5-4623-4FAC-A199-3F662257AC29";
layerId = "CBD44848-52BD-4DC5-BFA6-577546B7224D";
paths = (
{
closed = 1;
nodes = (
"349 0 LINE",
"349 23 LINE",
"237 42 LINE",
"237 347 LINE",
"332 347 LINE",
"554 0 LINE",
"768 0 LINE",
"768 23 LINE",
"655 42 LINE",
"444 358 LINE",
"550 383 OFFCURVE",
"611 446 OFFCURVE",
"611 545 CURVE SMOOTH",
"611 686 OFFCURVE",
"502 762 OFFCURVE",
"347 762 CURVE SMOOTH",
"49 762 LINE",
"49 740 LINE",
"133 721 LINE",
"133 42 LINE",
"49 23 LINE",
"49 0 LINE"
);
},
{
closed = 1;
nodes = (
"237 723 LINE",
"318 723 LINE SMOOTH",
"358 723 OFFCURVE",
"383 720 OFFCURVE",
"406 711 CURVE SMOOTH",
"464 688 OFFCURVE",
"497 636 OFFCURVE",
"497 555 CURVE SMOOTH",
"497 513 OFFCURVE",
"486 471 OFFCURVE",
"457 439 CURVE SMOOTH",
"427 406 OFFCURVE",
"384 385 OFFCURVE",
"301 385 CURVE SMOOTH",
"237 385 LINE"
);
}
);
width = 726;
},
{
anchors = (
{
name = bottom;
position = "{398, 0}";
},
{
name = topcap;
position = "{364, 822}";
}
);
layerId = "7C8D72FA-6E62-4564-8BB2-D9F9BC4EB15A";
paths = (
{
closed = 1;
nodes = (
"357 0 LINE",
"357 24 LINE",
"245 44 LINE",
"245 345 LINE",
"332 345 LINE",
"551 0 LINE",
"773 0 LINE",
"773 24 LINE",
"664 44 LINE",
"455 358 LINE",
"558 383 OFFCURVE",
"618 447 OFFCURVE",
"618 545 CURVE SMOOTH",
"618 686 OFFCURVE",
"509 762 OFFCURVE",
"354 762 CURVE SMOOTH",
"47 762 LINE",
"47 738 LINE",
"132 718 LINE",
"132 44 LINE",
"47 24 LINE",
"47 0 LINE"
);
},
{
closed = 1;
nodes = (
"245 721 LINE",
"317 721 LINE SMOOTH",
"358 721 OFFCURVE",
"383 718 OFFCURVE",
"406 709 CURVE SMOOTH",
"463 686 OFFCURVE",
"497 634 OFFCURVE",
"497 555 CURVE SMOOTH",
"497 513 OFFCURVE",
"485 471 OFFCURVE",
"456 439 CURVE SMOOTH",
"427 406 OFFCURVE",
"384 385 OFFCURVE",
"303 385 CURVE SMOOTH",
"245 385 LINE"
);
}
);
width = 731;
}
);
leftKerningGroup = I;
rightKerningGroup = R;
unicode = 0052;
},
{
glyphname = S;
layers = (
{
anchors = (
{
name = bottom;
position = "{323, 0}";
},
{
name = topcap;
position = "{322, 822}";
}
);
layerId = "FA6D65B5-4623-4FAC-A199-3F662257AC29";
paths = (
{
closed = 1;
nodes = (
"473 -9 OFFCURVE",
"590 88 OFFCURVE",
"590 216 CURVE SMOOTH",
"590 323 OFFCURVE",
"539 396 OFFCURVE",
"413 460 CURVE SMOOTH",
"334 500 LINE SMOOTH",
"250 543 OFFCURVE",
"220 574 OFFCURVE",
"220 620 CURVE SMOOTH",
"220 678 OFFCURVE",
"260 714 OFFCURVE",
"328 714 CURVE SMOOTH",
"425 714 OFFCURVE",
"487 657 OFFCURVE",
"520 544 CURVE",
"563 544 LINE",
"554 763 LINE",
"521 763 LINE",
"497 711 LINE",
"448 753 OFFCURVE",
"391 772 OFFCURVE",
"323 772 CURVE SMOOTH",
"179 772 OFFCURVE",
"69 684 OFFCURVE",
"69 563 CURVE SMOOTH",
"69 459 OFFCURVE",
"128 383 OFFCURVE",
"259 318 CURVE SMOOTH",
"340 278 LINE SMOOTH",
"425 237 OFFCURVE",
"456 203 OFFCURVE",
"456 161 CURVE SMOOTH",
"456 91 OFFCURVE",
"403 49 OFFCURVE",
"319 49 CURVE SMOOTH",
"202 49 OFFCURVE",
"137 112 OFFCURVE",
"94 260 CURVE",
"53 254 LINE",
"72 0 LINE",
"103 0 LINE",
"138 41 LINE",
"204 7 OFFCURVE",
"259 -9 OFFCURVE",
"321 -9 CURVE SMOOTH"
);
}
);
width = 640;
},
{
anchors = (
{
name = bottom;
position = "{300, 0}";
},
{
name = topcap;
position = "{305, 822}";
}
);
associatedMasterId = "FA6D65B5-4623-4FAC-A199-3F662257AC29";
layerId = "CBD44848-52BD-4DC5-BFA6-577546B7224D";
paths = (
{
closed = 1;
nodes = (
"431 -9 OFFCURVE",
"534 88 OFFCURVE",
"534 215 CURVE SMOOTH",
"534 450 OFFCURVE",
"182 423 OFFCURVE",
"182 616 CURVE SMOOTH",
"182 687 OFFCURVE",
"229 730 OFFCURVE",
"304 730 CURVE SMOOTH",
"394 730 OFFCURVE",
"452 670 OFFCURVE",
"483 544 CURVE",
"509 544 LINE",
"500 762 LINE",
"480 762 LINE",
"448 711 LINE",
"405 753 OFFCURVE",
"358 772 OFFCURVE",
"300 772 CURVE SMOOTH",
"174 772 OFFCURVE",
"79 683 OFFCURVE",
"79 563 CURVE SMOOTH",
"79 330 OFFCURVE",
"443 351 OFFCURVE",
"443 156 CURVE SMOOTH",
"443 81 OFFCURVE",
"386 34 OFFCURVE",
"295 34 CURVE SMOOTH",
"187 34 OFFCURVE",
"127 100 OFFCURVE",
"87 259 CURVE",
"62 254 LINE",
"81 0 LINE",
"100 0 LINE",
"140 41 LINE",
"196 7 OFFCURVE",
"245 -9 OFFCURVE",
"298 -9 CURVE SMOOTH"
);
}
);
width = 593;
},
{
anchors = (
{
name = bottom;
position = "{303, 0}";
},
{
name = topcap;
position = "{307, 822}";
}
);
layerId = "7C8D72FA-6E62-4564-8BB2-D9F9BC4EB15A";
paths = (
{
closed = 1;
nodes = (
"437 -9 OFFCURVE",
"541 88 OFFCURVE",
"541 215 CURVE SMOOTH",
"541 300 OFFCURVE",
"498 365 OFFCURVE",
"396 419 CURVE SMOOTH",
"322 459 LINE SMOOTH",
"224 510 OFFCURVE",
"187 555 OFFCURVE",
"187 617 CURVE SMOOTH",
"187 685 OFFCURVE",
"233 727 OFFCURVE",
"307 727 CURVE SMOOTH",
"398 727 OFFCURVE",
"456 669 OFFCURVE",
"488 544 CURVE",
"516 544 LINE",
"507 763 LINE",
"486 763 LINE",
"455 711 LINE",
"411 753 OFFCURVE",
"363 772 OFFCURVE",
"303 772 CURVE SMOOTH",
"174 772 OFFCURVE",
"77 683 OFFCURVE",
"77 563 CURVE SMOOTH",
"77 474 OFFCURVE",
"127 413 OFFCURVE",
"252 346 CURVE SMOOTH",
"328 306 LINE SMOOTH",
"411 259 OFFCURVE",
"445 216 OFFCURVE",
"445 157 CURVE SMOOTH",
"445 82 OFFCURVE",
"388 36 OFFCURVE",
"298 36 CURVE SMOOTH",
"190 36 OFFCURVE",
"128 102 OFFCURVE",
"88 259 CURVE",
"61 254 LINE",
"80 0 LINE",
"100 0 LINE",
"140 41 LINE",
"197 7 OFFCURVE",
"247 -9 OFFCURVE",
"301 -9 CURVE SMOOTH"
);
}
);
width = 599;
},
{
anchors = (
{
name = bottom;
position = "{323, 0}";
},
{
name = topcap;
position = "{322, 822}";
}
);
associatedMasterId = "FA6D65B5-4623-4FAC-A199-3F662257AC29";
layerId = "7F81D59E-4BE4-4EC1-9AB4-A0A267374C41";
name = "Jan 7 19, 12:32";
paths = (
{
closed = 1;
nodes = (
"473 -9 OFFCURVE",
"590 88 OFFCURVE",
"590 216 CURVE SMOOTH",
"590 489 OFFCURVE",
"220 470 OFFCURVE",
"220 620 CURVE SMOOTH",
"220 678 OFFCURVE",
"260 714 OFFCURVE",
"328 714 CURVE SMOOTH",
"425 714 OFFCURVE",
"487 657 OFFCURVE",
"520 544 CURVE",
"563 544 LINE",
"554 763 LINE",
"521 763 LINE",
"497 711 LINE",
"448 753 OFFCURVE",
"391 772 OFFCURVE",
"323 772 CURVE SMOOTH",
"179 772 OFFCURVE",
"69 684 OFFCURVE",
"69 563 CURVE SMOOTH",
"69 295 OFFCURVE",
"456 308 OFFCURVE",
"456 161 CURVE SMOOTH",
"456 91 OFFCURVE",
"403 49 OFFCURVE",
"319 49 CURVE SMOOTH",
"202 49 OFFCURVE",
"137 112 OFFCURVE",
"94 260 CURVE",
"53 254 LINE",
"72 0 LINE",
"103 0 LINE",
"138 41 LINE",
"204 7 OFFCURVE",
"259 -9 OFFCURVE",
"321 -9 CURVE SMOOTH"
);
}
);
width = 640;
},
{
anchors = (
{
name = bottom;
position = "{303, 0}";
},
{
name = topcap;
position = "{307, 822}";
}
);
associatedMasterId = "7C8D72FA-6E62-4564-8BB2-D9F9BC4EB15A";
layerId = "F4CC0A2C-F035-45D2-AECC-B4E90B321E76";
name = "Jan 7 19, 13:03";
paths = (
{
closed = 1;
nodes = (
"437 -9 OFFCURVE",
"541 88 OFFCURVE",
"541 215 CURVE SMOOTH",
"541 456 OFFCURVE",
"187 430 OFFCURVE",
"187 617 CURVE SMOOTH",
"187 685 OFFCURVE",
"233 727 OFFCURVE",
"307 727 CURVE SMOOTH",
"398 727 OFFCURVE",
"456 669 OFFCURVE",
"488 544 CURVE",
"516 544 LINE",
"507 763 LINE",
"486 763 LINE",
"455 711 LINE",
"411 753 OFFCURVE",
"363 772 OFFCURVE",
"303 772 CURVE SMOOTH",
"174 772 OFFCURVE",
"77 683 OFFCURVE",
"77 563 CURVE SMOOTH",
"77 325 OFFCURVE",
"445 346 OFFCURVE",
"445 157 CURVE SMOOTH",
"445 82 OFFCURVE",
"388 36 OFFCURVE",
"298 36 CURVE SMOOTH",
"190 36 OFFCURVE",
"128 102 OFFCURVE",
"88 259 CURVE",
"61 254 LINE",
"80 0 LINE",
"100 0 LINE",
"140 41 LINE",
"197 7 OFFCURVE",
"247 -9 OFFCURVE",
"301 -9 CURVE SMOOTH"
);
}
);
visible = 1;
width = 599;
}
);
leftKerningGroup = S;
rightKerningGroup = S;
unicode = 0053;
},
{
glyphname = Schwa;
layers = (
{
layerId = "FA6D65B5-4623-4FAC-A199-3F662257AC29";
paths = (
{
closed = 1;
nodes = (
"581 -10 OFFCURVE",
"738 152 OFFCURVE",
"738 392 CURVE SMOOTH",
"738 620 OFFCURVE",
"598 773 OFFCURVE",
"391 773 CURVE SMOOTH",
"236 773 OFFCURVE",
"100 689 OFFCURVE",
"60 567 CURVE",
"89 547 LINE",
"148 625 OFFCURVE",
"236 669 OFFCURVE",
"334 669 CURVE SMOOTH",
"475 669 OFFCURVE",
"545 565 OFFCURVE",
"545 357 CURVE SMOOTH",
"545 156 OFFCURVE",
"480 50 OFFCURVE",
"355 50 CURVE SMOOTH",
"267 50 OFFCURVE",
"219 104 OFFCURVE",
"219 203 CURVE SMOOTH",
"219 220 OFFCURVE",
"221 241 OFFCURVE",
"223 256 CURVE",
"619 270 LINE",
"619 321 LINE",
"43 321 LINE",
"33 312 LINE",
"36 106 OFFCURVE",
"146 -10 OFFCURVE",
"346 -10 CURVE SMOOTH"
);
}
);
width = 784;
},
{
associatedMasterId = "FA6D65B5-4623-4FAC-A199-3F662257AC29";
layerId = "CBD44848-52BD-4DC5-BFA6-577546B7224D";
paths = (
{
closed = 1;
nodes = (
"559 -10 OFFCURVE",
"708 154 OFFCURVE",
"708 393 CURVE SMOOTH",
"708 620 OFFCURVE",
"575 773 OFFCURVE",
"378 773 CURVE SMOOTH",
"239 773 OFFCURVE",
"116 699 OFFCURVE",
"70 588 CURVE SMOOTH",
"62 567 LINE",
"86 552 LINE",
"103 574 LINE SMOOTH",
"160 650 OFFCURVE",
"237 689 OFFCURVE",
"334 689 CURVE SMOOTH",
"496 689 OFFCURVE",
"584 571 OFFCURVE",
"584 357 CURVE SMOOTH",
"584 150 OFFCURVE",
"501 35 OFFCURVE",
"349 35 CURVE SMOOTH",
"236 35 OFFCURVE",
"176 94 OFFCURVE",
"176 207 CURVE SMOOTH",
"176 236 OFFCURVE",
"180 255 OFFCURVE",
"180 269 CURVE",
"595 282 LINE",
"595 321 LINE",
"57 321 LINE",
"47 312 LINE",
"51 102 OFFCURVE",
"152 -10 OFFCURVE",
"339 -10 CURVE SMOOTH"
);
}
);
width = 764;
},
{
layerId = "7C8D72FA-6E62-4564-8BB2-D9F9BC4EB15A";
paths = (
{
closed = 1;
nodes = (
"562 -10 OFFCURVE",
"712 153 OFFCURVE",
"712 393 CURVE SMOOTH",
"712 620 OFFCURVE",
"578 773 OFFCURVE",
"380 773 CURVE SMOOTH",
"219 773 OFFCURVE",
"108 694 OFFCURVE",
"62 567 CURVE",
"87 552 LINE",
"153 645 OFFCURVE",
"229 687 OFFCURVE",
"334 687 CURVE SMOOTH",
"494 687 OFFCURVE",
"579 571 OFFCURVE",
"579 357 CURVE SMOOTH",
"579 151 OFFCURVE",
"498 37 OFFCURVE",
"350 37 CURVE SMOOTH",
"240 37 OFFCURVE",
"182 95 OFFCURVE",
"182 206 CURVE SMOOTH",
"182 234 OFFCURVE",
"184 254 OFFCURVE",
"186 267 CURVE",
"598 281 LINE",
"598 321 LINE",
"55 321 LINE",
"45 312 LINE",
"49 102 OFFCURVE",
"151 -10 OFFCURVE",
"339 -10 CURVE SMOOTH"
);
}
);
width = 767;
},
{
associatedMasterId = "7C8D72FA-6E62-4564-8BB2-D9F9BC4EB15A";
layerId = "CF48896F-2BD3-42F6-BF7B-6BB773587460";
name = "Jan 7 19, 13:06";
paths = (
{
closed = 1;
nodes = (
"562 -10 OFFCURVE",
"712 153 OFFCURVE",
"712 393 CURVE SMOOTH",
"712 620 OFFCURVE",
"578 773 OFFCURVE",
"380 773 CURVE SMOOTH",
"239 773 OFFCURVE",
"115 699 OFFCURVE",
"70 588 CURVE SMOOTH",
"62 567 LINE",
"87 552 LINE",
"104 574 LINE SMOOTH",
"160 647 OFFCURVE",
"239 687 OFFCURVE",
"334 687 CURVE SMOOTH",
"494 687 OFFCURVE",
"579 571 OFFCURVE",
"579 357 CURVE SMOOTH",
"579 151 OFFCURVE",
"498 37 OFFCURVE",
"350 37 CURVE SMOOTH",
"240 37 OFFCURVE",
"182 95 OFFCURVE",
"182 206 CURVE SMOOTH",
"182 234 OFFCURVE",
"184 254 OFFCURVE",
"186 267 CURVE",
"598 281 LINE",
"598 321 LINE",
"55 321 LINE",
"45 312 LINE",
"49 102 OFFCURVE",
"151 -10 OFFCURVE",
"339 -10 CURVE SMOOTH"
);
}
);
visible = 1;
width = 767;
},
{
associatedMasterId = "FA6D65B5-4623-4FAC-A199-3F662257AC29";
layerId = "F34E63B7-3038-473A-9096-18807603FB47";
name = "Jan 7 19, 13:07";
paths = (
{
closed = 1;
nodes = (
"581 -10 OFFCURVE",
"738 152 OFFCURVE",
"738 392 CURVE SMOOTH",
"738 620 OFFCURVE",
"598 773 OFFCURVE",
"391 773 CURVE SMOOTH",
"245 773 OFFCURVE",
"111 697 OFFCURVE",
"68 588 CURVE SMOOTH",
"60 567 LINE",
"89 547 LINE",
"107 569 LINE SMOOTH",
"156 630 OFFCURVE",
"246 669 OFFCURVE",
"334 669 CURVE SMOOTH",
"475 669 OFFCURVE",
"545 565 OFFCURVE",
"545 357 CURVE SMOOTH",
"545 156 OFFCURVE",
"480 50 OFFCURVE",
"355 50 CURVE SMOOTH",
"267 50 OFFCURVE",
"219 104 OFFCURVE",
"219 203 CURVE SMOOTH",
"219 220 OFFCURVE",
"221 241 OFFCURVE",
"223 256 CURVE",
"619 270 LINE",
"619 321 LINE",
"43 321 LINE",
"33 312 LINE",
"36 106 OFFCURVE",
"146 -10 OFFCURVE",
"346 -10 CURVE SMOOTH"
);
}
);
width = 784;
}
);
rightKerningGroup = O;
unicode = 018F;
},
{
glyphname = T;
layers = (
{
anchors = (
{
name = bottom;
position = "{385, -2}";
},
{
name = topcap;
position = "{385, 822}";
}
);
layerId = "FA6D65B5-4623-4FAC-A199-3F662257AC29";
paths = (
{
closed = 1;
nodes = (
"589 0 LINE",
"589 37 LINE",
"471 59 LINE",
"471 708 LINE",
"633 708 LINE",
"675 654 OFFCURVE",
"701 589 OFFCURVE",
"721 535 CURVE",
"759 535 LINE",
"723 762 LINE",
"47 762 LINE",
"11 535 LINE",
"50 535 LINE",
"69 589 OFFCURVE",
"98 654 OFFCURVE",
"141 708 CURVE",
"302 708 LINE",
"302 59 LINE",
"183 37 LINE",
"183 0 LINE"
);
}
);
width = 770;
},
{
anchors = (
{
name = bottom;
position = "{375, -2}";
},
{
name = topcap;
position = "{375, 822}";
}
);
associatedMasterId = "FA6D65B5-4623-4FAC-A199-3F662257AC29";
layerId = "CBD44848-52BD-4DC5-BFA6-577546B7224D";
paths = (
{
closed = 1;
nodes = (
"535 0 LINE",
"535 23 LINE",
"427 42 LINE",
"427 723 LINE",
"623 723 LINE",
"665 666 OFFCURVE",
"694 601 OFFCURVE",
"714 544 CURVE",
"737 544 LINE",
"701 762 LINE",
"46 762 LINE",
"9 544 LINE",
"33 544 LINE",
"53 601 OFFCURVE",
"81 666 OFFCURVE",
"124 723 CURVE",
"323 723 LINE",
"323 42 LINE",
"214 23 LINE",
"214 0 LINE"
);
}
);
width = 746;
},
{
anchors = (
{
name = bottom;
position = "{377, -2}";
},
{
name = topcap;
position = "{377, 822}";
}
);
layerId = "7C8D72FA-6E62-4564-8BB2-D9F9BC4EB15A";
paths = (
{
closed = 1;
nodes = (
"541 0 LINE",
"541 24 LINE",
"433 44 LINE",
"433 721 LINE",
"624 721 LINE",
"666 664 OFFCURVE",
"695 599 OFFCURVE",
"715 543 CURVE",
"740 543 LINE",
"704 762 LINE",
"46 762 LINE",
"9 543 LINE",
"35 543 LINE",
"55 599 OFFCURVE",
"84 664 OFFCURVE",
"126 721 CURVE",
"320 721 LINE",
"320 44 LINE",
"210 24 LINE",
"210 0 LINE"
);
}
);
width = 749;
}
);
leftKerningGroup = T;
rightKerningGroup = T;
unicode = 0054;
},
{
glyphname = Tbar;
layers = (
{
components = (
{
name = T;
transform = "{1, 0, 0, 1, 1, 0}";
}
);
layerId = "FA6D65B5-4623-4FAC-A199-3F662257AC29";
paths = (
{
closed = 1;
nodes = (
"631 364 LINE",
"631 448 LINE",
"146 448 LINE",
"146 364 LINE"
);
}
);
width = 772;
},
{
associatedMasterId = "FA6D65B5-4623-4FAC-A199-3F662257AC29";
components = (
{
name = T;
}
);
layerId = "CBD44848-52BD-4DC5-BFA6-577546B7224D";
paths = (
{
closed = 1;
nodes = (
"585 373 LINE",
"585 438 LINE",
"164 438 LINE",
"164 373 LINE"
);
}
);
width = 746;
},
{
components = (
{
alignment = -1;
name = T;
}
);
layerId = "7C8D72FA-6E62-4564-8BB2-D9F9BC4EB15A";
paths = (
{
closed = 1;
nodes = (
"591 372 LINE",
"591 439 LINE",
"162 439 LINE",
"162 372 LINE"
);
}
);
width = 750;
}
);
leftKerningGroup = T;
rightKerningGroup = T;
unicode = 0166;
},
{
glyphname = U;
layers = (
{
anchors = (
{
name = bottom;
position = "{448, 0}";
},
{
name = ogonekcurvecap;
position = "{612, 47}";
},
{
name = topcap;
position = "{461, 822}";
}
);
layerId = "FA6D65B5-4623-4FAC-A199-3F662257AC29";
paths = (
{
closed = 1;
nodes = (
"534 -10 OFFCURVE",
"612 25 OFFCURVE",
"658 95 CURVE SMOOTH",
"687 142 OFFCURVE",
"703 205 OFFCURVE",
"703 280 CURVE SMOOTH",
"703 707 LINE",
"791 726 LINE",
"791 762 LINE",
"547 762 LINE",
"547 726 LINE",
"635 707 LINE",
"635 336 LINE SMOOTH",
"635 222 OFFCURVE",
"621 156 OFFCURVE",
"591 114 CURVE SMOOTH",
"562 73 OFFCURVE",
"515 52 OFFCURVE",
"455 52 CURVE SMOOTH",
"345 52 OFFCURVE",
"282 130 OFFCURVE",
"282 265 CURVE SMOOTH",
"282 707 LINE",
"369 726 LINE",
"369 762 LINE",
"26 762 LINE",
"26 726 LINE",
"110 707 LINE",
"110 265 LINE SMOOTH",
"110 182 OFFCURVE",
"122 134 OFFCURVE",
"153 96 CURVE SMOOTH",
"205 28 OFFCURVE",
"300 -10 OFFCURVE",
"419 -10 CURVE SMOOTH"
);
}
);
width = 813;
},
{
anchors = (
{
name = bottom;
position = "{397, 0}";
},
{
name = topcap;
position = "{422, 822}";
}
);
associatedMasterId = "FA6D65B5-4623-4FAC-A199-3F662257AC29";
layerId = "CBD44848-52BD-4DC5-BFA6-577546B7224D";
paths = (
{
closed = 1;
nodes = (
"489 -10 OFFCURVE",
"567 23 OFFCURVE",
"606 80 CURVE SMOOTH",
"632 118 OFFCURVE",
"643 172 OFFCURVE",
"643 255 CURVE SMOOTH",
"643 721 LINE",
"732 740 LINE",
"732 762 LINE",
"516 762 LINE",
"516 740 LINE",
"604 721 LINE",
"604 297 LINE SMOOTH",
"604 192 OFFCURVE",
"593 132 OFFCURVE",
"566 96 CURVE SMOOTH",
"537 56 OFFCURVE",
"481 35 OFFCURVE",
"410 35 CURVE SMOOTH",
"298 35 OFFCURVE",
"226 99 OFFCURVE",
"226 225 CURVE SMOOTH",
"226 721 LINE",
"314 740 LINE",
"314 762 LINE",
"33 762 LINE",
"33 740 LINE",
"122 721 LINE",
"122 240 LINE SMOOTH",
"122 157 OFFCURVE",
"134 116 OFFCURVE",
"160 81 CURVE SMOOTH",
"204 24 OFFCURVE",
"287 -10 OFFCURVE",
"389 -10 CURVE SMOOTH"
);
}
);
width = 766;
},
{
anchors = (
{
name = bottom;
position = "{404, 0}";
},
{
name = ogonekcurvecap;
position = "{581, 47}";
},
{
name = topcap;
position = "{427, 822}";
}
);
layerId = "7C8D72FA-6E62-4564-8BB2-D9F9BC4EB15A";
paths = (
{
closed = 1;
nodes = (
"495 -10 OFFCURVE",
"573 23 OFFCURVE",
"613 81 CURVE SMOOTH",
"639 121 OFFCURVE",
"651 176 OFFCURVE",
"651 259 CURVE SMOOTH",
"651 719 LINE",
"740 738 LINE",
"740 762 LINE",
"520 762 LINE",
"520 738 LINE",
"608 719 LINE",
"608 303 LINE SMOOTH",
"608 196 OFFCURVE",
"597 135 OFFCURVE",
"570 99 CURVE SMOOTH",
"540 58 OFFCURVE",
"486 37 OFFCURVE",
"416 37 CURVE SMOOTH",
"304 37 OFFCURVE",
"233 103 OFFCURVE",
"233 231 CURVE SMOOTH",
"233 719 LINE",
"322 738 LINE",
"322 762 LINE",
"32 762 LINE",
"32 738 LINE",
"120 719 LINE",
"120 243 LINE SMOOTH",
"120 161 OFFCURVE",
"133 118 OFFCURVE",
"159 83 CURVE SMOOTH",
"205 24 OFFCURVE",
"289 -10 OFFCURVE",
"393 -10 CURVE SMOOTH"
);
}
);
width = 772;
}
);
leftKerningGroup = U;
rightKerningGroup = U;
unicode = 0055;
},
{
glyphname = V;
layers = (
{
layerId = "FA6D65B5-4623-4FAC-A199-3F662257AC29";
paths = (
{
closed = 1;
nodes = (
"414 -10 LINE",
"658 616 LINE SMOOTH",
"690 697 OFFCURVE",
"708 711 OFFCURVE",
"797 726 CURVE",
"797 762 LINE",
"491 762 LINE",
"491 726 LINE",
"595 712 OFFCURVE",
"617 688 OFFCURVE",
"591 617 CURVE SMOOTH",
"455 251 LINE",
"444 252 LINE",
"297 659 LINE SMOOTH",
"280 707 OFFCURVE",
"296 719 OFFCURVE",
"388 726 CURVE",
"388 762 LINE",
"-19 762 LINE",
"-19 726 LINE",
"51 721 OFFCURVE",
"68 710 OFFCURVE",
"87 665 CURVE SMOOTH",
"366 -10 LINE"
);
}
);
width = 773;
},
{
associatedMasterId = "FA6D65B5-4623-4FAC-A199-3F662257AC29";
layerId = "CBD44848-52BD-4DC5-BFA6-577546B7224D";
paths = (
{
closed = 1;
nodes = (
"369 -10 LINE",
"595 630 LINE SMOOTH",
"620 700 OFFCURVE",
"634 724 OFFCURVE",
"738 740 CURVE",
"738 762 LINE",
"460 762 LINE",
"460 740 LINE",
"536 730 OFFCURVE",
"562 711 OFFCURVE",
"562 678 CURVE SMOOTH",
"562 665 OFFCURVE",
"558 650 OFFCURVE",
"551 632 CURVE SMOOTH",
"395 181 LINE",
"390 181 LINE",
"223 663 LINE SMOOTH",
"217 681 OFFCURVE",
"210 699 OFFCURVE",
"210 708 CURVE SMOOTH",
"210 731 OFFCURVE",
"225 734 OFFCURVE",
"314 740 CURVE",
"314 762 LINE",
"-8 762 LINE",
"-8 740 LINE",
"61 734 OFFCURVE",
"77 725 OFFCURVE",
"93 679 CURVE SMOOTH",
"351 -10 LINE"
);
}
);
width = 714;
},
{
layerId = "7C8D72FA-6E62-4564-8BB2-D9F9BC4EB15A";
paths = (
{
closed = 1;
nodes = (
"374 -10 LINE",
"604 628 LINE SMOOTH",
"629 699 OFFCURVE",
"643 722 OFFCURVE",
"746 738 CURVE",
"746 762 LINE",
"464 762 LINE",
"464 738 LINE",
"563 723 OFFCURVE",
"582 702 OFFCURVE",
"556 630 CURVE SMOOTH",
"403 191 LINE",
"397 191 LINE",
"229 674 LINE SMOOTH",
"210 727 OFFCURVE",
"217 731 OFFCURVE",
"324 738 CURVE",
"324 762 LINE",
"-9 762 LINE",
"-9 738 LINE",
"60 733 OFFCURVE",
"76 722 OFFCURVE",
"92 677 CURVE SMOOTH",
"354 -10 LINE"
);
}
);
width = 722;
},
{
associatedMasterId = "7C8D72FA-6E62-4564-8BB2-D9F9BC4EB15A";
layerId = "5BADCB50-D09D-42B1-A6FD-C0E5A93851AF";
name = "Jan 7 19, 14:20";
paths = (
{
closed = 1;
nodes = (
"374 -10 LINE",
"604 628 LINE SMOOTH",
"629 699 OFFCURVE",
"643 722 OFFCURVE",
"746 738 CURVE",
"746 762 LINE",
"464 762 LINE",
"464 738 LINE",
"540 727 OFFCURVE",
"567 710 OFFCURVE",
"567 676 CURVE SMOOTH",
"567 664 OFFCURVE",
"563 648 OFFCURVE",
"556 630 CURVE SMOOTH",
"402 191 LINE",
"397 191 LINE",
"233 662 LINE SMOOTH",
"227 680 OFFCURVE",
"221 696 OFFCURVE",
"221 706 CURVE SMOOTH",
"221 728 OFFCURVE",
"237 733 OFFCURVE",
"324 738 CURVE",
"324 762 LINE",
"-9 762 LINE",
"-9 738 LINE",
"60 733 OFFCURVE",
"76 722 OFFCURVE",
"92 677 CURVE SMOOTH",
"354 -10 LINE"
);
}
);
width = 722;
},
{
associatedMasterId = "FA6D65B5-4623-4FAC-A199-3F662257AC29";
layerId = "165C2C47-ED19-4EBB-84D3-9FA62CEFF1E6";
name = "Jan 7 19, 14:22";
paths = (
{
closed = 1;
nodes = (
"414 -10 LINE",
"658 616 LINE SMOOTH",
"690 697 OFFCURVE",
"708 711 OFFCURVE",
"797 726 CURVE",
"797 762 LINE",
"491 762 LINE",
"491 726 LINE",
"572 715 OFFCURVE",
"601 698 OFFCURVE",
"601 662 CURVE SMOOTH",
"601 650 OFFCURVE",
"598 636 OFFCURVE",
"591 617 CURVE SMOOTH",
"450 252 LINE",
"444 252 LINE",
"297 659 LINE SMOOTH",
"280 707 OFFCURVE",
"296 719 OFFCURVE",
"388 726 CURVE",
"388 762 LINE",
"-19 762 LINE",
"-19 726 LINE",
"51 721 OFFCURVE",
"68 710 OFFCURVE",
"87 665 CURVE SMOOTH",
"366 -10 LINE"
);
}
);
visible = 1;
width = 773;
}
);
unicode = 0056;
},
{
glyphname = W;
layers = (
{
anchors = (
{
name = topcap;
position = "{628, 822}";
}
);
layerId = "FA6D65B5-4623-4FAC-A199-3F662257AC29";
paths = (
{
closed = 1;
nodes = (
"403 -10 LINE",
"599 492 LINE",
"796 -10 LINE",
"844 -10 LINE",
"1088 616 LINE SMOOTH",
"1118 696 OFFCURVE",
"1140 712 OFFCURVE",
"1227 726 CURVE",
"1227 762 LINE",
"921 762 LINE",
"921 726 LINE",
"1026 712 OFFCURVE",
"1047 690 OFFCURVE",
"1020 617 CURVE SMOOTH",
"886 250 LINE",
"874 252 LINE",
"741 659 LINE SMOOTH",
"723 708 OFFCURVE",
"741 721 OFFCURVE",
"832 726 CURVE",
"832 762 LINE",
"425 762 LINE",
"425 726 LINE",
"495 721 OFFCURVE",
"514 710 OFFCURVE",
"532 665 CURVE SMOOTH",
"565 579 LINE",
"440 252 LINE",
"434 252 LINE",
"301 659 LINE SMOOTH",
"285 711 OFFCURVE",
"296 719 OFFCURVE",
"392 726 CURVE",
"392 762 LINE",
"-15 762 LINE",
"-15 726 LINE",
"55 721 OFFCURVE",
"73 710 OFFCURVE",
"91 665 CURVE SMOOTH",
"355 -10 LINE"
);
}
);
width = 1200;
},
{
anchors = (
{
name = topcap;
position = "{538, 822}";
}
);
associatedMasterId = "FA6D65B5-4623-4FAC-A199-3F662257AC29";
layerId = "CBD44848-52BD-4DC5-BFA6-577546B7224D";
paths = (
{
closed = 1;
nodes = (
"369 -10 LINE",
"535 508 LINE",
"729 -10 LINE",
"752 -10 LINE",
"955 630 LINE SMOOTH",
"978 701 OFFCURVE",
"994 724 OFFCURVE",
"1099 740 CURVE",
"1099 762 LINE",
"821 762 LINE",
"821 740 LINE",
"897 729 OFFCURVE",
"921 712 OFFCURVE",
"921 679 CURVE SMOOTH",
"921 664 OFFCURVE",
"918 650 OFFCURVE",
"912 632 CURVE SMOOTH",
"772 181 LINE",
"767 181 LINE",
"600 663 LINE SMOOTH",
"593 683 OFFCURVE",
"589 696 OFFCURVE",
"589 707 CURVE SMOOTH",
"589 727 OFFCURVE",
"596 733 OFFCURVE",
"691 740 CURVE",
"691 762 LINE",
"369 762 LINE",
"369 740 LINE",
"439 734 OFFCURVE",
"453 725 OFFCURVE",
"470 679 CURVE SMOOTH",
"511 570 LINE",
"390 181 LINE",
"385 181 LINE",
"218 663 LINE SMOOTH",
"208 691 OFFCURVE",
"205 700 OFFCURVE",
"205 710 CURVE SMOOTH",
"205 728 OFFCURVE",
"216 732 OFFCURVE",
"309 740 CURVE",
"309 762 LINE",
"-12 762 LINE",
"-12 740 LINE",
"57 734 OFFCURVE",
"72 725 OFFCURVE",
"88 679 CURVE SMOOTH",
"347 -10 LINE"
);
}
);
width = 1079;
},
{
anchors = (
{
name = topcap;
position = "{550, 822}";
}
);
layerId = "7C8D72FA-6E62-4564-8BB2-D9F9BC4EB15A";
paths = (
{
closed = 1;
nodes = (
"373 -10 LINE",
"543 506 LINE",
"737 -10 LINE",
"764 -10 LINE",
"973 628 LINE SMOOTH",
"997 700 OFFCURVE",
"1014 722 OFFCURVE",
"1116 738 CURVE",
"1116 762 LINE",
"834 762 LINE",
"834 738 LINE",
"931 724 OFFCURVE",
"951 701 OFFCURVE",
"926 630 CURVE SMOOTH",
"775 194 LINE",
"782 191 LINE",
"619 662 LINE SMOOTH",
"596 726 OFFCURVE",
"602 731 OFFCURVE",
"710 738 CURVE",
"710 762 LINE",
"377 762 LINE",
"377 738 LINE",
"446 733 OFFCURVE",
"461 722 OFFCURVE",
"479 677 CURVE SMOOTH",
"518 571 LINE",
"396 191 LINE",
"392 191 LINE",
"227 667 LINE SMOOTH",
"206 728 OFFCURVE",
"208 729 OFFCURVE",
"320 738 CURVE",
"320 762 LINE",
"-13 762 LINE",
"-13 738 LINE",
"56 733 OFFCURVE",
"72 722 OFFCURVE",
"89 677 CURVE SMOOTH",
"348 -10 LINE"
);
}
);
width = 1095;
},
{
anchors = (
{
name = topcap;
position = "{628, 822}";
}
);
associatedMasterId = "FA6D65B5-4623-4FAC-A199-3F662257AC29";
layerId = "ABFE13B6-93B8-4B3B-9D71-6302F024CC27";
name = "Jan 7 19, 14:23";
paths = (
{
closed = 1;
nodes = (
"403 -10 LINE",
"599 492 LINE",
"796 -10 LINE",
"844 -10 LINE",
"1088 616 LINE SMOOTH",
"1118 696 OFFCURVE",
"1140 712 OFFCURVE",
"1227 726 CURVE",
"1227 762 LINE",
"921 762 LINE",
"921 726 LINE",
"1003 715 OFFCURVE",
"1031 698 OFFCURVE",
"1031 664 CURVE SMOOTH",
"1031 651 OFFCURVE",
"1026 634 OFFCURVE",
"1020 617 CURVE SMOOTH",
"880 252 LINE",
"874 252 LINE",
"741 659 LINE SMOOTH",
"737 670 OFFCURVE",
"735 680 OFFCURVE",
"735 688 CURVE SMOOTH",
"735 714 OFFCURVE",
"760 722 OFFCURVE",
"832 726 CURVE",
"832 762 LINE",
"425 762 LINE",
"425 726 LINE",
"495 721 OFFCURVE",
"514 710 OFFCURVE",
"532 665 CURVE SMOOTH",
"565 579 LINE",
"440 252 LINE",
"434 252 LINE",
"301 659 LINE SMOOTH",
"297 670 OFFCURVE",
"295 680 OFFCURVE",
"295 688 CURVE SMOOTH",
"295 711 OFFCURVE",
"308 721 OFFCURVE",
"392 726 CURVE",
"392 762 LINE",
"-15 762 LINE",
"-15 726 LINE",
"55 721 OFFCURVE",
"73 710 OFFCURVE",
"91 665 CURVE SMOOTH",
"355 -10 LINE"
);
}
);
visible = 1;
width = 1200;
},
{
anchors = (
{
name = topcap;
position = "{550, 822}";
}
);
associatedMasterId = "7C8D72FA-6E62-4564-8BB2-D9F9BC4EB15A";
layerId = "A974E619-2AB6-44AE-A071-2906AAB377E2";
name = "Jan 7 19, 14:23";
paths = (
{
closed = 1;
nodes = (
"373 -10 LINE",
"543 506 LINE",
"737 -10 LINE",
"764 -10 LINE",
"973 628 LINE SMOOTH",
"997 700 OFFCURVE",
"1014 722 OFFCURVE",
"1116 738 CURVE",
"1116 762 LINE",
"834 762 LINE",
"834 738 LINE",
"911 727 OFFCURVE",
"935 711 OFFCURVE",
"935 677 CURVE SMOOTH",
"935 662 OFFCURVE",
"932 648 OFFCURVE",
"926 630 CURVE SMOOTH",
"787 191 LINE",
"782 191 LINE",
"619 662 LINE SMOOTH",
"612 681 OFFCURVE",
"608 693 OFFCURVE",
"608 704 CURVE SMOOTH",
"608 725 OFFCURVE",
"618 732 OFFCURVE",
"710 738 CURVE",
"710 762 LINE",
"377 762 LINE",
"377 738 LINE",
"446 733 OFFCURVE",
"461 722 OFFCURVE",
"479 677 CURVE SMOOTH",
"518 571 LINE",
"396 191 LINE",
"392 191 LINE",
"229 662 LINE SMOOTH",
"220 688 OFFCURVE",
"217 697 OFFCURVE",
"217 707 CURVE SMOOTH",
"217 726 OFFCURVE",
"228 731 OFFCURVE",
"320 738 CURVE",
"320 762 LINE",
"-13 762 LINE",
"-13 738 LINE",
"56 733 OFFCURVE",
"72 722 OFFCURVE",
"89 677 CURVE SMOOTH",
"348 -10 LINE"
);
}
);
width = 1095;
}
);
leftKerningGroup = W;
rightKerningGroup = W;
unicode = 0057;
},
{
glyphname = X;
layers = (
{
layerId = "FA6D65B5-4623-4FAC-A199-3F662257AC29";
paths = (
{
closed = 1;
nodes = (
"284 0 LINE",
"284 37 LINE",
"198 46 OFFCURVE",
"183 62 OFFCURVE",
"218 108 CURVE SMOOTH",
"370 314 LINE",
"521 90 LINE SMOOTH",
"543 57 OFFCURVE",
"543 43 OFFCURVE",
"440 37 CURVE",
"440 0 LINE",
"851 0 LINE",
"851 37 LINE",
"789 42 OFFCURVE",
"763 50 OFFCURVE",
"744 80 CURVE SMOOTH",
"503 439 LINE",
"667 658 LINE SMOOTH",
"698 698 OFFCURVE",
"718 711 OFFCURVE",
"803 726 CURVE",
"803 762 LINE",
"525 762 LINE",
"525 726 LINE",
"608 717 OFFCURVE",
"625 699 OFFCURVE",
"592 654 CURVE SMOOTH",
"469 489 LINE",
"348 672 LINE SMOOTH",
"322 712 OFFCURVE",
"334 722 OFFCURVE",
"423 726 CURVE",
"423 762 LINE",
"11 762 LINE",
"11 726 LINE",
"91 715 OFFCURVE",
"106 708 OFFCURVE",
"124 683 CURVE SMOOTH",
"336 366 LINE",
"142 107 LINE SMOOTH",
"112 65 OFFCURVE",
"79 47 OFFCURVE",
"-7 37 CURVE",
"-7 0 LINE"
);
}
);
width = 831;
},
{
associatedMasterId = "FA6D65B5-4623-4FAC-A199-3F662257AC29";
layerId = "CBD44848-52BD-4DC5-BFA6-577546B7224D";
paths = (
{
closed = 1;
nodes = (
"258 0 LINE",
"258 20 LINE",
"201 26 OFFCURVE",
"176 36 OFFCURVE",
"176 53 CURVE SMOOTH",
"176 61 OFFCURVE",
"180 76 OFFCURVE",
"192 91 CURVE SMOOTH",
"374 336 LINE",
"545 76 LINE SMOOTH",
"558 58 OFFCURVE",
"562 49 OFFCURVE",
"562 42 CURVE SMOOTH",
"562 31 OFFCURVE",
"547 27 OFFCURVE",
"484 22 CURVE",
"484 0 LINE",
"781 0 LINE",
"781 22 LINE",
"720 27 OFFCURVE",
"694 35 OFFCURVE",
"674 64 CURVE SMOOTH",
"444 417 LINE",
"633 671 LINE",
"670 715 OFFCURVE",
"697 727 OFFCURVE",
"768 740 CURVE",
"768 762 LINE",
"522 762 LINE",
"522 740 LINE",
"574 733 OFFCURVE",
"596 722 OFFCURVE",
"596 704 CURVE SMOOTH",
"596 693 OFFCURVE",
"590 683 OFFCURVE",
"580 668 CURVE SMOOTH",
"421 452 LINE",
"267 686 LINE SMOOTH",
"258 702 OFFCURVE",
"254 711 OFFCURVE",
"254 720 CURVE SMOOTH",
"254 731 OFFCURVE",
"265 736 OFFCURVE",
"323 740 CURVE",
"323 762 LINE",
"24 762 LINE",
"24 740 LINE",
"102 731 OFFCURVE",
"121 723 OFFCURVE",
"138 697 CURVE SMOOTH",
"349 373 LINE",
"140 90 LINE SMOOTH",
"106 45 OFFCURVE",
"66 30 OFFCURVE",
"-10 20 CURVE",
"-10 0 LINE"
);
}
);
width = 779;
},
{
layerId = "7C8D72FA-6E62-4564-8BB2-D9F9BC4EB15A";
paths = (
{
closed = 1;
nodes = (
"262 0 LINE",
"262 22 LINE",
"179 31 OFFCURVE",
"161 50 OFFCURVE",
"195 94 CURVE SMOOTH",
"381 327 LINE",
"543 77 LINE SMOOTH",
"566 41 OFFCURVE",
"560 28 OFFCURVE",
"478 24 CURVE",
"478 0 LINE",
"790 0 LINE",
"790 24 LINE",
"729 29 OFFCURVE",
"703 37 OFFCURVE",
"684 66 CURVE SMOOTH",
"451 420 LINE",
"638 669 LINE",
"674 713 OFFCURVE",
"700 725 OFFCURVE",
"773 738 CURVE",
"773 762 LINE",
"523 762 LINE",
"523 738 LINE",
"598 729 OFFCURVE",
"613 711 OFFCURVE",
"582 666 CURVE SMOOTH",
"427 457 LINE",
"278 684 LINE SMOOTH",
"252 727 OFFCURVE",
"259 733 OFFCURVE",
"336 738 CURVE",
"336 762 LINE",
"22 762 LINE",
"22 738 LINE",
"100 729 OFFCURVE",
"119 721 OFFCURVE",
"136 695 CURVE SMOOTH",
"347 373 LINE",
"140 92 LINE SMOOTH",
"107 47 OFFCURVE",
"68 32 OFFCURVE",
"-10 22 CURVE",
"-10 0 LINE"
);
}
);
width = 786;
},
{
associatedMasterId = "FA6D65B5-4623-4FAC-A199-3F662257AC29";
layerId = "6BC71C91-3B48-4DD9-A837-BF50476A7F4F";
name = "Jan 7 19, 14:26";
paths = (
{
closed = 1;
nodes = (
"284 0 LINE",
"284 37 LINE",
"227 43 OFFCURVE",
"201 53 OFFCURVE",
"201 69 CURVE SMOOTH",
"201 79 OFFCURVE",
"206 92 OFFCURVE",
"218 108 CURVE SMOOTH",
"370 314 LINE",
"521 90 LINE SMOOTH",
"533 72 OFFCURVE",
"537 62 OFFCURVE",
"537 57 CURVE SMOOTH",
"537 46 OFFCURVE",
"517 42 OFFCURVE",
"440 37 CURVE",
"440 0 LINE",
"851 0 LINE",
"851 37 LINE",
"789 42 OFFCURVE",
"763 50 OFFCURVE",
"744 80 CURVE SMOOTH",
"503 439 LINE",
"667 658 LINE SMOOTH",
"698 698 OFFCURVE",
"718 711 OFFCURVE",
"803 726 CURVE",
"803 762 LINE",
"525 762 LINE",
"525 726 LINE",
"583 720 OFFCURVE",
"608 708 OFFCURVE",
"608 690 CURVE SMOOTH",
"608 679 OFFCURVE",
"602 668 OFFCURVE",
"592 654 CURVE SMOOTH",
"469 489 LINE",
"348 672 LINE SMOOTH",
"338 688 OFFCURVE",
"335 696 OFFCURVE",
"335 705 CURVE SMOOTH",
"335 718 OFFCURVE",
"351 723 OFFCURVE",
"423 726 CURVE",
"423 762 LINE",
"11 762 LINE",
"11 726 LINE",
"91 715 OFFCURVE",
"106 708 OFFCURVE",
"124 683 CURVE SMOOTH",
"336 366 LINE",
"142 107 LINE SMOOTH",
"112 65 OFFCURVE",
"79 47 OFFCURVE",
"-7 37 CURVE",
"-7 0 LINE"
);
}
);
width = 831;
},
{
associatedMasterId = "7C8D72FA-6E62-4564-8BB2-D9F9BC4EB15A";
layerId = "FF948E43-3A43-4DD0-BA8E-8F998A9A986B";
name = "Jan 7 19, 14:27";
paths = (
{
closed = 1;
nodes = (
"262 0 LINE",
"262 22 LINE",
"205 28 OFFCURVE",
"179 38 OFFCURVE",
"179 55 CURVE SMOOTH",
"179 64 OFFCURVE",
"183 78 OFFCURVE",
"195 94 CURVE SMOOTH",
"374 333 LINE",
"543 77 LINE SMOOTH",
"554 60 OFFCURVE",
"558 50 OFFCURVE",
"558 44 CURVE SMOOTH",
"558 33 OFFCURVE",
"543 29 OFFCURVE",
"478 24 CURVE",
"478 0 LINE",
"790 0 LINE",
"790 24 LINE",
"729 29 OFFCURVE",
"703 37 OFFCURVE",
"684 66 CURVE SMOOTH",
"451 420 LINE",
"638 669 LINE",
"674 713 OFFCURVE",
"700 725 OFFCURVE",
"773 738 CURVE",
"773 762 LINE",
"523 762 LINE",
"523 738 LINE",
"575 731 OFFCURVE",
"598 720 OFFCURVE",
"598 702 CURVE SMOOTH",
"598 691 OFFCURVE",
"592 680 OFFCURVE",
"582 666 CURVE SMOOTH",
"427 457 LINE",
"278 684 LINE SMOOTH",
"269 700 OFFCURVE",
"265 709 OFFCURVE",
"265 718 CURVE SMOOTH",
"265 729 OFFCURVE",
"276 734 OFFCURVE",
"336 738 CURVE",
"336 762 LINE",
"22 762 LINE",
"22 738 LINE",
"100 729 OFFCURVE",
"119 721 OFFCURVE",
"136 695 CURVE SMOOTH",
"347 373 LINE",
"140 92 LINE SMOOTH",
"107 47 OFFCURVE",
"68 32 OFFCURVE",
"-10 22 CURVE",
"-10 0 LINE"
);
}
);
visible = 1;
width = 786;
}
);
unicode = 0058;
},
{
glyphname = Y;
layers = (
{
anchors = (
{
name = topcap;
position = "{423, 822}";
}
);
layerId = "FA6D65B5-4623-4FAC-A199-3F662257AC29";
paths = (
{
closed = 1;
nodes = (
"539 0 LINE",
"539 37 LINE",
"456 58 LINE",
"456 331 LINE",
"609 616 LINE SMOOTH",
"660 711 OFFCURVE",
"670 719 OFFCURVE",
"753 726 CURVE",
"753 762 LINE",
"453 762 LINE",
"453 726 LINE",
"563 723 OFFCURVE",
"586 695 OFFCURVE",
"544 617 CURVE SMOOTH",
"431 401 LINE",
"427 401 LINE",
"300 650 LINE SMOOTH",
"274 696 OFFCURVE",
"302 719 OFFCURVE",
"391 726 CURVE",
"391 762 LINE",
"-18 762 LINE",
"-18 726 LINE",
"52 721 OFFCURVE",
"68 715 OFFCURVE",
"96 665 CURVE SMOOTH",
"285 332 LINE",
"285 58 LINE",
"201 37 LINE",
"201 0 LINE"
);
}
);
width = 737;
},
{
anchors = (
{
name = topcap;
position = "{395, 822}";
}
);
associatedMasterId = "FA6D65B5-4623-4FAC-A199-3F662257AC29";
layerId = "CBD44848-52BD-4DC5-BFA6-577546B7224D";
paths = (
{
closed = 1;
nodes = (
"489 0 LINE",
"489 23 LINE",
"401 42 LINE",
"401 306 LINE",
"575 630 LINE SMOOTH",
"611 695 OFFCURVE",
"613 724 OFFCURVE",
"719 740 CURVE",
"719 762 LINE",
"440 762 LINE",
"440 740 LINE",
"508 734 OFFCURVE",
"542 711 OFFCURVE",
"542 674 CURVE SMOOTH",
"542 661 OFFCURVE",
"539 647 OFFCURVE",
"531 632 CURVE SMOOTH",
"393 372 LINE",
"389 372 LINE",
"226 663 LINE SMOOTH",
"218 678 OFFCURVE",
"213 692 OFFCURVE",
"213 703 CURVE SMOOTH",
"213 723 OFFCURVE",
"231 734 OFFCURVE",
"317 740 CURVE",
"317 762 LINE",
"-8 762 LINE",
"-8 740 LINE",
"61 734 OFFCURVE",
"72 721 OFFCURVE",
"96 679 CURVE SMOOTH",
"297 324 LINE",
"297 42 LINE",
"208 23 LINE",
"208 0 LINE"
);
}
);
width = 702;
},
{
anchors = (
{
name = topcap;
position = "{399, 822}";
}
);
layerId = "7C8D72FA-6E62-4564-8BB2-D9F9BC4EB15A";
paths = (
{
closed = 1;
nodes = (
"495 0 LINE",
"495 24 LINE",
"408 44 LINE",
"408 309 LINE",
"580 628 LINE SMOOTH",
"617 697 OFFCURVE",
"621 723 OFFCURVE",
"723 738 CURVE",
"723 762 LINE",
"441 762 LINE",
"441 738 LINE",
"533 732 OFFCURVE",
"564 695 OFFCURVE",
"532 630 CURVE SMOOTH",
"398 375 LINE",
"395 375 LINE",
"236 661 LINE SMOOTH",
"207 718 OFFCURVE",
"224 731 OFFCURVE",
"327 738 CURVE",
"327 762 LINE",
"-9 762 LINE",
"-9 738 LINE",
"60 733 OFFCURVE",
"72 720 OFFCURVE",
"96 677 CURVE SMOOTH",
"296 325 LINE",
"296 44 LINE",
"208 24 LINE",
"208 0 LINE"
);
}
);
width = 707;
},
{
anchors = (
{
name = topcap;
position = "{423, 822}";
}
);
associatedMasterId = "FA6D65B5-4623-4FAC-A199-3F662257AC29";
layerId = "FF123EB3-717F-41DE-91F1-9AD46AFBB2AD";
name = "Jan 7 19, 14:33";
paths = (
{
closed = 1;
nodes = (
"539 0 LINE",
"539 37 LINE",
"456 58 LINE",
"456 331 LINE",
"609 616 LINE SMOOTH",
"660 711 OFFCURVE",
"670 719 OFFCURVE",
"753 726 CURVE",
"753 762 LINE",
"453 762 LINE",
"453 726 LINE",
"535 724 OFFCURVE",
"563 708 OFFCURVE",
"563 677 CURVE SMOOTH",
"563 663 OFFCURVE",
"558 642 OFFCURVE",
"544 617 CURVE SMOOTH",
"431 401 LINE",
"427 401 LINE",
"300 650 LINE SMOOTH",
"294 660 OFFCURVE",
"291 669 OFFCURVE",
"291 678 CURVE SMOOTH",
"291 702 OFFCURVE",
"311 720 OFFCURVE",
"391 726 CURVE",
"391 762 LINE",
"-18 762 LINE",
"-18 726 LINE",
"52 721 OFFCURVE",
"68 715 OFFCURVE",
"96 665 CURVE SMOOTH",
"285 332 LINE",
"285 58 LINE",
"201 37 LINE",
"201 0 LINE"
);
}
);
visible = 1;
width = 737;
},
{
anchors = (
{
name = topcap;
position = "{399, 822}";
}
);
associatedMasterId = "7C8D72FA-6E62-4564-8BB2-D9F9BC4EB15A";
layerId = "70888B9A-CEDB-4DC8-8676-D70E2E1723CE";
name = "Jan 7 19, 14:33";
paths = (
{
closed = 1;
nodes = (
"495 0 LINE",
"495 24 LINE",
"408 44 LINE",
"408 309 LINE",
"580 628 LINE SMOOTH",
"617 697 OFFCURVE",
"621 723 OFFCURVE",
"723 738 CURVE",
"723 762 LINE",
"441 762 LINE",
"441 738 LINE",
"512 733 OFFCURVE",
"545 711 OFFCURVE",
"545 675 CURVE SMOOTH",
"545 662 OFFCURVE",
"541 647 OFFCURVE",
"532 630 CURVE SMOOTH",
"398 375 LINE",
"395 375 LINE",
"236 661 LINE SMOOTH",
"228 676 OFFCURVE",
"223 689 OFFCURVE",
"223 700 CURVE SMOOTH",
"223 720 OFFCURVE",
"241 733 OFFCURVE",
"327 738 CURVE",
"327 762 LINE",
"-9 762 LINE",
"-9 738 LINE",
"60 733 OFFCURVE",
"72 720 OFFCURVE",
"96 677 CURVE SMOOTH",
"296 325 LINE",
"296 44 LINE",
"208 24 LINE",
"208 0 LINE"
);
}
);
width = 707;
}
);
leftKerningGroup = Y;
rightKerningGroup = Y;
unicode = 0059;
},
{
glyphname = Z;
layers = (
{
anchors = (
{
name = bottom;
position = "{315, 0}";
},
{
name = topcap;
position = "{384, 822}";
}
);
layerId = "FA6D65B5-4623-4FAC-A199-3F662257AC29";
paths = (
{
closed = 1;
nodes = (
"630 0 LINE",
"692 257 LINE",
"650 259 LINE",
"620 180 OFFCURVE",
"593 128 OFFCURVE",
"542 55 CURVE",
"256 55 LINE",
"672 726 LINE",
"672 762 LINE",
"98 762 LINE",
"47 538 LINE",
"88 536 LINE",
"102 577 OFFCURVE",
"131 638 OFFCURVE",
"171 708 CURVE",
"441 708 LINE",
"27 38 LINE",
"27 0 LINE"
);
}
);
width = 723;
},
{
anchors = (
{
name = bottom;
position = "{315, 0}";
},
{
name = topcap;
position = "{353, 822}";
}
);
associatedMasterId = "FA6D65B5-4623-4FAC-A199-3F662257AC29";
layerId = "CBD44848-52BD-4DC5-BFA6-577546B7224D";
paths = (
{
closed = 1;
nodes = (
"574 0 LINE",
"626 241 LINE",
"600 245 LINE",
"582 201 OFFCURVE",
"551 128 OFFCURVE",
"504 58 CURVE SMOOTH",
"492 39 LINE",
"161 39 LINE",
"616 735 LINE",
"616 762 LINE",
"102 762 LINE",
"60 547 LINE",
"86 545 LINE",
"96 575 OFFCURVE",
"119 631 OFFCURVE",
"157 701 CURVE SMOOTH",
"170 723 LINE",
"484 723 LINE",
"31 28 LINE",
"31 0 LINE"
);
}
);
width = 669;
},
{
anchors = (
{
name = bottom;
position = "{315, 0}";
},
{
name = topcap;
position = "{357, 822}";
}
);
layerId = "7C8D72FA-6E62-4564-8BB2-D9F9BC4EB15A";
paths = (
{
closed = 1;
nodes = (
"582 0 LINE",
"634 244 LINE",
"607 247 LINE",
"571 161 OFFCURVE",
"545 110 OFFCURVE",
"499 42 CURVE",
"174 42 LINE",
"624 734 LINE",
"624 762 LINE",
"102 762 LINE",
"58 545 LINE",
"87 544 LINE",
"100 586 OFFCURVE",
"126 642 OFFCURVE",
"170 721 CURVE",
"479 721 LINE",
"31 29 LINE",
"31 0 LINE"
);
}
);
width = 676;
}
);
leftKerningGroup = Z;
rightKerningGroup = Z;
unicode = 005A;
},
{
glyphname = a;
layers = (
{
anchors = (
{
name = bottom;
position = "{289, 0}";
},
{
name = ogonekcurve;
position = "{566, 39}";
},
{
name = top;
position = "{255, 645}";
}
);
layerId = "FA6D65B5-4623-4FAC-A199-3F662257AC29";
paths = (
{
closed = 1;
nodes = (
"229 -10 OFFCURVE",
"281 15 OFFCURVE",
"331 68 CURVE",
"335 68 LINE",
"345 16 OFFCURVE",
"376 -10 OFFCURVE",
"441 -10 CURVE SMOOTH",
"497 -10 OFFCURVE",
"542 11 OFFCURVE",
"585 57 CURVE",
"563 89 LINE",
"548 73 OFFCURVE",
"534 65 OFFCURVE",
"518 65 CURVE SMOOTH",
"492 65 OFFCURVE",
"481 90 OFFCURVE",
"481 149 CURVE SMOOTH",
"481 353 LINE SMOOTH",
"481 426 OFFCURVE",
"474 460 OFFCURVE",
"459 485 CURVE SMOOTH",
"437 517 OFFCURVE",
"394 535 OFFCURVE",
"323 535 CURVE SMOOTH",
"252 535 OFFCURVE",
"186 517 OFFCURVE",
"136 485 CURVE SMOOTH",
"86 452 OFFCURVE",
"58 409 OFFCURVE",
"58 368 CURVE SMOOTH",
"58 328 OFFCURVE",
"84 300 OFFCURVE",
"123 300 CURVE SMOOTH",
"161 300 OFFCURVE",
"191 328 OFFCURVE",
"191 366 CURVE SMOOTH",
"191 380 OFFCURVE",
"187 395 OFFCURVE",
"187 410 CURVE SMOOTH",
"187 452 OFFCURVE",
"218 477 OFFCURVE",
"267 477 CURVE SMOOTH",
"315 477 OFFCURVE",
"328 453 OFFCURVE",
"328 364 CURVE SMOOTH",
"328 291 LINE",
"128 263 OFFCURVE",
"38 206 OFFCURVE",
"38 107 CURVE SMOOTH",
"38 34 OFFCURVE",
"87 -10 OFFCURVE",
"168 -10 CURVE SMOOTH"
);
},
{
closed = 1;
nodes = (
"221 84 OFFCURVE",
"203 104 OFFCURVE",
"203 148 CURVE SMOOTH",
"203 203 OFFCURVE",
"232 226 OFFCURVE",
"328 245 CURVE",
"328 112 LINE",
"310 93 OFFCURVE",
"286 84 OFFCURVE",
"259 84 CURVE SMOOTH"
);
}
);
width = 579;
},
{
anchors = (
{
name = bottom;
position = "{406, 0}";
},
{
name = top;
position = "{262, 645}";
}
);
associatedMasterId = "FA6D65B5-4623-4FAC-A199-3F662257AC29";
layerId = "CBD44848-52BD-4DC5-BFA6-577546B7224D";
paths = (
{
closed = 1;
nodes = (
"225 -10 OFFCURVE",
"283 25 OFFCURVE",
"322 81 CURVE",
"324 80 LINE",
"332 19 OFFCURVE",
"361 -10 OFFCURVE",
"413 -10 CURVE SMOOTH",
"456 -10 OFFCURVE",
"485 9 OFFCURVE",
"516 57 CURVE",
"499 72 LINE",
"482 51 OFFCURVE",
"469 43 OFFCURVE",
"450 43 CURVE SMOOTH",
"422 43 OFFCURVE",
"414 60 OFFCURVE",
"414 126 CURVE SMOOTH",
"414 353 LINE SMOOTH",
"414 436 OFFCURVE",
"412 460 OFFCURVE",
"401 482 CURVE SMOOTH",
"384 516 OFFCURVE",
"343 535 OFFCURVE",
"286 535 CURVE SMOOTH",
"244 535 OFFCURVE",
"199 524 OFFCURVE",
"160 504 CURVE SMOOTH",
"96 471 OFFCURVE",
"54 421 OFFCURVE",
"54 377 CURVE SMOOTH",
"54 349 OFFCURVE",
"72 330 OFFCURVE",
"99 330 CURVE SMOOTH",
"129 330 OFFCURVE",
"151 353 OFFCURVE",
"151 387 CURVE SMOOTH",
"151 398 OFFCURVE",
"149 411 OFFCURVE",
"149 422 CURVE SMOOTH",
"149 468 OFFCURVE",
"184 497 OFFCURVE",
"241 497 CURVE SMOOTH",
"298 497 OFFCURVE",
"320 467 OFFCURVE",
"320 383 CURVE SMOOTH",
"320 286 LINE",
"121 244 OFFCURVE",
"49 197 OFFCURVE",
"49 111 CURVE SMOOTH",
"49 39 OFFCURVE",
"97 -10 OFFCURVE",
"167 -10 CURVE SMOOTH"
);
},
{
closed = 1;
nodes = (
"163 49 OFFCURVE",
"137 79 OFFCURVE",
"137 132 CURVE SMOOTH",
"137 201 OFFCURVE",
"180 229 OFFCURVE",
"320 258 CURVE",
"320 115 LINE",
"294 73 OFFCURVE",
"254 49 OFFCURVE",
"211 49 CURVE SMOOTH"
);
}
);
width = 520;
},
{
anchors = (
{
name = bottom;
position = "{259, 0}";
},
{
name = ogonekcurve;
position = "{510, 39}";
},
{
name = top;
position = "{261, 645}";
}
);
layerId = "7C8D72FA-6E62-4564-8BB2-D9F9BC4EB15A";
paths = (
{
closed = 1;
nodes = (
"226 -10 OFFCURVE",
"283 24 OFFCURVE",
"321 79 CURVE",
"324 79 LINE",
"334 19 OFFCURVE",
"363 -10 OFFCURVE",
"417 -10 CURVE SMOOTH",
"461 -10 OFFCURVE",
"493 9 OFFCURVE",
"525 57 CURVE",
"507 74 LINE",
"491 54 OFFCURVE",
"478 46 OFFCURVE",
"460 46 CURVE SMOOTH",
"431 46 OFFCURVE",
"423 64 OFFCURVE",
"423 129 CURVE SMOOTH",
"423 353 LINE SMOOTH",
"423 434 OFFCURVE",
"420 460 OFFCURVE",
"409 483 CURVE SMOOTH",
"391 516 OFFCURVE",
"350 535 OFFCURVE",
"292 535 CURVE SMOOTH",
"245 535 OFFCURVE",
"198 523 OFFCURVE",
"157 502 CURVE SMOOTH",
"95 469 OFFCURVE",
"54 419 OFFCURVE",
"54 376 CURVE SMOOTH",
"54 346 OFFCURVE",
"74 326 OFFCURVE",
"102 326 CURVE SMOOTH",
"133 326 OFFCURVE",
"156 350 OFFCURVE",
"156 384 CURVE SMOOTH",
"156 396 OFFCURVE",
"154 408 OFFCURVE",
"154 421 CURVE SMOOTH",
"154 466 OFFCURVE",
"189 495 OFFCURVE",
"244 495 CURVE SMOOTH",
"300 495 OFFCURVE",
"321 465 OFFCURVE",
"321 380 CURVE SMOOTH",
"321 287 LINE",
"122 246 OFFCURVE",
"47 198 OFFCURVE",
"47 110 CURVE SMOOTH",
"47 39 OFFCURVE",
"96 -10 OFFCURVE",
"167 -10 CURVE SMOOTH"
);
},
{
closed = 1;
nodes = (
"171 53 OFFCURVE",
"146 82 OFFCURVE",
"146 134 CURVE SMOOTH",
"146 201 OFFCURVE",
"187 229 OFFCURVE",
"321 256 CURVE",
"321 115 LINE",
"296 76 OFFCURVE",
"258 53 OFFCURVE",
"217 53 CURVE SMOOTH"
);
}
);
width = 528;
}
);
leftKerningGroup = a;
rightKerningGroup = a;
unicode = 0061;
userData = {
com.typemytype.robofont.guides = (
{
angle = 359.5;
isGlobal = 0;
magnetic = 5;
x = 0;
y = 84;
}
);
};
},
{
glyphname = ae;
layers = (
{
layerId = "FA6D65B5-4623-4FAC-A199-3F662257AC29";
paths = (
{
closed = 1;
nodes = (
"492 417 OFFCURVE",
"536 484 OFFCURVE",
"611 484 CURVE SMOOTH",
"669 484 OFFCURVE",
"699 448 OFFCURVE",
"699 379 CURVE SMOOTH",
"699 366 OFFCURVE",
"697 349 OFFCURVE",
"695 342 CURVE",
"484 334 LINE",
"483 287 LINE",
"852 287 LINE",
"859 293 LINE",
"855 452 OFFCURVE",
"775 535 OFFCURVE",
"624 535 CURVE SMOOTH",
"558 535 OFFCURVE",
"500 518 OFFCURVE",
"453 490 CURVE",
"425 522 OFFCURVE",
"387 535 OFFCURVE",
"324 535 CURVE SMOOTH",
"250 535 OFFCURVE",
"184 517 OFFCURVE",
"136 485 CURVE SMOOTH",
"87 452 OFFCURVE",
"58 407 OFFCURVE",
"58 366 CURVE SMOOTH",
"58 328 OFFCURVE",
"84 300 OFFCURVE",
"123 300 CURVE SMOOTH",
"161 300 OFFCURVE",
"191 328 OFFCURVE",
"191 366 CURVE SMOOTH",
"191 380 OFFCURVE",
"187 395 OFFCURVE",
"187 410 CURVE SMOOTH",
"187 452 OFFCURVE",
"218 477 OFFCURVE",
"267 477 CURVE SMOOTH",
"315 477 OFFCURVE",
"328 453 OFFCURVE",
"328 364 CURVE SMOOTH",
"328 291 LINE",
"127 263 OFFCURVE",
"38 206 OFFCURVE",
"38 106 CURVE SMOOTH",
"38 33 OFFCURVE",
"86 -10 OFFCURVE",
"172 -10 CURVE SMOOTH",
"244 -10 OFFCURVE",
"302 20 OFFCURVE",
"373 91 CURVE",
"377 91 LINE",
"424 28 OFFCURVE",
"502 -10 OFFCURVE",
"599 -10 CURVE SMOOTH",
"717 -10 OFFCURVE",
"807 46 OFFCURVE",
"843 142 CURVE",
"815 165 LINE",
"776 118 OFFCURVE",
"716 92 OFFCURVE",
"647 92 CURVE SMOOTH",
"541 92 OFFCURVE",
"492 159 OFFCURVE",
"492 300 CURVE SMOOTH"
);
},
{
closed = 1;
nodes = (
"226 84 OFFCURVE",
"203 106 OFFCURVE",
"203 145 CURVE SMOOTH",
"203 196 OFFCURVE",
"241 228 OFFCURVE",
"327 245 CURVE",
"328 204 OFFCURVE",
"336 163 OFFCURVE",
"353 129 CURVE",
"322 98 OFFCURVE",
"292 84 OFFCURVE",
"262 84 CURVE SMOOTH"
);
}
);
width = 889;
},
{
associatedMasterId = "FA6D65B5-4623-4FAC-A199-3F662257AC29";
layerId = "CBD44848-52BD-4DC5-BFA6-577546B7224D";
paths = (
{
closed = 1;
nodes = (
"229 -10 OFFCURVE",
"303 34 OFFCURVE",
"350 107 CURVE",
"354 107 LINE",
"394 34 OFFCURVE",
"467 -10 OFFCURVE",
"558 -10 CURVE SMOOTH",
"654 -10 OFFCURVE",
"735 39 OFFCURVE",
"770 120 CURVE SMOOTH",
"776 134 LINE",
"759 144 LINE",
"748 129 LINE SMOOTH",
"714 87 OFFCURVE",
"654 62 OFFCURVE",
"589 62 CURVE SMOOTH",
"471 62 OFFCURVE",
"419 138 OFFCURVE",
"419 305 CURVE",
"780 305 LINE",
"787 311 LINE",
"784 457 OFFCURVE",
"714 535 OFFCURVE",
"584 535 CURVE SMOOTH",
"512 535 OFFCURVE",
"452 511 OFFCURVE",
"406 469 CURVE",
"389 516 OFFCURVE",
"343 535 OFFCURVE",
"286 535 CURVE SMOOTH",
"244 535 OFFCURVE",
"199 524 OFFCURVE",
"160 504 CURVE SMOOTH",
"96 471 OFFCURVE",
"54 421 OFFCURVE",
"54 377 CURVE SMOOTH",
"54 349 OFFCURVE",
"72 330 OFFCURVE",
"99 330 CURVE SMOOTH",
"129 330 OFFCURVE",
"151 353 OFFCURVE",
"151 387 CURVE SMOOTH",
"151 398 OFFCURVE",
"149 411 OFFCURVE",
"149 422 CURVE SMOOTH",
"149 468 OFFCURVE",
"184 497 OFFCURVE",
"241 497 CURVE SMOOTH",
"298 497 OFFCURVE",
"320 467 OFFCURVE",
"320 383 CURVE SMOOTH",
"320 286 LINE",
"120 244 OFFCURVE",
"49 197 OFFCURVE",
"49 110 CURVE SMOOTH",
"49 39 OFFCURVE",
"98 -10 OFFCURVE",
"168 -10 CURVE SMOOTH"
);
},
{
closed = 1;
nodes = (
"163 49 OFFCURVE",
"137 80 OFFCURVE",
"137 132 CURVE SMOOTH",
"137 201 OFFCURVE",
"180 229 OFFCURVE",
"320 258 CURVE",
"320 211 OFFCURVE",
"327 171 OFFCURVE",
"341 137 CURVE",
"308 84 OFFCURVE",
"255 49 OFFCURVE",
"210 49 CURVE SMOOTH"
);
},
{
closed = 1;
nodes = (
"434 443 OFFCURVE",
"488 504 OFFCURVE",
"575 504 CURVE SMOOTH",
"646 504 OFFCURVE",
"683 463 OFFCURVE",
"683 381 CURVE SMOOTH",
"683 365 OFFCURVE",
"683 349 OFFCURVE",
"680 342 CURVE",
"421 332 LINE"
);
}
);
width = 828;
},
{
layerId = "7C8D72FA-6E62-4564-8BB2-D9F9BC4EB15A";
paths = (
{
closed = 1;
nodes = (
"429 407 OFFCURVE",
"472 501 OFFCURVE",
"580 501 CURVE SMOOTH",
"650 501 OFFCURVE",
"685 461 OFFCURVE",
"685 381 CURVE SMOOTH",
"685 366 OFFCURVE",
"684 353 OFFCURVE",
"682 342 CURVE",
"424 333 LINE",
"422 303 LINE",
"790 303 LINE",
"797 309 LINE",
"794 457 OFFCURVE",
"722 535 OFFCURVE",
"590 535 CURVE SMOOTH",
"519 535 OFFCURVE",
"458 512 OFFCURVE",
"412 473 CURVE",
"393 517 OFFCURVE",
"348 535 OFFCURVE",
"292 535 CURVE SMOOTH",
"244 535 OFFCURVE",
"197 523 OFFCURVE",
"157 502 CURVE SMOOTH",
"95 469 OFFCURVE",
"54 419 OFFCURVE",
"54 376 CURVE SMOOTH",
"54 346 OFFCURVE",
"74 326 OFFCURVE",
"102 326 CURVE SMOOTH",
"133 326 OFFCURVE",
"156 350 OFFCURVE",
"156 384 CURVE SMOOTH",
"156 396 OFFCURVE",
"154 408 OFFCURVE",
"154 421 CURVE SMOOTH",
"154 466 OFFCURVE",
"189 495 OFFCURVE",
"244 495 CURVE SMOOTH",
"300 495 OFFCURVE",
"321 465 OFFCURVE",
"321 380 CURVE SMOOTH",
"321 287 LINE",
"121 246 OFFCURVE",
"47 198 OFFCURVE",
"47 110 CURVE SMOOTH",
"47 39 OFFCURVE",
"96 -10 OFFCURVE",
"169 -10 CURVE SMOOTH",
"232 -10 OFFCURVE",
"303 32 OFFCURVE",
"354 105 CURVE",
"357 105 LINE",
"398 33 OFFCURVE",
"471 -10 OFFCURVE",
"563 -10 CURVE SMOOTH",
"669 -10 OFFCURVE",
"750 43 OFFCURVE",
"785 135 CURVE",
"767 146 LINE",
"729 94 OFFCURVE",
"669 66 OFFCURVE",
"598 66 CURVE SMOOTH",
"486 66 OFFCURVE",
"429 141 OFFCURVE",
"429 284 CURVE SMOOTH"
);
},
{
closed = 1;
nodes = (
"172 53 OFFCURVE",
"146 83 OFFCURVE",
"146 134 CURVE SMOOTH",
"146 200 OFFCURVE",
"189 229 OFFCURVE",
"320 256 CURVE",
"321 210 OFFCURVE",
"328 170 OFFCURVE",
"342 136 CURVE",
"309 87 OFFCURVE",
"260 53 OFFCURVE",
"217 53 CURVE SMOOTH"
);
}
);
width = 836;
},
{
associatedMasterId = "7C8D72FA-6E62-4564-8BB2-D9F9BC4EB15A";
layerId = "31185475-9B13-491A-BD70-90092102E026";
name = "Jan 7 19, 14:43";
paths = (
{
closed = 1;
nodes = (
"232 -10 OFFCURVE",
"303 32 OFFCURVE",
"354 105 CURVE",
"358 105 LINE",
"398 33 OFFCURVE",
"471 -10 OFFCURVE",
"563 -10 CURVE SMOOTH",
"662 -10 OFFCURVE",
"744 40 OFFCURVE",
"779 121 CURVE SMOOTH",
"785 135 LINE",
"767 146 LINE",
"756 133 LINE SMOOTH",
"722 91 OFFCURVE",
"661 66 OFFCURVE",
"597 66 CURVE SMOOTH",
"481 66 OFFCURVE",
"429 141 OFFCURVE",
"428 303 CURVE",
"790 303 LINE",
"797 309 LINE",
"794 457 OFFCURVE",
"722 535 OFFCURVE",
"589 535 CURVE SMOOTH",
"518 535 OFFCURVE",
"459 512 OFFCURVE",
"412 472 CURVE",
"394 517 OFFCURVE",
"349 535 OFFCURVE",
"292 535 CURVE SMOOTH",
"244 535 OFFCURVE",
"197 523 OFFCURVE",
"157 502 CURVE SMOOTH",
"95 469 OFFCURVE",
"54 419 OFFCURVE",
"54 376 CURVE SMOOTH",
"54 346 OFFCURVE",
"74 326 OFFCURVE",
"102 326 CURVE SMOOTH",
"133 326 OFFCURVE",
"156 350 OFFCURVE",
"156 384 CURVE SMOOTH",
"156 396 OFFCURVE",
"154 408 OFFCURVE",
"154 421 CURVE SMOOTH",
"154 466 OFFCURVE",
"189 495 OFFCURVE",
"244 495 CURVE SMOOTH",
"300 495 OFFCURVE",
"321 465 OFFCURVE",
"321 380 CURVE SMOOTH",
"321 287 LINE",
"121 246 OFFCURVE",
"47 198 OFFCURVE",
"47 110 CURVE SMOOTH",
"47 39 OFFCURVE",
"96 -10 OFFCURVE",
"169 -10 CURVE SMOOTH"
);
},
{
closed = 1;
nodes = (
"172 53 OFFCURVE",
"146 83 OFFCURVE",
"146 134 CURVE SMOOTH",
"146 200 OFFCURVE",
"189 229 OFFCURVE",
"320 256 CURVE",
"321 210 OFFCURVE",
"328 170 OFFCURVE",
"342 136 CURVE",
"309 87 OFFCURVE",
"260 53 OFFCURVE",
"217 53 CURVE SMOOTH"
);
},
{
closed = 1;
nodes = (
"443 441 OFFCURVE",
"495 501 OFFCURVE",
"580 501 CURVE SMOOTH",
"649 501 OFFCURVE",
"685 460 OFFCURVE",
"685 381 CURVE SMOOTH",
"685 365 OFFCURVE",
"684 349 OFFCURVE",
"682 342 CURVE",
"430 332 LINE"
);
}
);
width = 836;
},
{
associatedMasterId = "FA6D65B5-4623-4FAC-A199-3F662257AC29";
layerId = "F182206B-4591-4B02-AF8B-214E477D2075";
name = "Jan 7 19, 14:43";
paths = (
{
closed = 1;
nodes = (
"244 -10 OFFCURVE",
"302 20 OFFCURVE",
"373 91 CURVE",
"377 91 LINE",
"425 26 OFFCURVE",
"503 -10 OFFCURVE",
"597 -10 CURVE SMOOTH",
"710 -10 OFFCURVE",
"801 43 OFFCURVE",
"837 130 CURVE SMOOTH",
"843 142 LINE",
"814 165 LINE",
"807 157 LINE SMOOTH",
"772 117 OFFCURVE",
"711 92 OFFCURVE",
"646 92 CURVE SMOOTH",
"543 92 OFFCURVE",
"492 156 OFFCURVE",
"491 287 CURVE",
"852 287 LINE",
"859 293 LINE",
"854 452 OFFCURVE",
"773 535 OFFCURVE",
"624 535 CURVE SMOOTH",
"559 535 OFFCURVE",
"501 520 OFFCURVE",
"453 490 CURVE",
"425 522 OFFCURVE",
"387 535 OFFCURVE",
"324 535 CURVE SMOOTH",
"250 535 OFFCURVE",
"184 517 OFFCURVE",
"136 485 CURVE SMOOTH",
"87 452 OFFCURVE",
"58 407 OFFCURVE",
"58 366 CURVE SMOOTH",
"58 328 OFFCURVE",
"84 300 OFFCURVE",
"123 300 CURVE SMOOTH",
"161 300 OFFCURVE",
"191 328 OFFCURVE",
"191 366 CURVE SMOOTH",
"191 380 OFFCURVE",
"187 395 OFFCURVE",
"187 410 CURVE SMOOTH",
"187 452 OFFCURVE",
"218 477 OFFCURVE",
"267 477 CURVE SMOOTH",
"315 477 OFFCURVE",
"328 453 OFFCURVE",
"328 364 CURVE SMOOTH",
"328 291 LINE",
"127 263 OFFCURVE",
"38 206 OFFCURVE",
"38 106 CURVE SMOOTH",
"38 33 OFFCURVE",
"86 -10 OFFCURVE",
"172 -10 CURVE SMOOTH"
);
},
{
closed = 1;
nodes = (
"226 84 OFFCURVE",
"203 106 OFFCURVE",
"203 145 CURVE SMOOTH",
"203 196 OFFCURVE",
"241 228 OFFCURVE",
"327 245 CURVE",
"328 204 OFFCURVE",
"336 163 OFFCURVE",
"353 129 CURVE",
"322 98 OFFCURVE",
"292 84 OFFCURVE",
"262 84 CURVE SMOOTH"
);
},
{
closed = 1;
nodes = (
"501 431 OFFCURVE",
"543 484 OFFCURVE",
"612 484 CURVE SMOOTH",
"668 484 OFFCURVE",
"699 448 OFFCURVE",
"699 381 CURVE SMOOTH",
"699 366 OFFCURVE",
"697 351 OFFCURVE",
"695 342 CURVE",
"493 334 LINE"
);
}
);
visible = 1;
width = 889;
}
);
leftKerningGroup = a;
rightKerningGroup = e;
unicode = 00E6;
userData = {
com.typemytype.robofont.guides = (
{
angle = 90;
isGlobal = 0;
magnetic = 5;
x = -118;
y = 0;
}
);
};
},
{
glyphname = b;
layers = (
{
layerId = "FA6D65B5-4623-4FAC-A199-3F662257AC29";
paths = (
{
closed = 1;
nodes = (
"498 -10 OFFCURVE",
"615 117 OFFCURVE",
"615 284 CURVE SMOOTH",
"615 433 OFFCURVE",
"526 535 OFFCURVE",
"396 535 CURVE SMOOTH",
"332 535 OFFCURVE",
"276 508 OFFCURVE",
"232 464 CURVE",
"232 822 LINE",
"210 822 LINE",
"-5 773 LINE",
"-5 750 LINE",
"79 724 LINE",
"79 0 LINE",
"107 0 LINE",
"192 36 LINE",
"198 36 LINE",
"241 7 OFFCURVE",
"293 -10 OFFCURVE",
"347 -10 CURVE SMOOTH"
);
},
{
closed = 1;
nodes = (
"270 43 OFFCURVE",
"232 93 OFFCURVE",
"232 168 CURVE SMOOTH",
"232 400 LINE",
"255 436 OFFCURVE",
"288 457 OFFCURVE",
"328 457 CURVE SMOOTH",
"404 457 OFFCURVE",
"448 382 OFFCURVE",
"448 256 CURVE SMOOTH",
"448 129 OFFCURVE",
"400 43 OFFCURVE",
"327 43 CURVE SMOOTH"
);
}
);
width = 651;
},
{
associatedMasterId = "FA6D65B5-4623-4FAC-A199-3F662257AC29";
layerId = "CBD44848-52BD-4DC5-BFA6-577546B7224D";
paths = (
{
closed = 1;
nodes = (
"438 -10 OFFCURVE",
"551 117 OFFCURVE",
"551 284 CURVE SMOOTH",
"551 433 OFFCURVE",
"461 535 OFFCURVE",
"332 535 CURVE SMOOTH",
"274 535 OFFCURVE",
"223 512 OFFCURVE",
"181 468 CURVE",
"181 822 LINE",
"171 822 LINE",
"14 773 LINE",
"14 760 LINE",
"86 733 LINE",
"86 0 LINE",
"102 0 LINE",
"148 36 LINE",
"153 36 LINE",
"192 7 OFFCURVE",
"240 -10 OFFCURVE",
"289 -10 CURVE SMOOTH"
);
},
{
closed = 1;
nodes = (
"224 24 OFFCURVE",
"181 73 OFFCURVE",
"181 149 CURVE SMOOTH",
"181 430 LINE",
"207 461 OFFCURVE",
"246 481 OFFCURVE",
"290 481 CURVE SMOOTH",
"386 481 OFFCURVE",
"444 396 OFFCURVE",
"444 256 CURVE SMOOTH",
"444 117 OFFCURVE",
"383 24 OFFCURVE",
"289 24 CURVE SMOOTH"
);
}
);
width = 596;
},
{
layerId = "7C8D72FA-6E62-4564-8BB2-D9F9BC4EB15A";
paths = (
{
closed = 1;
nodes = (
"446 -10 OFFCURVE",
"559 117 OFFCURVE",
"559 284 CURVE SMOOTH",
"559 433 OFFCURVE",
"470 535 OFFCURVE",
"341 535 CURVE SMOOTH",
"281 535 OFFCURVE",
"230 512 OFFCURVE",
"188 467 CURVE",
"188 822 LINE",
"176 822 LINE",
"12 773 LINE",
"12 759 LINE",
"85 732 LINE",
"85 0 LINE",
"103 0 LINE",
"153 36 LINE",
"159 36 LINE",
"198 7 OFFCURVE",
"247 -10 OFFCURVE",
"297 -10 CURVE SMOOTH"
);
},
{
closed = 1;
nodes = (
"230 27 OFFCURVE",
"188 76 OFFCURVE",
"188 151 CURVE SMOOTH",
"188 426 LINE",
"214 458 OFFCURVE",
"251 478 OFFCURVE",
"296 478 CURVE SMOOTH",
"388 478 OFFCURVE",
"445 394 OFFCURVE",
"445 256 CURVE SMOOTH",
"445 119 OFFCURVE",
"385 27 OFFCURVE",
"294 27 CURVE SMOOTH"
);
}
);
width = 604;
}
);
leftKerningGroup = b;
rightKerningGroup = b;
unicode = 0062;
},
{
glyphname = c;
layers = (
{
anchors = (
{
name = bottom;
position = "{311, 0}";
},
{
name = top;
position = "{322, 645}";
}
);
layerId = "FA6D65B5-4623-4FAC-A199-3F662257AC29";
paths = (
{
closed = 1;
nodes = (
"409 -10 OFFCURVE",
"482 39 OFFCURVE",
"524 143 CURVE",
"496 165 LINE",
"454 115 OFFCURVE",
"407 92 OFFCURVE",
"343 92 CURVE SMOOTH",
"250 92 OFFCURVE",
"202 159 OFFCURVE",
"202 286 CURVE SMOOTH",
"202 412 OFFCURVE",
"248 483 OFFCURVE",
"328 483 CURVE SMOOTH",
"377 483 OFFCURVE",
"388 445 OFFCURVE",
"395 394 CURVE SMOOTH",
"399 365 OFFCURVE",
"410 330 OFFCURVE",
"460 330 CURVE SMOOTH",
"501 330 OFFCURVE",
"526 355 OFFCURVE",
"526 396 CURVE SMOOTH",
"526 475 OFFCURVE",
"439 535 OFFCURVE",
"323 535 CURVE SMOOTH",
"155 535 OFFCURVE",
"36 418 OFFCURVE",
"36 255 CURVE SMOOTH",
"36 102 OFFCURVE",
"144 -10 OFFCURVE",
"296 -10 CURVE SMOOTH"
);
}
);
width = 551;
},
{
anchors = (
{
name = bottom;
position = "{288, 0}";
},
{
name = top;
position = "{305, 645}";
}
);
associatedMasterId = "FA6D65B5-4623-4FAC-A199-3F662257AC29";
layerId = "CBD44848-52BD-4DC5-BFA6-577546B7224D";
paths = (
{
closed = 1;
nodes = (
"383 -10 OFFCURVE",
"457 39 OFFCURVE",
"491 127 CURVE SMOOTH",
"496 140 LINE",
"477 150 LINE",
"467 134 LINE SMOOTH",
"431 86 OFFCURVE",
"376 62 OFFCURVE",
"317 62 CURVE SMOOTH",
"209 62 OFFCURVE",
"146 141 OFFCURVE",
"146 275 CURVE SMOOTH",
"146 414 OFFCURVE",
"207 503 OFFCURVE",
"312 503 CURVE SMOOTH",
"357 503 OFFCURVE",
"375 489 OFFCURVE",
"383 423 CURVE SMOOTH",
"388 381 OFFCURVE",
"407 361 OFFCURVE",
"442 361 CURVE SMOOTH",
"470 361 OFFCURVE",
"487 384 OFFCURVE",
"487 418 CURVE SMOOTH",
"487 481 OFFCURVE",
"410 535 OFFCURVE",
"309 535 CURVE SMOOTH",
"155 535 OFFCURVE",
"46 419 OFFCURVE",
"46 255 CURVE SMOOTH",
"46 99 OFFCURVE",
"146 -10 OFFCURVE",
"287 -10 CURVE SMOOTH"
);
}
);
width = 530;
},
{
anchors = (
{
name = bottom;
position = "{291, 0}";
},
{
name = top;
position = "{303, 645}";
}
);
layerId = "7C8D72FA-6E62-4564-8BB2-D9F9BC4EB15A";
paths = (
{
closed = 1;
nodes = (
"379 -10 OFFCURVE",
"455 43 OFFCURVE",
"491 138 CURVE",
"471 149 LINE",
"430 92 OFFCURVE",
"378 69 OFFCURVE",
"311 69 CURVE SMOOTH",
"210 69 OFFCURVE",
"154 144 OFFCURVE",
"154 278 CURVE SMOOTH",
"154 412 OFFCURVE",
"209 500 OFFCURVE",
"303 500 CURVE SMOOTH",
"350 500 OFFCURVE",
"369 483 OFFCURVE",
"376 417 CURVE SMOOTH",
"381 373 OFFCURVE",
"398 353 OFFCURVE",
"432 353 CURVE SMOOTH",
"464 353 OFFCURVE",
"484 374 OFFCURVE",
"484 410 CURVE SMOOTH",
"484 477 OFFCURVE",
"405 535 OFFCURVE",
"300 535 CURVE SMOOTH",
"151 535 OFFCURVE",
"45 416 OFFCURVE",
"45 252 CURVE SMOOTH",
"45 97 OFFCURVE",
"141 -10 OFFCURVE",
"278 -10 CURVE SMOOTH"
);
}
);
width = 525;
},
{
anchors = (
{
name = bottom;
position = "{311, 0}";
},
{
name = top;
position = "{322, 645}";
}
);
associatedMasterId = "FA6D65B5-4623-4FAC-A199-3F662257AC29";
layerId = "82E8C230-52A6-4E98-B82A-B16808911FDA";
name = "Jan 7 19, 14:38";
paths = (
{
closed = 1;
nodes = (
"409 -10 OFFCURVE",
"486 37 OFFCURVE",
"526 132 CURVE SMOOTH",
"531 144 LINE",
"503 165 LINE",
"496 157 LINE SMOOTH",
"460 115 OFFCURVE",
"409 92 OFFCURVE",
"349 92 CURVE SMOOTH",
"252 92 OFFCURVE",
"202 159 OFFCURVE",
"202 286 CURVE SMOOTH",
"202 412 OFFCURVE",
"251 483 OFFCURVE",
"334 483 CURVE SMOOTH",
"387 483 OFFCURVE",
"400 448 OFFCURVE",
"406 401 CURVE SMOOTH",
"410 372 OFFCURVE",
"422 336 OFFCURVE",
"471 336 CURVE SMOOTH",
"512 336 OFFCURVE",
"538 362 OFFCURVE",
"538 403 CURVE SMOOTH",
"538 478 OFFCURVE",
"448 535 OFFCURVE",
"328 535 CURVE SMOOTH",
"157 535 OFFCURVE",
"36 418 OFFCURVE",
"36 255 CURVE SMOOTH",
"36 102 OFFCURVE",
"146 -10 OFFCURVE",
"302 -10 CURVE SMOOTH"
);
}
);
width = 565;
},
{
anchors = (
{
name = bottom;
position = "{291, 0}";
},
{
name = top;
position = "{307, 645}";
}
);
associatedMasterId = "7C8D72FA-6E62-4564-8BB2-D9F9BC4EB15A";
layerId = "297B9158-4541-48B2-A41E-57E553896057";
name = "Jan 7 19, 14:40";
paths = (
{
closed = 1;
nodes = (
"387 -10 OFFCURVE",
"461 39 OFFCURVE",
"496 127 CURVE SMOOTH",
"501 140 LINE",
"480 152 LINE",
"470 138 LINE SMOOTH",
"435 90 OFFCURVE",
"381 66 OFFCURVE",
"321 66 CURVE SMOOTH",
"214 66 OFFCURVE",
"154 143 OFFCURVE",
"154 277 CURVE SMOOTH",
"154 414 OFFCURVE",
"213 500 OFFCURVE",
"315 500 CURVE SMOOTH",
"361 500 OFFCURVE",
"379 483 OFFCURVE",
"386 421 CURVE SMOOTH",
"391 380 OFFCURVE",
"409 358 OFFCURVE",
"446 358 CURVE SMOOTH",
"476 358 OFFCURVE",
"494 381 OFFCURVE",
"494 416 CURVE SMOOTH",
"494 480 OFFCURVE",
"415 535 OFFCURVE",
"312 535 CURVE SMOOTH",
"155 535 OFFCURVE",
"45 418 OFFCURVE",
"45 255 CURVE SMOOTH",
"45 99 OFFCURVE",
"146 -10 OFFCURVE",
"289 -10 CURVE SMOOTH"
);
}
);
width = 535;
},
{
anchors = (
{
name = bottom;
position = "{291, 0}";
},
{
name = top;
position = "{307, 645}";
}
);
associatedMasterId = "7C8D72FA-6E62-4564-8BB2-D9F9BC4EB15A";
layerId = "C8A78D21-83DD-4FB8-94F0-B9B1DAA82189";
name = "Jan 23 19, 15:28";
paths = (
{
closed = 1;
nodes = (
"392 -10 OFFCURVE",
"465 41 OFFCURVE",
"501 140 CURVE",
"480 152 LINE",
"441 94 OFFCURVE",
"389 66 OFFCURVE",
"321 66 CURVE SMOOTH",
"214 66 OFFCURVE",
"154 143 OFFCURVE",
"154 277 CURVE SMOOTH",
"154 414 OFFCURVE",
"213 500 OFFCURVE",
"315 500 CURVE SMOOTH",
"361 500 OFFCURVE",
"379 483 OFFCURVE",
"386 421 CURVE SMOOTH",
"391 380 OFFCURVE",
"409 358 OFFCURVE",
"446 358 CURVE SMOOTH",
"476 358 OFFCURVE",
"494 381 OFFCURVE",
"494 416 CURVE SMOOTH",
"494 480 OFFCURVE",
"415 535 OFFCURVE",
"312 535 CURVE SMOOTH",
"155 535 OFFCURVE",
"45 418 OFFCURVE",
"45 255 CURVE SMOOTH",
"45 99 OFFCURVE",
"146 -10 OFFCURVE",
"289 -10 CURVE SMOOTH"
);
}
);
visible = 1;
width = 535;
},
{
anchors = (
{
name = bottom;
position = "{311, 0}";
},
{
name = top;
position = "{322, 645}";
}
);
associatedMasterId = "FA6D65B5-4623-4FAC-A199-3F662257AC29";
layerId = "56C6FCA9-1083-40D9-A145-AA43492AA204";
name = "Jan 23 19, 15:28";
paths = (
{
closed = 1;
nodes = (
"416 -10 OFFCURVE",
"490 39 OFFCURVE",
"531 144 CURVE",
"503 165 LINE",
"461 115 OFFCURVE",
"414 92 OFFCURVE",
"349 92 CURVE SMOOTH",
"252 92 OFFCURVE",
"202 159 OFFCURVE",
"202 286 CURVE SMOOTH",
"202 412 OFFCURVE",
"251 483 OFFCURVE",
"334 483 CURVE SMOOTH",
"387 483 OFFCURVE",
"400 448 OFFCURVE",
"406 401 CURVE SMOOTH",
"410 372 OFFCURVE",
"422 336 OFFCURVE",
"471 336 CURVE SMOOTH",
"512 336 OFFCURVE",
"538 362 OFFCURVE",
"538 403 CURVE SMOOTH",
"538 478 OFFCURVE",
"448 535 OFFCURVE",
"328 535 CURVE SMOOTH",
"157 535 OFFCURVE",
"36 418 OFFCURVE",
"36 255 CURVE SMOOTH",
"36 102 OFFCURVE",
"146 -10 OFFCURVE",
"302 -10 CURVE SMOOTH"
);
}
);
width = 565;
}
);
leftKerningGroup = e;
rightKerningGroup = c;
unicode = 0063;
},
{
glyphname = d;
layers = (
{
anchors = (
{
name = bottom;
position = "{252, 0}";
}
);
layerId = "FA6D65B5-4623-4FAC-A199-3F662257AC29";
paths = (
{
closed = 1;
nodes = (
"327 -10 OFFCURVE",
"384 13 OFFCURVE",
"425 53 CURVE",
"430 51 LINE",
"430 -10 LINE",
"448 -10 LINE",
"654 52 LINE",
"654 72 LINE",
"575 97 LINE",
"575 822 LINE",
"554 822 LINE",
"338 773 LINE",
"338 750 LINE",
"422 723 LINE",
"422 510 LINE",
"384 526 OFFCURVE",
"345 535 OFFCURVE",
"307 535 CURVE SMOOTH",
"148 535 OFFCURVE",
"37 420 OFFCURVE",
"37 254 CURVE SMOOTH",
"37 102 OFFCURVE",
"136 -10 OFFCURVE",
"262 -10 CURVE SMOOTH"
);
},
{
closed = 1;
nodes = (
"250 61 OFFCURVE",
"206 142 OFFCURVE",
"206 270 CURVE SMOOTH",
"206 396 OFFCURVE",
"254 481 OFFCURVE",
"327 481 CURVE SMOOTH",
"384 481 OFFCURVE",
"422 431 OFFCURVE",
"422 358 CURVE SMOOTH",
"422 113 LINE",
"398 81 OFFCURVE",
"365 61 OFFCURVE",
"326 61 CURVE SMOOTH"
);
}
);
width = 667;
},
{
anchors = (
{
name = bottom;
position = "{252, 0}";
}
);
associatedMasterId = "FA6D65B5-4623-4FAC-A199-3F662257AC29";
layerId = "CBD44848-52BD-4DC5-BFA6-577546B7224D";
paths = (
{
closed = 1;
nodes = (
"317 -10 OFFCURVE",
"375 19 OFFCURVE",
"417 77 CURVE",
"421 76 LINE",
"421 -10 LINE",
"427 -10 LINE",
"574 52 LINE",
"574 62 LINE",
"507 77 LINE",
"507 822 LINE",
"497 822 LINE",
"342 773 LINE",
"342 760 LINE",
"414 732 LINE",
"414 520 LINE",
"379 530 OFFCURVE",
"342 535 OFFCURVE",
"307 535 CURVE SMOOTH",
"153 535 OFFCURVE",
"47 420 OFFCURVE",
"47 254 CURVE SMOOTH",
"47 102 OFFCURVE",
"134 -10 OFFCURVE",
"252 -10 CURVE SMOOTH"
);
},
{
closed = 1;
nodes = (
"204 55 OFFCURVE",
"151 137 OFFCURVE",
"151 270 CURVE SMOOTH",
"151 412 OFFCURVE",
"213 505 OFFCURVE",
"305 505 CURVE SMOOTH",
"376 505 OFFCURVE",
"414 468 OFFCURVE",
"414 396 CURVE SMOOTH",
"414 113 LINE",
"391 77 OFFCURVE",
"345 55 OFFCURVE",
"293 55 CURVE SMOOTH"
);
}
);
width = 601;
},
{
anchors = (
{
name = bottom;
position = "{252, 0}";
}
);
layerId = "7C8D72FA-6E62-4564-8BB2-D9F9BC4EB15A";
paths = (
{
closed = 1;
nodes = (
"318 -10 OFFCURVE",
"376 18 OFFCURVE",
"418 74 CURVE",
"422 72 LINE",
"422 -10 LINE",
"430 -10 LINE",
"585 52 LINE",
"585 64 LINE",
"516 80 LINE",
"516 822 LINE",
"505 822 LINE",
"341 773 LINE",
"341 759 LINE",
"415 731 LINE",
"415 518 LINE",
"380 529 OFFCURVE",
"342 535 OFFCURVE",
"307 535 CURVE SMOOTH",
"152 535 OFFCURVE",
"46 420 OFFCURVE",
"46 254 CURVE SMOOTH",
"46 102 OFFCURVE",
"135 -10 OFFCURVE",
"253 -10 CURVE SMOOTH"
);
},
{
closed = 1;
nodes = (
"210 56 OFFCURVE",
"158 138 OFFCURVE",
"158 270 CURVE SMOOTH",
"158 410 OFFCURVE",
"218 502 OFFCURVE",
"308 502 CURVE SMOOTH",
"377 502 OFFCURVE",
"415 463 OFFCURVE",
"415 391 CURVE SMOOTH",
"415 113 LINE",
"392 78 OFFCURVE",
"347 56 OFFCURVE",
"297 56 CURVE SMOOTH"
);
}
);
width = 609;
}
);
leftKerningGroup = d;
rightKerningGroup = d;
unicode = 0064;
},
{
glyphname = eth;
layers = (
{
layerId = "FA6D65B5-4623-4FAC-A199-3F662257AC29";
paths = (
{
closed = 1;
nodes = (
"431 -10 OFFCURVE",
"554 98 OFFCURVE",
"554 290 CURVE SMOOTH",
"554 513 OFFCURVE",
"415 687 OFFCURVE",
"160 772 CURVE",
"128 723 LINE",
"275 646 OFFCURVE",
"357 540 OFFCURVE",
"377 416 CURVE",
"353 448 OFFCURVE",
"309 468 OFFCURVE",
"254 468 CURVE SMOOTH",
"128 468 OFFCURVE",
"36 369 OFFCURVE",
"36 233 CURVE SMOOTH",
"36 89 OFFCURVE",
"142 -10 OFFCURVE",
"284 -10 CURVE SMOOTH {name = hr00;}"
);
},
{
closed = 1;
nodes = (
"233 50 OFFCURVE",
"198 114 OFFCURVE",
"198 217 CURVE SMOOTH",
"198 324 OFFCURVE",
"237 393 OFFCURVE",
"298 393 CURVE SMOOTH",
"332 393 OFFCURVE",
"362 373 OFFCURVE",
"379 340 CURVE",
"387 310 OFFCURVE",
"391 273 OFFCURVE",
"391 236 CURVE SMOOTH",
"391 121 OFFCURVE",
"353 50 OFFCURVE",
"291 50 CURVE SMOOTH"
);
},
{
closed = 1;
nodes = (
"478 706 LINE",
"435 766 LINE",
"155 569 LINE",
"197 508 LINE"
);
}
);
width = 601;
},
{
associatedMasterId = "FA6D65B5-4623-4FAC-A199-3F662257AC29";
layerId = "CBD44848-52BD-4DC5-BFA6-577546B7224D";
paths = (
{
closed = 1;
nodes = (
"431 -10 OFFCURVE",
"536 107 OFFCURVE",
"536 276 CURVE SMOOTH",
"536 488 OFFCURVE",
"380 692 OFFCURVE",
"157 772 CURVE",
"140 737 LINE",
"266 677 OFFCURVE",
"393 522 OFFCURVE",
"411 408 CURVE",
"385 437 OFFCURVE",
"322 460 OFFCURVE",
"267 460 CURVE SMOOTH",
"146 460 OFFCURVE",
"47 354 OFFCURVE",
"47 225 CURVE SMOOTH",
"47 89 OFFCURVE",
"146 -10 OFFCURVE",
"281 -10 CURVE SMOOTH {name = hr00;}"
);
},
{
closed = 1;
nodes = (
"211 35 OFFCURVE",
"165 102 OFFCURVE",
"165 209 CURVE SMOOTH",
"165 324 OFFCURVE",
"222 403 OFFCURVE",
"304 403 CURVE SMOOTH",
"346 403 OFFCURVE",
"389 382 OFFCURVE",
"413 349 CURVE",
"420 320 OFFCURVE",
"425 275 OFFCURVE",
"425 241 CURVE SMOOTH",
"425 122 OFFCURVE",
"365 35 OFFCURVE",
"282 35 CURVE SMOOTH"
);
},
{
closed = 1;
nodes = (
"438 715 LINE",
"408 761 LINE",
"154 596 LINE",
"182 551 LINE"
);
}
);
width = 584;
},
{
layerId = "7C8D72FA-6E62-4564-8BB2-D9F9BC4EB15A";
paths = (
{
closed = 1;
nodes = (
"431 -10 OFFCURVE",
"538 106 OFFCURVE",
"538 278 CURVE SMOOTH",
"538 491 OFFCURVE",
"385 691 OFFCURVE",
"158 772 CURVE",
"138 735 LINE",
"267 673 OFFCURVE",
"388 525 OFFCURVE",
"406 409 CURVE",
"381 438 OFFCURVE",
"320 461 OFFCURVE",
"266 461 CURVE SMOOTH",
"144 461 OFFCURVE",
"46 356 OFFCURVE",
"46 227 CURVE SMOOTH",
"46 89 OFFCURVE",
"145 -10 OFFCURVE",
"282 -10 CURVE SMOOTH {name = hr00;}"
);
},
{
closed = 1;
nodes = (
"214 37 OFFCURVE",
"170 103 OFFCURVE",
"170 210 CURVE SMOOTH",
"170 324 OFFCURVE",
"224 402 OFFCURVE",
"303 402 CURVE SMOOTH",
"343 402 OFFCURVE",
"386 381 OFFCURVE",
"408 348 CURVE",
"415 318 OFFCURVE",
"420 274 OFFCURVE",
"420 240 CURVE SMOOTH",
"420 122 OFFCURVE",
"363 37 OFFCURVE",
"284 37 CURVE SMOOTH"
);
},
{
closed = 1;
nodes = (
"443 714 LINE",
"411 761 LINE",
"154 593 LINE",
"184 545 LINE"
);
}
);
width = 586;
}
);
leftKerningGroup = o;
unicode = 00F0;
},
{
glyphname = dcroat;
layers = (
{
components = (
{
name = d;
}
);
layerId = "FA6D65B5-4623-4FAC-A199-3F662257AC29";
paths = (
{
closed = 1;
nodes = (
"654 593 LINE",
"654 677 LINE",
"310 677 LINE",
"310 593 LINE"
);
}
);
width = 667;
},
{
associatedMasterId = "FA6D65B5-4623-4FAC-A199-3F662257AC29";
components = (
{
name = d;
}
);
layerId = "CBD44848-52BD-4DC5-BFA6-577546B7224D";
paths = (
{
closed = 1;
nodes = (
"575 603 LINE",
"575 667 LINE",
"271 667 LINE",
"271 603 LINE"
);
}
);
width = 601;
},
{
components = (
{
alignment = -1;
name = d;
}
);
layerId = "7C8D72FA-6E62-4564-8BB2-D9F9BC4EB15A";
paths = (
{
closed = 1;
nodes = (
"586 602 LINE",
"586 669 LINE",
"277 669 LINE",
"277 602 LINE"
);
}
);
width = 609;
}
);
leftKerningGroup = d;
rightKerningGroup = d;
unicode = 0111;
},
{
glyphname = e;
layers = (
{
anchors = (
{
name = bottom;
position = "{295, 0}";
},
{
name = ogonekcurve;
position = "{472, 39}";
},
{
name = top;
position = "{318, 645}";
}
);
layerId = "FA6D65B5-4623-4FAC-A199-3F662257AC29";
paths = (
{
closed = 1;
nodes = (
"426 -10 OFFCURVE",
"516 46 OFFCURVE",
"551 142 CURVE",
"524 165 LINE",
"484 118 OFFCURVE",
"425 92 OFFCURVE",
"355 92 CURVE SMOOTH",
"252 92 OFFCURVE",
"201 157 OFFCURVE",
"201 292 CURVE SMOOTH",
"201 415 OFFCURVE",
"243 484 OFFCURVE",
"320 484 CURVE SMOOTH",
"377 484 OFFCURVE",
"408 448 OFFCURVE",
"408 379 CURVE SMOOTH",
"408 362 OFFCURVE",
"406 348 OFFCURVE",
"404 342 CURVE",
"128 332 LINE",
"128 287 LINE",
"560 287 LINE",
"568 293 LINE",
"563 452 OFFCURVE",
"483 535 OFFCURVE",
"332 535 CURVE SMOOTH",
"156 535 OFFCURVE",
"36 421 OFFCURVE",
"36 254 CURVE SMOOTH",
"36 97 OFFCURVE",
"144 -10 OFFCURVE",
"308 -10 CURVE SMOOTH"
);
}
);
width = 598;
},
{
anchors = (
{
name = bottom;
position = "{285, 0}";
},
{
name = top;
position = "{308, 645}";
}
);
associatedMasterId = "FA6D65B5-4623-4FAC-A199-3F662257AC29";
layerId = "CBD44848-52BD-4DC5-BFA6-577546B7224D";
paths = (
{
closed = 1;
nodes = (
"381 -10 OFFCURVE",
"463 39 OFFCURVE",
"497 120 CURVE SMOOTH",
"503 134 LINE",
"486 144 LINE",
"474 129 LINE SMOOTH",
"440 87 OFFCURVE",
"381 62 OFFCURVE",
"317 62 CURVE SMOOTH",
"204 62 OFFCURVE",
"146 138 OFFCURVE",
"146 282 CURVE SMOOTH",
"146 423 OFFCURVE",
"202 504 OFFCURVE",
"302 504 CURVE SMOOTH",
"373 504 OFFCURVE",
"410 464 OFFCURVE",
"410 382 CURVE SMOOTH",
"410 366 OFFCURVE",
"409 349 OFFCURVE",
"407 342 CURVE",
"126 332 LINE",
"126 305 LINE",
"507 305 LINE",
"514 311 LINE",
"511 457 OFFCURVE",
"441 535 OFFCURVE",
"311 535 CURVE SMOOTH",
"154 535 OFFCURVE",
"47 421 OFFCURVE",
"47 254 CURVE SMOOTH",
"47 97 OFFCURVE",
"142 -10 OFFCURVE",
"284 -10 CURVE SMOOTH"
);
}
);
width = 555;
},
{
anchors = (
{
name = bottom;
position = "{286, 0}";
},
{
name = ogonekcurve;
position = "{438, 39}";
},
{
name = top;
position = "{309, 645}";
}
);
layerId = "7C8D72FA-6E62-4564-8BB2-D9F9BC4EB15A";
paths = (
{
closed = 1;
nodes = (
"393 -10 OFFCURVE",
"474 43 OFFCURVE",
"509 135 CURVE",
"491 146 LINE",
"453 94 OFFCURVE",
"393 66 OFFCURVE",
"322 66 CURVE SMOOTH",
"210 66 OFFCURVE",
"153 141 OFFCURVE",
"153 284 CURVE SMOOTH",
"153 422 OFFCURVE",
"208 501 OFFCURVE",
"304 501 CURVE SMOOTH",
"374 501 OFFCURVE",
"410 461 OFFCURVE",
"410 381 CURVE SMOOTH",
"410 366 OFFCURVE",
"408 349 OFFCURVE",
"406 342 CURVE",
"126 332 LINE",
"126 303 LINE",
"514 303 LINE",
"521 309 LINE",
"518 457 OFFCURVE",
"446 535 OFFCURVE",
"314 535 CURVE SMOOTH",
"154 535 OFFCURVE",
"45 421 OFFCURVE",
"45 254 CURVE SMOOTH",
"45 97 OFFCURVE",
"142 -10 OFFCURVE",
"288 -10 CURVE SMOOTH"
);
}
);
width = 560;
},
{
anchors = (
{
name = bottom;
position = "{295, 0}";
},
{
name = top;
position = "{318, 645}";
}
);
associatedMasterId = "FA6D65B5-4623-4FAC-A199-3F662257AC29";
layerId = "8C02BBE7-42F6-4BE5-BB27-BFB8EC1741EF";
name = "Jan 7 19, 14:40";
paths = (
{
closed = 1;
nodes = (
"416 -10 OFFCURVE",
"510 41 OFFCURVE",
"547 130 CURVE SMOOTH",
"551 142 LINE",
"524 165 LINE",
"517 157 LINE SMOOTH",
"478 114 OFFCURVE",
"413 92 OFFCURVE",
"355 92 CURVE SMOOTH",
"252 92 OFFCURVE",
"201 157 OFFCURVE",
"201 292 CURVE SMOOTH",
"201 415 OFFCURVE",
"243 484 OFFCURVE",
"320 484 CURVE SMOOTH",
"377 484 OFFCURVE",
"408 448 OFFCURVE",
"408 379 CURVE SMOOTH",
"408 362 OFFCURVE",
"406 348 OFFCURVE",
"404 342 CURVE",
"128 332 LINE",
"128 287 LINE",
"560 287 LINE",
"568 293 LINE",
"563 452 OFFCURVE",
"483 535 OFFCURVE",
"332 535 CURVE SMOOTH",
"156 535 OFFCURVE",
"36 421 OFFCURVE",
"36 254 CURVE SMOOTH",
"36 97 OFFCURVE",
"144 -10 OFFCURVE",
"308 -10 CURVE SMOOTH"
);
}
);
visible = 1;
width = 598;
},
{
anchors = (
{
name = bottom;
position = "{286, 0}";
},
{
name = top;
position = "{309, 645}";
}
);
associatedMasterId = "7C8D72FA-6E62-4564-8BB2-D9F9BC4EB15A";
layerId = "CA178C85-2D92-48A3-9F7E-0674D9E4867A";
name = "Jan 7 19, 14:40";
paths = (
{
closed = 1;
nodes = (
"386 -10 OFFCURVE",
"469 40 OFFCURVE",
"504 121 CURVE SMOOTH",
"509 135 LINE",
"491 146 LINE",
"480 133 LINE SMOOTH",
"445 91 OFFCURVE",
"385 66 OFFCURVE",
"322 66 CURVE SMOOTH",
"210 66 OFFCURVE",
"153 141 OFFCURVE",
"153 284 CURVE SMOOTH",
"153 422 OFFCURVE",
"208 501 OFFCURVE",
"304 501 CURVE SMOOTH",
"374 501 OFFCURVE",
"410 461 OFFCURVE",
"410 381 CURVE SMOOTH",
"410 366 OFFCURVE",
"408 349 OFFCURVE",
"406 342 CURVE",
"126 332 LINE",
"126 303 LINE",
"514 303 LINE",
"521 309 LINE",
"518 457 OFFCURVE",
"446 535 OFFCURVE",
"314 535 CURVE SMOOTH",
"154 535 OFFCURVE",
"45 421 OFFCURVE",
"45 254 CURVE SMOOTH",
"45 97 OFFCURVE",
"142 -10 OFFCURVE",
"288 -10 CURVE SMOOTH"
);
}
);
width = 560;
}
);
leftKerningGroup = e;
rightKerningGroup = e;
unicode = 0065;
},
{
glyphname = schwa;
layers = (
{
layerId = "FA6D65B5-4623-4FAC-A199-3F662257AC29";
paths = (
{
closed = 1;
nodes = (
"171 535 OFFCURVE",
"81 479 OFFCURVE",
"46 383 CURVE",
"73 359 LINE",
"113 406 OFFCURVE",
"172 432 OFFCURVE",
"241 432 CURVE SMOOTH",
"345 432 OFFCURVE",
"396 367 OFFCURVE",
"396 232 CURVE SMOOTH",
"396 110 OFFCURVE",
"354 40 OFFCURVE",
"277 40 CURVE SMOOTH",
"220 40 OFFCURVE",
"189 77 OFFCURVE",
"189 145 CURVE SMOOTH",
"189 162 OFFCURVE",
"191 176 OFFCURVE",
"193 183 CURVE",
"469 193 LINE",
"469 237 LINE",
"37 237 LINE",
"29 231 LINE",
"34 73 OFFCURVE",
"114 -10 OFFCURVE",
"265 -10 CURVE SMOOTH",
"441 -10 OFFCURVE",
"561 104 OFFCURVE",
"561 270 CURVE SMOOTH",
"561 427 OFFCURVE",
"453 535 OFFCURVE",
"289 535 CURVE SMOOTH"
);
}
);
width = 597;
},
{
associatedMasterId = "FA6D65B5-4623-4FAC-A199-3F662257AC29";
layerId = "CBD44848-52BD-4DC5-BFA6-577546B7224D";
paths = (
{
closed = 1;
nodes = (
"401 -10 OFFCURVE",
"508 104 OFFCURVE",
"508 270 CURVE SMOOTH",
"508 427 OFFCURVE",
"412 535 OFFCURVE",
"270 535 CURVE SMOOTH",
"174 535 OFFCURVE",
"92 485 OFFCURVE",
"58 405 CURVE SMOOTH",
"52 391 LINE",
"68 381 LINE",
"81 396 LINE SMOOTH",
"115 438 OFFCURVE",
"174 463 OFFCURVE",
"237 463 CURVE SMOOTH",
"350 463 OFFCURVE",
"409 387 OFFCURVE",
"409 243 CURVE SMOOTH",
"409 102 OFFCURVE",
"353 21 OFFCURVE",
"252 21 CURVE SMOOTH",
"181 21 OFFCURVE",
"145 61 OFFCURVE",
"145 142 CURVE SMOOTH",
"145 159 OFFCURVE",
"146 176 OFFCURVE",
"148 183 CURVE",
"429 193 LINE",
"429 220 LINE",
"47 220 LINE",
"41 214 LINE",
"43 68 OFFCURVE",
"114 -10 OFFCURVE",
"244 -10 CURVE SMOOTH"
);
}
);
width = 555;
},
{
layerId = "7C8D72FA-6E62-4564-8BB2-D9F9BC4EB15A";
paths = (
{
closed = 1;
nodes = (
"167 535 OFFCURVE",
"86 482 OFFCURVE",
"51 389 CURVE",
"69 378 LINE",
"107 430 OFFCURVE",
"167 458 OFFCURVE",
"238 458 CURVE SMOOTH",
"350 458 OFFCURVE",
"407 384 OFFCURVE",
"407 241 CURVE SMOOTH",
"407 102 OFFCURVE",
"353 23 OFFCURVE",
"256 23 CURVE SMOOTH",
"186 23 OFFCURVE",
"151 63 OFFCURVE",
"151 143 CURVE SMOOTH",
"151 159 OFFCURVE",
"152 175 OFFCURVE",
"154 183 CURVE",
"434 193 LINE",
"434 222 LINE",
"46 222 LINE",
"39 216 LINE",
"42 68 OFFCURVE",
"114 -10 OFFCURVE",
"246 -10 CURVE SMOOTH",
"406 -10 OFFCURVE",
"515 104 OFFCURVE",
"515 270 CURVE SMOOTH",
"515 427 OFFCURVE",
"418 535 OFFCURVE",
"273 535 CURVE SMOOTH"
);
}
);
width = 560;
}
);
rightKerningGroup = o;
unicode = 0259;
},
{
glyphname = f;
layers = (
{
layerId = "FA6D65B5-4623-4FAC-A199-3F662257AC29";
paths = (
{
closed = 1;
nodes = (
"396 0 LINE",
"396 35 LINE",
"274 55 LINE",
"274 579 LINE SMOOTH",
"274 646 OFFCURVE",
"275 695 OFFCURVE",
"286 726 CURVE SMOOTH",
"297 757 OFFCURVE",
"323 771 OFFCURVE",
"351 771 CURVE SMOOTH",
"382 771 OFFCURVE",
"396 757 OFFCURVE",
"406 720 CURVE SMOOTH",
"416 681 OFFCURVE",
"441 659 OFFCURVE",
"475 659 CURVE SMOOTH",
"516 659 OFFCURVE",
"544 686 OFFCURVE",
"544 725 CURVE SMOOTH",
"544 783 OFFCURVE",
"474 822 OFFCURVE",
"370 822 CURVE SMOOTH",
"261 822 OFFCURVE",
"169 772 OFFCURVE",
"138 696 CURVE SMOOTH",
"123 664 OFFCURVE",
"121 630 OFFCURVE",
"121 511 CURVE SMOOTH",
"121 55 LINE",
"37 35 LINE",
"37 0 LINE"
);
},
{
closed = 1;
nodes = (
"394 478 LINE",
"408 525 LINE",
"34 525 LINE",
"20 478 LINE"
);
}
);
width = 418;
},
{
associatedMasterId = "FA6D65B5-4623-4FAC-A199-3F662257AC29";
layerId = "CBD44848-52BD-4DC5-BFA6-577546B7224D";
paths = (
{
closed = 1;
nodes = (
"309 0 LINE",
"309 19 LINE",
"204 34 LINE",
"204 579 LINE SMOOTH",
"204 664 OFFCURVE",
"211 712 OFFCURVE",
"225 742 CURVE SMOOTH",
"241 778 OFFCURVE",
"269 791 OFFCURVE",
"298 791 CURVE SMOOTH",
"330 791 OFFCURVE",
"341 775 OFFCURVE",
"348 740 CURVE SMOOTH",
"353 715 OFFCURVE",
"364 689 OFFCURVE",
"396 689 CURVE SMOOTH",
"425 689 OFFCURVE",
"444 708 OFFCURVE",
"444 737 CURVE SMOOTH",
"444 786 OFFCURVE",
"388 822 OFFCURVE",
"317 822 CURVE SMOOTH",
"233 822 OFFCURVE",
"152 773 OFFCURVE",
"125 700 CURVE SMOOTH",
"112 664 OFFCURVE",
"110 616 OFFCURVE",
"110 511 CURVE SMOOTH",
"110 34 LINE",
"36 19 LINE",
"36 0 LINE"
);
},
{
closed = 1;
nodes = (
"320 493 LINE",
"332 525 LINE",
"35 525 LINE",
"23 493 LINE"
);
}
);
width = 348;
},
{
layerId = "7C8D72FA-6E62-4564-8BB2-D9F9BC4EB15A";
paths = (
{
closed = 1;
nodes = (
"320 0 LINE",
"320 21 LINE",
"213 37 LINE",
"213 579 LINE SMOOTH",
"213 662 OFFCURVE",
"219 710 OFFCURVE",
"232 740 CURVE SMOOTH",
"248 775 OFFCURVE",
"275 788 OFFCURVE",
"305 788 CURVE SMOOTH",
"336 788 OFFCURVE",
"347 773 OFFCURVE",
"355 737 CURVE SMOOTH",
"361 710 OFFCURVE",
"373 685 OFFCURVE",
"406 685 CURVE SMOOTH",
"436 685 OFFCURVE",
"457 706 OFFCURVE",
"457 735 CURVE SMOOTH",
"457 786 OFFCURVE",
"399 822 OFFCURVE",
"323 822 CURVE SMOOTH",
"236 822 OFFCURVE",
"153 773 OFFCURVE",
"126 699 CURVE SMOOTH",
"113 664 OFFCURVE",
"111 618 OFFCURVE",
"111 511 CURVE SMOOTH",
"111 37 LINE",
"35 21 LINE",
"35 0 LINE"
);
},
{
closed = 1;
nodes = (
"329 491 LINE",
"341 525 LINE",
"34 525 LINE",
"22 491 LINE"
);
}
);
width = 357;
}
);
leftKerningGroup = f;
rightKerningGroup = f;
unicode = 0066;
},
{
glyphname = g;
layers = (
{
anchors = (
{
name = top;
position = "{286, 645}";
}
);
layerId = "FA6D65B5-4623-4FAC-A199-3F662257AC29";
paths = (
{
closed = 1;
nodes = (
"436 476 LINE",
"441 503 OFFCURVE",
"449 527 OFFCURVE",
"474 527 CURVE SMOOTH",
"499 527 OFFCURVE",
"505 501 OFFCURVE",
"538 501 CURVE SMOOTH",
"574 501 OFFCURVE",
"593 530 OFFCURVE",
"593 559 CURVE SMOOTH",
"593 595 OFFCURVE",
"563 617 OFFCURVE",
"522 617 CURVE SMOOTH",
"457 617 OFFCURVE",
"422 553 OFFCURVE",
"402 498 CURVE"
);
},
{
closed = 1;
nodes = (
"223 208 OFFCURVE",
"211 289 OFFCURVE",
"211 342 CURVE SMOOTH",
"211 399 OFFCURVE",
"225 492 OFFCURVE",
"283 492 CURVE SMOOTH",
"339 492 OFFCURVE",
"349 407 OFFCURVE",
"349 354 CURVE SMOOTH",
"349 290 OFFCURVE",
"334 208 OFFCURVE",
"278 208 CURVE SMOOTH"
);
},
{
closed = 1;
nodes = (
"211 187 LINE",
"108 175 OFFCURVE",
"57 130 OFFCURVE",
"57 74 CURVE SMOOTH",
"57 19 OFFCURVE",
"99 -19 OFFCURVE",
"218 -41 CURVE SMOOTH",
"300 -57 LINE SMOOTH",
"410 -77 OFFCURVE",
"440 -99 OFFCURVE",
"440 -134 CURVE SMOOTH",
"440 -189 OFFCURVE",
"341 -211 OFFCURVE",
"265 -211 CURVE SMOOTH",
"191 -211 OFFCURVE",
"121 -183 OFFCURVE",
"121 -119 CURVE SMOOTH",
"121 -81 OFFCURVE",
"141 -42 OFFCURVE",
"175 -20 CURVE",
"133 -3 LINE",
"35 -41 OFFCURVE",
"-3 -82 OFFCURVE",
"-3 -133 CURVE SMOOTH",
"-3 -227 OFFCURVE",
"121 -262 OFFCURVE",
"237 -262 CURVE SMOOTH",
"389 -262 OFFCURVE",
"552 -217 OFFCURVE",
"552 -81 CURVE SMOOTH",
"552 -4 OFFCURVE",
"497 41 OFFCURVE",
"378 61 CURVE SMOOTH",
"306 74 LINE SMOOTH",
"208 91 OFFCURVE",
"180 102 OFFCURVE",
"180 126 CURVE SMOOTH",
"180 147 OFFCURVE",
"201 164 OFFCURVE",
"278 164 CURVE"
);
},
{
closed = 1;
nodes = (
"160 164 OFFCURVE",
"278 164 CURVE SMOOTH",
"415 164 OFFCURVE",
"506 260 OFFCURVE",
"506 352 CURVE SMOOTH",
"506 461 OFFCURVE",
"399 535 OFFCURVE",
"277 535 CURVE SMOOTH",
"150 535 OFFCURVE",
"54 456 OFFCURVE",
"54 350 CURVE SMOOTH",
"54 233 OFFCURVE"
);
}
);
width = 579;
},
{
anchors = (
{
name = top;
position = "{256, 645}";
}
);
associatedMasterId = "FA6D65B5-4623-4FAC-A199-3F662257AC29";
layerId = "CBD44848-52BD-4DC5-BFA6-577546B7224D";
paths = (
{
closed = 1;
nodes = (
"288 -257 OFFCURVE",
"374 -238 OFFCURVE",
"430 -194 CURVE SMOOTH",
"463 -167 OFFCURVE",
"484 -132 OFFCURVE",
"484 -81 CURVE SMOOTH",
"484 -36 OFFCURVE",
"468 21 OFFCURVE",
"358 46 CURVE SMOOTH",
"290 61 OFFCURVE",
"146 73 OFFCURVE",
"146 128 CURVE SMOOTH",
"146 161 OFFCURVE",
"202 186 OFFCURVE",
"252 190 CURVE SMOOTH",
"369 199 OFFCURVE",
"449 278 OFFCURVE",
"449 365 CURVE SMOOTH",
"449 412 OFFCURVE",
"427 457 OFFCURVE",
"388 489 CURVE",
"395 516 OFFCURVE",
"410 540 OFFCURVE",
"426 540 CURVE SMOOTH",
"450 540 OFFCURVE",
"448 514 OFFCURVE",
"476 514 CURVE SMOOTH",
"502 514 OFFCURVE",
"522 534 OFFCURVE",
"522 560 CURVE SMOOTH",
"522 591 OFFCURVE",
"495 610 OFFCURVE",
"465 610 CURVE SMOOTH",
"414 610 OFFCURVE",
"383 551 OFFCURVE",
"368 503 CURVE",
"336 522 OFFCURVE",
"296 535 OFFCURVE",
"252 535 CURVE SMOOTH",
"142 535 OFFCURVE",
"60 464 OFFCURVE",
"60 365 CURVE SMOOTH",
"60 283 OFFCURVE",
"117 224 OFFCURVE",
"193 203 CURVE",
"84 168 OFFCURVE",
"62 117 OFFCURVE",
"62 85 CURVE SMOOTH",
"62 53 OFFCURVE",
"85 24 OFFCURVE",
"130 4 CURVE",
"39 -35 OFFCURVE",
"7 -75 OFFCURVE",
"7 -128 CURVE SMOOTH",
"7 -171 OFFCURVE",
"30 -202 OFFCURVE",
"64 -223 CURVE SMOOTH",
"108 -248 OFFCURVE",
"171 -257 OFFCURVE",
"218 -257 CURVE SMOOTH"
);
},
{
closed = 1;
nodes = (
"195 -225 OFFCURVE",
"159 -216 OFFCURVE",
"133 -199 CURVE SMOOTH",
"104 -180 OFFCURVE",
"87 -151 OFFCURVE",
"87 -115 CURVE SMOOTH",
"87 -70 OFFCURVE",
"116 -27 OFFCURVE",
"163 -6 CURVE",
"189 -14 OFFCURVE",
"224 -22 OFFCURVE",
"258 -29 CURVE SMOOTH",
"374 -52 OFFCURVE",
"408 -72 OFFCURVE",
"408 -118 CURVE SMOOTH",
"408 -157 OFFCURVE",
"385 -185 OFFCURVE",
"350 -202 CURVE SMOOTH",
"319 -217 OFFCURVE",
"276 -225 OFFCURVE",
"237 -225 CURVE SMOOTH"
);
},
{
closed = 1;
nodes = (
"178 222 OFFCURVE",
"161 304 OFFCURVE",
"161 357 CURVE SMOOTH",
"161 413 OFFCURVE",
"179 507 OFFCURVE",
"258 507 CURVE SMOOTH",
"334 507 OFFCURVE",
"349 421 OFFCURVE",
"349 368 CURVE SMOOTH",
"349 303 OFFCURVE",
"328 222 OFFCURVE",
"252 222 CURVE SMOOTH"
);
}
);
width = 509;
},
{
anchors = (
{
name = top;
position = "{268, 645}";
}
);
layerId = "7C8D72FA-6E62-4564-8BB2-D9F9BC4EB15A";
paths = (
{
closed = 1;
nodes = (
"393 480 LINE",
"399 509 OFFCURVE",
"415 537 OFFCURVE",
"433 537 CURVE SMOOTH",
"458 537 OFFCURVE",
"456 511 OFFCURVE",
"486 511 CURVE SMOOTH",
"512 511 OFFCURVE",
"533 532 OFFCURVE",
"533 559 CURVE SMOOTH",
"533 590 OFFCURVE",
"505 610 OFFCURVE",
"474 610 CURVE SMOOTH",
"417 610 OFFCURVE",
"384 546 OFFCURVE",
"367 498 CURVE"
);
},
{
closed = 1;
nodes = (
"184 201 OFFCURVE",
"168 289 OFFCURVE",
"168 346 CURVE SMOOTH",
"168 406 OFFCURVE",
"185 503 OFFCURVE",
"265 503 CURVE SMOOTH",
"342 503 OFFCURVE",
"357 413 OFFCURVE",
"357 356 CURVE SMOOTH",
"357 288 OFFCURVE",
"336 201 OFFCURVE",
"260 201 CURVE SMOOTH"
);
},
{
closed = 1;
nodes = (
"206 186 LINE",
"85 168 OFFCURVE",
"62 120 OFFCURVE",
"62 87 CURVE SMOOTH",
"62 37 OFFCURVE",
"105 1 OFFCURVE",
"193 -16 CURVE SMOOTH",
"275 -31 LINE SMOOTH",
"408 -56 OFFCURVE",
"434 -82 OFFCURVE",
"434 -119 CURVE SMOOTH",
"434 -191 OFFCURVE",
"337 -223 OFFCURVE",
"241 -223 CURVE SMOOTH",
"160 -223 OFFCURVE",
"91 -188 OFFCURVE",
"91 -115 CURVE SMOOTH",
"91 -68 OFFCURVE",
"122 -23 OFFCURVE",
"172 -4 CURVE",
"142 9 LINE",
"42 -31 OFFCURVE",
"6 -73 OFFCURVE",
"6 -128 CURVE SMOOTH",
"6 -221 OFFCURVE",
"115 -257 OFFCURVE",
"220 -257 CURVE SMOOTH",
"364 -257 OFFCURVE",
"516 -202 OFFCURVE",
"516 -80 CURVE SMOOTH",
"516 -7 OFFCURVE",
"462 35 OFFCURVE",
"346 53 CURVE SMOOTH",
"275 65 LINE SMOOTH",
"177 80 OFFCURVE",
"151 94 OFFCURVE",
"151 118 CURVE SMOOTH",
"151 152 OFFCURVE",
"190 168 OFFCURVE",
"260 168 CURVE"
);
},
{
closed = 1;
nodes = (
"143 168 OFFCURVE",
"260 168 CURVE SMOOTH",
"383 168 OFFCURVE",
"465 255 OFFCURVE",
"465 354 CURVE SMOOTH",
"465 459 OFFCURVE",
"375 535 OFFCURVE",
"262 535 CURVE SMOOTH",
"146 535 OFFCURVE",
"61 457 OFFCURVE",
"61 351 CURVE SMOOTH",
"61 241 OFFCURVE"
);
}
);
width = 528;
},
{
anchors = (
{
name = top;
position = "{286, 645}";
}
);
associatedMasterId = "FA6D65B5-4623-4FAC-A199-3F662257AC29";
layerId = "48B225CD-3B3F-445F-9150-FF09420DC2A9";
name = "Jan 7 19, 14:51";
paths = (
{
closed = 1;
nodes = (
"319 -256 OFFCURVE",
"420 -239 OFFCURVE",
"483 -195 CURVE SMOOTH",
"524 -166 OFFCURVE",
"545 -130 OFFCURVE",
"545 -76 CURVE SMOOTH",
"545 -27 OFFCURVE",
"526 37 OFFCURVE",
"396 66 CURVE SMOOTH",
"316 84 OFFCURVE",
"172 95 OFFCURVE",
"172 141 CURVE SMOOTH",
"172 163 OFFCURVE",
"205 185 OFFCURVE",
"282 193 CURVE SMOOTH",
"417 207 OFFCURVE",
"506 281 OFFCURVE",
"506 366 CURVE SMOOTH",
"506 411 OFFCURVE",
"481 455 OFFCURVE",
"439 485 CURVE",
"446 504 OFFCURVE",
"460 520 OFFCURVE",
"481 520 CURVE SMOOTH",
"507 520 OFFCURVE",
"512 494 OFFCURVE",
"545 494 CURVE SMOOTH",
"581 494 OFFCURVE",
"601 522 OFFCURVE",
"601 551 CURVE SMOOTH",
"601 588 OFFCURVE",
"570 610 OFFCURVE",
"530 610 CURVE SMOOTH",
"468 610 OFFCURVE",
"427 555 OFFCURVE",
"405 506 CURVE",
"369 524 OFFCURVE",
"326 535 OFFCURVE",
"277 535 CURVE SMOOTH",
"150 535 OFFCURVE",
"54 463 OFFCURVE",
"54 365 CURVE SMOOTH",
"54 282 OFFCURVE",
"122 223 OFFCURVE",
"209 203 CURVE",
"95 164 OFFCURVE",
"57 138 OFFCURVE",
"57 84 CURVE SMOOTH",
"57 39 OFFCURVE",
"83 15 OFFCURVE",
"120 -2 CURVE",
"32 -39 OFFCURVE",
"-3 -78 OFFCURVE",
"-3 -128 CURVE SMOOTH",
"-3 -174 OFFCURVE",
"27 -203 OFFCURVE",
"62 -221 CURVE SMOOTH",
"117 -250 OFFCURVE",
"187 -256 OFFCURVE",
"237 -256 CURVE SMOOTH"
);
},
{
closed = 1;
nodes = (
"224 -205 OFFCURVE",
"188 -198 OFFCURVE",
"161 -183 CURVE SMOOTH",
"131 -168 OFFCURVE",
"115 -146 OFFCURVE",
"115 -113 CURVE SMOOTH",
"115 -78 OFFCURVE",
"134 -42 OFFCURVE",
"167 -19 CURVE",
"211 -31 OFFCURVE",
"251 -39 OFFCURVE",
"300 -50 CURVE SMOOTH",
"404 -75 OFFCURVE",
"433 -90 OFFCURVE",
"433 -125 CURVE SMOOTH",
"433 -153 OFFCURVE",
"410 -172 OFFCURVE",
"380 -185 CURVE SMOOTH",
"345 -200 OFFCURVE",
"300 -205 OFFCURVE",
"265 -205 CURVE SMOOTH"
);
},
{
closed = 1;
nodes = (
"223 237 OFFCURVE",
"211 309 OFFCURVE",
"211 357 CURVE SMOOTH",
"211 408 OFFCURVE",
"225 492 OFFCURVE",
"283 492 CURVE SMOOTH",
"339 492 OFFCURVE",
"349 416 OFFCURVE",
"349 369 CURVE SMOOTH",
"349 311 OFFCURVE",
"334 237 OFFCURVE",
"278 237 CURVE SMOOTH"
);
}
);
width = 578;
},
{
anchors = (
{
name = top;
position = "{260, 645}";
}
);
associatedMasterId = "7C8D72FA-6E62-4564-8BB2-D9F9BC4EB15A";
layerId = "4FB85BBB-52BD-4086-BC03-117EC6318AF1";
name = "Jan 7 19, 14:53";
paths = (
{
closed = 1;
nodes = (
"292 -257 OFFCURVE",
"380 -238 OFFCURVE",
"437 -194 CURVE SMOOTH",
"471 -167 OFFCURVE",
"493 -131 OFFCURVE",
"493 -80 CURVE SMOOTH",
"493 -35 OFFCURVE",
"475 23 OFFCURVE",
"364 49 CURVE SMOOTH",
"294 65 OFFCURVE",
"149 76 OFFCURVE",
"149 130 CURVE SMOOTH",
"149 162 OFFCURVE",
"202 186 OFFCURVE",
"256 191 CURVE SMOOTH",
"376 201 OFFCURVE",
"457 279 OFFCURVE",
"457 365 CURVE SMOOTH",
"457 412 OFFCURVE",
"434 457 OFFCURVE",
"395 488 CURVE",
"402 514 OFFCURVE",
"417 537 OFFCURVE",
"433 537 CURVE SMOOTH",
"458 537 OFFCURVE",
"456 511 OFFCURVE",
"486 511 CURVE SMOOTH",
"512 511 OFFCURVE",
"533 532 OFFCURVE",
"533 559 CURVE SMOOTH",
"533 590 OFFCURVE",
"505 610 OFFCURVE",
"474 610 CURVE SMOOTH",
"421 610 OFFCURVE",
"389 551 OFFCURVE",
"372 503 CURVE",
"341 522 OFFCURVE",
"300 535 OFFCURVE",
"255 535 CURVE SMOOTH",
"144 535 OFFCURVE",
"59 463 OFFCURVE",
"59 365 CURVE SMOOTH",
"59 283 OFFCURVE",
"118 224 OFFCURVE",
"195 203 CURVE",
"86 168 OFFCURVE",
"62 120 OFFCURVE",
"62 85 CURVE SMOOTH",
"62 51 OFFCURVE",
"85 23 OFFCURVE",
"129 3 CURVE",
"39 -35 OFFCURVE",
"6 -76 OFFCURVE",
"6 -128 CURVE SMOOTH",
"6 -171 OFFCURVE",
"30 -202 OFFCURVE",
"64 -222 CURVE SMOOTH",
"110 -248 OFFCURVE",
"173 -257 OFFCURVE",
"220 -257 CURVE SMOOTH"
);
},
{
closed = 1;
nodes = (
"199 -223 OFFCURVE",
"163 -214 OFFCURVE",
"137 -197 CURVE SMOOTH",
"108 -178 OFFCURVE",
"91 -151 OFFCURVE",
"91 -115 CURVE SMOOTH",
"91 -71 OFFCURVE",
"118 -29 OFFCURVE",
"163 -8 CURVE",
"192 -16 OFFCURVE",
"228 -24 OFFCURVE",
"264 -31 CURVE SMOOTH",
"376 -54 OFFCURVE",
"411 -73 OFFCURVE",
"411 -119 CURVE SMOOTH",
"411 -157 OFFCURVE",
"389 -183 OFFCURVE",
"354 -200 CURVE SMOOTH",
"323 -215 OFFCURVE",
"279 -223 OFFCURVE",
"241 -223 CURVE SMOOTH"
);
},
{
closed = 1;
nodes = (
"183 224 OFFCURVE",
"168 305 OFFCURVE",
"168 357 CURVE SMOOTH",
"168 412 OFFCURVE",
"184 505 OFFCURVE",
"261 505 CURVE SMOOTH",
"334 505 OFFCURVE",
"349 420 OFFCURVE",
"349 368 CURVE SMOOTH",
"349 304 OFFCURVE",
"329 224 OFFCURVE",
"256 224 CURVE SMOOTH"
);
}
);
width = 518;
},
{
anchors = (
{
name = top;
position = "{260, 645}";
}
);
associatedMasterId = "7C8D72FA-6E62-4564-8BB2-D9F9BC4EB15A";
layerId = "4A4054F2-95DB-4C05-9F11-6682A03215D6";
name = "Jan 23 19, 15:09";
paths = (
{
closed = 1;
nodes = (
"376 201 OFFCURVE",
"457 279 OFFCURVE",
"457 365 CURVE SMOOTH",
"457 412 OFFCURVE",
"434 457 OFFCURVE",
"395 488 CURVE",
"402 514 OFFCURVE",
"417 537 OFFCURVE",
"433 537 CURVE SMOOTH",
"458 537 OFFCURVE",
"456 511 OFFCURVE",
"486 511 CURVE SMOOTH",
"512 511 OFFCURVE",
"533 532 OFFCURVE",
"533 559 CURVE SMOOTH",
"533 590 OFFCURVE",
"505 610 OFFCURVE",
"474 610 CURVE SMOOTH",
"421 610 OFFCURVE",
"389 551 OFFCURVE",
"372 503 CURVE",
"341 522 OFFCURVE",
"300 535 OFFCURVE",
"255 535 CURVE SMOOTH",
"144 535 OFFCURVE",
"59 463 OFFCURVE",
"59 365 CURVE SMOOTH",
"59 283 OFFCURVE",
"118 224 OFFCURVE",
"195 203 CURVE",
"86 168 OFFCURVE",
"62 120 OFFCURVE",
"62 85 CURVE SMOOTH",
"62 36 OFFCURVE",
"105 3 OFFCURVE",
"193 -16 CURVE SMOOTH",
"275 -34 LINE SMOOTH",
"381 -57 OFFCURVE",
"411 -76 OFFCURVE",
"411 -119 CURVE SMOOTH",
"411 -157 OFFCURVE",
"389 -183 OFFCURVE",
"354 -200 CURVE SMOOTH",
"323 -215 OFFCURVE",
"279 -223 OFFCURVE",
"241 -223 CURVE SMOOTH",
"199 -223 OFFCURVE",
"163 -214 OFFCURVE",
"137 -197 CURVE SMOOTH",
"108 -178 OFFCURVE",
"91 -151 OFFCURVE",
"91 -115 CURVE SMOOTH",
"91 -68 OFFCURVE",
"122 -23 OFFCURVE",
"172 -4 CURVE",
"142 9 LINE",
"42 -31 OFFCURVE",
"6 -73 OFFCURVE",
"6 -128 CURVE SMOOTH",
"6 -171 OFFCURVE",
"30 -202 OFFCURVE",
"64 -222 CURVE SMOOTH",
"110 -248 OFFCURVE",
"173 -257 OFFCURVE",
"220 -257 CURVE SMOOTH",
"292 -257 OFFCURVE",
"380 -238 OFFCURVE",
"437 -194 CURVE SMOOTH",
"471 -167 OFFCURVE",
"493 -131 OFFCURVE",
"493 -80 CURVE SMOOTH",
"493 -9 OFFCURVE",
"444 35 OFFCURVE",
"346 53 CURVE SMOOTH",
"275 65 LINE SMOOTH",
"191 80 OFFCURVE",
"149 102 OFFCURVE",
"149 130 CURVE SMOOTH",
"149 162 OFFCURVE",
"202 186 OFFCURVE",
"256 191 CURVE SMOOTH"
);
},
{
closed = 1;
nodes = (
"183 224 OFFCURVE",
"168 305 OFFCURVE",
"168 357 CURVE SMOOTH",
"168 412 OFFCURVE",
"184 505 OFFCURVE",
"261 505 CURVE SMOOTH",
"334 505 OFFCURVE",
"349 420 OFFCURVE",
"349 368 CURVE SMOOTH",
"349 304 OFFCURVE",
"329 224 OFFCURVE",
"256 224 CURVE SMOOTH"
);
}
);
width = 518;
},
{
anchors = (
{
name = top;
position = "{286, 645}";
}
);
associatedMasterId = "FA6D65B5-4623-4FAC-A199-3F662257AC29";
layerId = "41DEBBC2-FC61-463C-AA39-FF4B783FD7A6";
name = "Jan 23 19, 15:11";
paths = (
{
closed = 1;
nodes = (
"417 207 OFFCURVE",
"506 281 OFFCURVE",
"506 366 CURVE SMOOTH",
"506 411 OFFCURVE",
"481 455 OFFCURVE",
"439 485 CURVE",
"446 504 OFFCURVE",
"460 520 OFFCURVE",
"481 520 CURVE SMOOTH",
"507 520 OFFCURVE",
"512 494 OFFCURVE",
"545 494 CURVE SMOOTH",
"581 494 OFFCURVE",
"601 522 OFFCURVE",
"601 551 CURVE SMOOTH",
"601 588 OFFCURVE",
"570 610 OFFCURVE",
"530 610 CURVE SMOOTH",
"468 610 OFFCURVE",
"427 555 OFFCURVE",
"405 506 CURVE",
"369 524 OFFCURVE",
"326 535 OFFCURVE",
"277 535 CURVE SMOOTH",
"150 535 OFFCURVE",
"54 463 OFFCURVE",
"54 365 CURVE SMOOTH",
"54 282 OFFCURVE",
"122 223 OFFCURVE",
"209 203 CURVE",
"95 164 OFFCURVE",
"57 138 OFFCURVE",
"57 84 CURVE SMOOTH",
"57 24 OFFCURVE",
"98 -5 OFFCURVE",
"218 -32 CURVE SMOOTH",
"300 -50 LINE SMOOTH",
"404 -74 OFFCURVE",
"433 -90 OFFCURVE",
"433 -125 CURVE SMOOTH",
"433 -153 OFFCURVE",
"410 -172 OFFCURVE",
"380 -185 CURVE SMOOTH",
"345 -200 OFFCURVE",
"300 -205 OFFCURVE",
"265 -205 CURVE SMOOTH",
"224 -205 OFFCURVE",
"188 -198 OFFCURVE",
"161 -183 CURVE SMOOTH",
"131 -168 OFFCURVE",
"115 -146 OFFCURVE",
"115 -113 CURVE SMOOTH",
"115 -75 OFFCURVE",
"137 -37 OFFCURVE",
"175 -14 CURVE",
"133 3 LINE",
"35 -35 OFFCURVE",
"-3 -76 OFFCURVE",
"-3 -128 CURVE SMOOTH",
"-3 -174 OFFCURVE",
"27 -203 OFFCURVE",
"62 -221 CURVE SMOOTH",
"117 -250 OFFCURVE",
"187 -256 OFFCURVE",
"237 -256 CURVE SMOOTH",
"319 -256 OFFCURVE",
"420 -239 OFFCURVE",
"483 -195 CURVE SMOOTH",
"524 -166 OFFCURVE",
"545 -130 OFFCURVE",
"545 -76 CURVE SMOOTH",
"545 4 OFFCURVE",
"491 51 OFFCURVE",
"378 71 CURVE SMOOTH",
"306 83 LINE SMOOTH",
"213 99 OFFCURVE",
"172 117 OFFCURVE",
"172 141 CURVE SMOOTH",
"172 163 OFFCURVE",
"205 185 OFFCURVE",
"282 193 CURVE SMOOTH"
);
},
{
closed = 1;
nodes = (
"223 237 OFFCURVE",
"211 309 OFFCURVE",
"211 357 CURVE SMOOTH",
"211 408 OFFCURVE",
"225 492 OFFCURVE",
"283 492 CURVE SMOOTH",
"339 492 OFFCURVE",
"349 416 OFFCURVE",
"349 369 CURVE SMOOTH",
"349 311 OFFCURVE",
"334 237 OFFCURVE",
"278 237 CURVE SMOOTH"
);
}
);
width = 578;
}
);
leftKerningGroup = g;
rightKerningGroup = g;
unicode = 0067;
},
{
glyphname = gcommaaccent;
layers = (
{
components = (
{
name = g;
}
);
layerId = "FA6D65B5-4623-4FAC-A199-3F662257AC29";
paths = (
{
closed = 1;
nodes = (
"331 645 OFFCURVE",
"358 667 OFFCURVE",
"358 697 CURVE SMOOTH",
"358 740 OFFCURVE",
"312 740 OFFCURVE",
"312 769 CURVE SMOOTH",
"312 784 OFFCURVE",
"326 807 OFFCURVE",
"346 827 CURVE",
"323 852 LINE",
"260 824 OFFCURVE",
"225 778 OFFCURVE",
"225 722 CURVE SMOOTH",
"225 674 OFFCURVE",
"251 645 OFFCURVE",
"292 645 CURVE SMOOTH"
);
}
);
width = 578;
},
{
associatedMasterId = "FA6D65B5-4623-4FAC-A199-3F662257AC29";
components = (
{
name = g;
}
);
layerId = "CBD44848-52BD-4DC5-BFA6-577546B7224D";
paths = (
{
closed = 1;
nodes = (
"296 645 OFFCURVE",
"320 666 OFFCURVE",
"320 695 CURVE SMOOTH",
"320 741 OFFCURVE",
"271 733 OFFCURVE",
"271 769 CURVE SMOOTH",
"271 782 OFFCURVE",
"289 804 OFFCURVE",
"314 821 CURVE",
"298 844 LINE",
"241 810 OFFCURVE",
"211 766 OFFCURVE",
"211 710 CURVE SMOOTH",
"211 674 OFFCURVE",
"233 645 OFFCURVE",
"265 645 CURVE SMOOTH"
);
}
);
width = 509;
},
{
components = (
{
alignment = -1;
name = g;
}
);
layerId = "7C8D72FA-6E62-4564-8BB2-D9F9BC4EB15A";
paths = (
{
closed = 1;
nodes = (
"301 645 OFFCURVE",
"325 666 OFFCURVE",
"325 695 CURVE SMOOTH",
"325 741 OFFCURVE",
"277 734 OFFCURVE",
"277 769 CURVE SMOOTH",
"277 782 OFFCURVE",
"294 804 OFFCURVE",
"318 821 CURVE",
"301 845 LINE",
"244 812 OFFCURVE",
"213 768 OFFCURVE",
"213 711 CURVE SMOOTH",
"213 674 OFFCURVE",
"235 645 OFFCURVE",
"268 645 CURVE SMOOTH"
);
}
);
width = 518;
}
);
leftKerningGroup = g;
rightKerningGroup = g;
unicode = 0123;
},
{
glyphname = h;
layers = (
{
anchors = (
{
name = bottom;
position = "{338, 0}";
},
{
name = top;
position = "{447, 645}";
}
);
layerId = "FA6D65B5-4623-4FAC-A199-3F662257AC29";
paths = (
{
closed = 1;
nodes = (
"316 0 LINE",
"316 35 LINE",
"247 55 LINE",
"247 822 LINE",
"225 822 LINE",
"18 773 LINE",
"18 750 LINE",
"93 723 LINE",
"93 55 LINE",
"19 35 LINE",
"19 0 LINE"
);
},
{
closed = 1;
nodes = (
"668 0 LINE",
"668 35 LINE",
"593 55 LINE",
"593 361 LINE SMOOTH",
"593 476 OFFCURVE",
"539 535 OFFCURVE",
"434 535 CURVE SMOOTH",
"360 535 OFFCURVE",
"286 503 OFFCURVE",
"235 463 CURVE",
"235 400 LINE",
"266 428 OFFCURVE",
"301 445 OFFCURVE",
"342 445 CURVE SMOOTH",
"407 445 OFFCURVE",
"440 407 OFFCURVE",
"440 326 CURVE SMOOTH",
"440 55 LINE",
"370 35 LINE",
"370 0 LINE"
);
}
);
width = 686;
},
{
anchors = (
{
name = bottom;
position = "{310, 0}";
},
{
name = top;
position = "{385, 645}";
}
);
associatedMasterId = "FA6D65B5-4623-4FAC-A199-3F662257AC29";
layerId = "CBD44848-52BD-4DC5-BFA6-577546B7224D";
paths = (
{
closed = 1;
nodes = (
"266 0 LINE",
"266 20 LINE",
"192 35 LINE",
"192 822 LINE",
"182 822 LINE",
"25 774 LINE",
"25 760 LINE",
"98 733 LINE",
"98 35 LINE",
"23 20 LINE",
"23 0 LINE"
);
},
{
closed = 1;
nodes = (
"592 0 LINE",
"592 20 LINE",
"517 34 LINE",
"517 335 LINE SMOOTH",
"517 430 OFFCURVE",
"516 455 OFFCURVE",
"505 475 CURVE SMOOTH",
"486 512 OFFCURVE",
"443 535 OFFCURVE",
"390 535 CURVE SMOOTH",
"321 535 OFFCURVE",
"246 502 OFFCURVE",
"183 444 CURVE",
"183 406 LINE",
"223 453 OFFCURVE",
"276 480 OFFCURVE",
"335 480 CURVE SMOOTH",
"374 480 OFFCURVE",
"399 465 OFFCURVE",
"412 435 CURVE SMOOTH",
"421 413 OFFCURVE",
"423 381 OFFCURVE",
"423 324 CURVE SMOOTH",
"423 34 LINE",
"349 20 LINE",
"349 0 LINE"
);
}
);
width = 612;
},
{
anchors = (
{
name = bottom;
position = "{313, 0}";
},
{
name = top;
position = "{393, 645}";
}
);
layerId = "7C8D72FA-6E62-4564-8BB2-D9F9BC4EB15A";
paths = (
{
closed = 1;
nodes = (
"273 0 LINE",
"273 22 LINE",
"199 38 LINE",
"199 822 LINE",
"188 822 LINE",
"24 774 LINE",
"24 759 LINE",
"98 732 LINE",
"98 38 LINE",
"22 22 LINE",
"22 0 LINE"
);
},
{
closed = 1;
nodes = (
"605 0 LINE",
"605 22 LINE",
"531 37 LINE",
"531 400 LINE SMOOTH",
"531 489 OFFCURVE",
"483 535 OFFCURVE",
"389 535 CURVE SMOOTH",
"323 535 OFFCURVE",
"251 505 OFFCURVE",
"190 448 CURVE",
"190 408 LINE",
"231 450 OFFCURVE",
"277 476 OFFCURVE",
"328 476 CURVE SMOOTH",
"399 476 OFFCURVE",
"429 437 OFFCURVE",
"429 358 CURVE SMOOTH",
"429 37 LINE",
"356 22 LINE",
"356 0 LINE"
);
}
);
width = 626;
},
{
anchors = (
{
name = bottom;
position = "{313, 0}";
},
{
name = top;
position = "{393, 645}";
}
);
associatedMasterId = "7C8D72FA-6E62-4564-8BB2-D9F9BC4EB15A";
layerId = "3DAC64EF-D175-4395-A734-FD2B67F98822";
name = "Jan 23 19, 15:06";
paths = (
{
closed = 1;
nodes = (
"273 0 LINE",
"273 22 LINE",
"199 38 LINE",
"199 822 LINE",
"188 822 LINE",
"24 774 LINE",
"24 759 LINE",
"98 732 LINE",
"98 38 LINE",
"22 22 LINE",
"22 0 LINE"
);
},
{
closed = 1;
nodes = (
"600 0 LINE",
"600 22 LINE",
"526 37 LINE",
"526 332 LINE SMOOTH",
"526 427 OFFCURVE",
"524 452 OFFCURVE",
"513 473 CURVE SMOOTH",
"494 512 OFFCURVE",
"449 535 OFFCURVE",
"395 535 CURVE SMOOTH",
"326 535 OFFCURVE",
"250 502 OFFCURVE",
"190 447 CURVE",
"190 406 LINE",
"228 451 OFFCURVE",
"278 476 OFFCURVE",
"334 476 CURVE SMOOTH",
"374 476 OFFCURVE",
"399 460 OFFCURVE",
"412 430 CURVE SMOOTH",
"422 408 OFFCURVE",
"425 377 OFFCURVE",
"425 318 CURVE SMOOTH",
"425 37 LINE",
"351 22 LINE",
"351 0 LINE"
);
}
);
width = 621;
},
{
anchors = (
{
name = bottom;
position = "{338, 0}";
},
{
name = top;
position = "{447, 645}";
}
);
associatedMasterId = "FA6D65B5-4623-4FAC-A199-3F662257AC29";
layerId = "156B9CF0-7DD2-4AEE-9FC9-CBEEC7B632A7";
name = "Jan 23 19, 15:06";
paths = (
{
closed = 1;
nodes = (
"316 0 LINE",
"316 35 LINE",
"247 55 LINE",
"247 822 LINE",
"225 822 LINE",
"18 773 LINE",
"18 750 LINE",
"93 723 LINE",
"93 55 LINE",
"19 35 LINE",
"19 0 LINE"
);
},
{
closed = 1;
nodes = (
"657 0 LINE",
"657 35 LINE",
"582 55 LINE",
"582 315 LINE SMOOTH",
"582 406 OFFCURVE",
"579 431 OFFCURVE",
"567 456 CURVE SMOOTH",
"541 508 OFFCURVE",
"493 535 OFFCURVE",
"427 535 CURVE SMOOTH",
"358 535 OFFCURVE",
"280 506 OFFCURVE",
"235 464 CURVE",
"235 402 LINE",
"262 435 OFFCURVE",
"291 449 OFFCURVE",
"331 449 CURVE SMOOTH",
"376 449 OFFCURVE",
"403 430 OFFCURVE",
"419 395 CURVE SMOOTH",
"427 375 OFFCURVE",
"429 347 OFFCURVE",
"429 276 CURVE SMOOTH",
"429 55 LINE",
"360 35 LINE",
"360 0 LINE"
);
}
);
visible = 1;
width = 674;
}
);
leftKerningGroup = h;
rightKerningGroup = n;
unicode = 0068;
},
{
glyphname = hbar;
layers = (
{
components = (
{
name = h;
}
);
layerId = "FA6D65B5-4623-4FAC-A199-3F662257AC29";
paths = (
{
closed = 1;
nodes = (
"378 593 LINE",
"378 677 LINE",
"35 677 LINE",
"35 593 LINE"
);
}
);
width = 674;
},
{
associatedMasterId = "FA6D65B5-4623-4FAC-A199-3F662257AC29";
components = (
{
name = h;
}
);
layerId = "CBD44848-52BD-4DC5-BFA6-577546B7224D";
paths = (
{
closed = 1;
nodes = (
"328 603 LINE",
"328 667 LINE",
"25 667 LINE",
"25 603 LINE"
);
}
);
width = 612;
},
{
components = (
{
alignment = -1;
name = h;
}
);
layerId = "7C8D72FA-6E62-4564-8BB2-D9F9BC4EB15A";
paths = (
{
closed = 1;
nodes = (
"335 602 LINE",
"335 669 LINE",
"26 669 LINE",
"26 602 LINE"
);
}
);
width = 621;
}
);
leftKerningGroup = h;
rightKerningGroup = n;
unicode = 0127;
},
{
glyphname = i;
layers = (
{
anchors = (
{
name = bottom;
position = "{187, 0}";
},
{
name = ogonek;
position = "{341, 0}";
}
);
layerId = "FA6D65B5-4623-4FAC-A199-3F662257AC29";
paths = (
{
closed = 1;
nodes = (
"341 0 LINE",
"341 35 LINE",
"262 55 LINE",
"262 535 LINE",
"241 535 LINE",
"24 487 LINE",
"24 464 LINE",
"108 437 LINE",
"108 55 LINE",
"24 35 LINE",
"24 0 LINE"
);
},
{
closed = 1;
nodes = (
"241 609 OFFCURVE",
"271 650 OFFCURVE",
"271 690 CURVE SMOOTH",
"271 733 OFFCURVE",
"237 772 OFFCURVE",
"183 772 CURVE SMOOTH",
"130 772 OFFCURVE",
"98 733 OFFCURVE",
"98 690 CURVE SMOOTH",
"98 650 OFFCURVE",
"128 609 OFFCURVE",
"183 609 CURVE SMOOTH"
);
}
);
width = 357;
},
{
anchors = (
{
name = bottom;
position = "{153, 0}";
}
);
associatedMasterId = "FA6D65B5-4623-4FAC-A199-3F662257AC29";
layerId = "CBD44848-52BD-4DC5-BFA6-577546B7224D";
paths = (
{
closed = 1;
nodes = (
"275 0 LINE",
"275 20 LINE",
"201 35 LINE",
"201 535 LINE",
"191 535 LINE",
"33 487 LINE",
"33 473 LINE",
"106 446 LINE",
"106 35 LINE",
"31 20 LINE",
"31 0 LINE"
);
},
{
closed = 1;
nodes = (
"192 645 OFFCURVE",
"217 673 OFFCURVE",
"217 708 CURVE SMOOTH",
"217 745 OFFCURVE",
"192 772 OFFCURVE",
"153 772 CURVE SMOOTH",
"114 772 OFFCURVE",
"89 745 OFFCURVE",
"89 708 CURVE SMOOTH",
"89 673 OFFCURVE",
"114 645 OFFCURVE",
"153 645 CURVE SMOOTH"
);
}
);
width = 297;
},
{
anchors = (
{
name = bottom;
position = "{157, 0}";
},
{
name = ogonek;
position = "{284, 0}";
}
);
layerId = "7C8D72FA-6E62-4564-8BB2-D9F9BC4EB15A";
paths = (
{
closed = 1;
nodes = (
"284 0 LINE",
"284 22 LINE",
"209 38 LINE",
"209 535 LINE",
"198 535 LINE",
"32 487 LINE",
"32 472 LINE",
"106 445 LINE",
"106 38 LINE",
"30 22 LINE",
"30 0 LINE"
);
},
{
closed = 1;
nodes = (
"198 640 OFFCURVE",
"224 670 OFFCURVE",
"224 705 CURVE SMOOTH",
"224 743 OFFCURVE",
"198 772 OFFCURVE",
"157 772 CURVE SMOOTH",
"116 772 OFFCURVE",
"90 743 OFFCURVE",
"90 705 CURVE SMOOTH",
"90 670 OFFCURVE",
"116 640 OFFCURVE",
"157 640 CURVE SMOOTH"
);
}
);
width = 305;
}
);
leftKerningGroup = i;
rightKerningGroup = i;
unicode = 0069;
},
{
glyphname = dotlessi;
layers = (
{
anchors = (
{
name = top;
position = "{178, 645}";
}
);
layerId = "FA6D65B5-4623-4FAC-A199-3F662257AC29";
paths = (
{
closed = 1;
nodes = (
"341 0 LINE",
"341 35 LINE",
"262 55 LINE",
"262 535 LINE",
"241 535 LINE",
"24 487 LINE",
"24 464 LINE",
"108 437 LINE",
"108 55 LINE",
"24 35 LINE",
"24 0 LINE"
);
}
);
width = 357;
},
{
anchors = (
{
name = top;
position = "{153, 645}";
}
);
associatedMasterId = "FA6D65B5-4623-4FAC-A199-3F662257AC29";
layerId = "CBD44848-52BD-4DC5-BFA6-577546B7224D";
paths = (
{
closed = 1;
nodes = (
"275 0 LINE",
"275 20 LINE",
"201 35 LINE",
"201 535 LINE",
"191 535 LINE",
"33 487 LINE",
"33 473 LINE",
"106 446 LINE",
"106 35 LINE",
"31 20 LINE",
"31 0 LINE"
);
}
);
width = 297;
},
{
anchors = (
{
name = top;
position = "{156, 645}";
}
);
layerId = "7C8D72FA-6E62-4564-8BB2-D9F9BC4EB15A";
paths = (
{
closed = 1;
nodes = (
"284 0 LINE",
"284 22 LINE",
"209 38 LINE",
"209 535 LINE",
"198 535 LINE",
"32 487 LINE",
"32 472 LINE",
"106 445 LINE",
"106 38 LINE",
"30 22 LINE",
"30 0 LINE"
);
}
);
width = 305;
}
);
leftKerningGroup = i;
rightKerningGroup = i;
unicode = 0131;
},
{
glyphname = j;
layers = (
{
layerId = "FA6D65B5-4623-4FAC-A199-3F662257AC29";
paths = (
{
closed = 1;
nodes = (
"98 -257 OFFCURVE",
"161 -223 OFFCURVE",
"207 -144 CURVE SMOOTH",
"239 -90 OFFCURVE",
"249 -39 OFFCURVE",
"249 68 CURVE SMOOTH",
"249 535 LINE",
"228 535 LINE",
"11 487 LINE",
"11 464 LINE",
"95 437 LINE",
"95 -47 LINE",
"95 -155 OFFCURVE",
"72 -205 OFFCURVE",
"24 -205 CURVE SMOOTH",
"-4 -205 OFFCURVE",
"-19 -190 OFFCURVE",
"-42 -142 CURVE SMOOTH",
"-60 -107 OFFCURVE",
"-77 -95 OFFCURVE",
"-108 -95 CURVE SMOOTH",
"-148 -95 OFFCURVE",
"-174 -118 OFFCURVE",
"-174 -156 CURVE SMOOTH",
"-174 -216 OFFCURVE",
"-104 -257 OFFCURVE",
"1 -257 CURVE SMOOTH"
);
},
{
closed = 1;
nodes = (
"229 609 OFFCURVE",
"258 650 OFFCURVE",
"258 690 CURVE SMOOTH",
"258 733 OFFCURVE",
"225 772 OFFCURVE",
"171 772 CURVE SMOOTH",
"117 772 OFFCURVE",
"85 733 OFFCURVE",
"85 690 CURVE SMOOTH",
"85 650 OFFCURVE",
"115 609 OFFCURVE",
"171 609 CURVE SMOOTH"
);
}
);
width = 327;
},
{
associatedMasterId = "FA6D65B5-4623-4FAC-A199-3F662257AC29";
layerId = "CBD44848-52BD-4DC5-BFA6-577546B7224D";
paths = (
{
closed = 1;
nodes = (
"47 -257 OFFCURVE",
"114 -212 OFFCURVE",
"159 -130 CURVE SMOOTH",
"188 -77 OFFCURVE",
"192 -40 OFFCURVE",
"192 154 CURVE SMOOTH",
"192 535 LINE",
"183 535 LINE",
"25 487 LINE",
"25 473 LINE",
"98 446 LINE",
"98 -47 LINE SMOOTH",
"98 -157 OFFCURVE",
"72 -210 OFFCURVE",
"16 -210 CURVE SMOOTH",
"-9 -210 OFFCURVE",
"-19 -200 OFFCURVE",
"-34 -162 CURVE SMOOTH",
"-44 -132 OFFCURVE",
"-60 -117 OFFCURVE",
"-88 -117 CURVE SMOOTH",
"-121 -117 OFFCURVE",
"-141 -139 OFFCURVE",
"-141 -176 CURVE SMOOTH",
"-141 -227 OFFCURVE",
"-100 -257 OFFCURVE",
"-33 -257 CURVE SMOOTH"
);
},
{
closed = 1;
nodes = (
"182 645 OFFCURVE",
"209 671 OFFCURVE",
"209 708 CURVE SMOOTH",
"209 745 OFFCURVE",
"182 772 OFFCURVE",
"145 772 CURVE SMOOTH",
"107 772 OFFCURVE",
"81 745 OFFCURVE",
"81 708 CURVE SMOOTH",
"81 671 OFFCURVE",
"107 645 OFFCURVE",
"145 645 CURVE SMOOTH"
);
}
);
width = 277;
},
{
layerId = "7C8D72FA-6E62-4564-8BB2-D9F9BC4EB15A";
paths = (
{
closed = 1;
nodes = (
"54 -257 OFFCURVE",
"120 -213 OFFCURVE",
"165 -132 CURVE SMOOTH",
"195 -79 OFFCURVE",
"199 -40 OFFCURVE",
"199 142 CURVE SMOOTH",
"199 535 LINE",
"190 535 LINE",
"23 487 LINE",
"23 472 LINE",
"98 445 LINE",
"98 -47 LINE SMOOTH",
"98 -157 OFFCURVE",
"72 -210 OFFCURVE",
"17 -210 CURVE SMOOTH",
"-8 -210 OFFCURVE",
"-19 -198 OFFCURVE",
"-35 -160 CURVE SMOOTH",
"-46 -129 OFFCURVE",
"-62 -114 OFFCURVE",
"-91 -114 CURVE SMOOTH",
"-124 -114 OFFCURVE",
"-146 -136 OFFCURVE",
"-146 -173 CURVE SMOOTH",
"-146 -225 OFFCURVE",
"-101 -257 OFFCURVE",
"-28 -257 CURVE SMOOTH"
);
},
{
closed = 1;
nodes = (
"189 640 OFFCURVE",
"216 668 OFFCURVE",
"216 706 CURVE SMOOTH",
"216 744 OFFCURVE",
"188 772 OFFCURVE",
"148 772 CURVE SMOOTH",
"108 772 OFFCURVE",
"82 744 OFFCURVE",
"82 706 CURVE SMOOTH",
"82 668 OFFCURVE",
"108 640 OFFCURVE",
"148 640 CURVE SMOOTH"
);
}
);
width = 284;
}
);
leftKerningGroup = j;
rightKerningGroup = j;
unicode = 006A;
},
{
glyphname = dotlessj;
layers = (
{
anchors = (
{
name = top;
position = "{168, 645}";
}
);
layerId = "FA6D65B5-4623-4FAC-A199-3F662257AC29";
paths = (
{
closed = 1;
nodes = (
"98 -257 OFFCURVE",
"161 -223 OFFCURVE",
"207 -144 CURVE SMOOTH",
"239 -90 OFFCURVE",
"249 -39 OFFCURVE",
"249 68 CURVE SMOOTH",
"249 535 LINE",
"228 535 LINE",
"11 487 LINE",
"11 464 LINE",
"95 437 LINE",
"95 -47 LINE SMOOTH",
"95 -155 OFFCURVE",
"72 -205 OFFCURVE",
"24 -205 CURVE SMOOTH",
"-4 -205 OFFCURVE",
"-19 -190 OFFCURVE",
"-42 -142 CURVE SMOOTH",
"-60 -107 OFFCURVE",
"-77 -95 OFFCURVE",
"-108 -95 CURVE SMOOTH",
"-148 -95 OFFCURVE",
"-174 -118 OFFCURVE",
"-174 -156 CURVE SMOOTH",
"-174 -216 OFFCURVE",
"-104 -257 OFFCURVE",
"1 -257 CURVE SMOOTH"
);
}
);
width = 327;
},
{
anchors = (
{
name = top;
position = "{146, 645}";
}
);
associatedMasterId = "FA6D65B5-4623-4FAC-A199-3F662257AC29";
layerId = "CBD44848-52BD-4DC5-BFA6-577546B7224D";
paths = (
{
closed = 1;
nodes = (
"47 -257 OFFCURVE",
"114 -212 OFFCURVE",
"159 -130 CURVE SMOOTH",
"188 -77 OFFCURVE",
"192 -40 OFFCURVE",
"192 154 CURVE SMOOTH",
"192 535 LINE",
"183 535 LINE",
"25 487 LINE",
"25 473 LINE",
"98 446 LINE",
"98 -47 LINE SMOOTH",
"98 -157 OFFCURVE",
"72 -210 OFFCURVE",
"16 -210 CURVE SMOOTH",
"-9 -210 OFFCURVE",
"-19 -200 OFFCURVE",
"-34 -162 CURVE SMOOTH",
"-44 -132 OFFCURVE",
"-60 -117 OFFCURVE",
"-88 -117 CURVE SMOOTH",
"-121 -117 OFFCURVE",
"-141 -139 OFFCURVE",
"-141 -176 CURVE SMOOTH",
"-141 -227 OFFCURVE",
"-100 -257 OFFCURVE",
"-33 -257 CURVE SMOOTH"
);
}
);
width = 277;
},
{
anchors = (
{
name = top;
position = "{149, 645}";
}
);
layerId = "7C8D72FA-6E62-4564-8BB2-D9F9BC4EB15A";
paths = (
{
closed = 1;
nodes = (
"54 -257 OFFCURVE",
"120 -213 OFFCURVE",
"165 -132 CURVE SMOOTH",
"195 -79 OFFCURVE",
"199 -40 OFFCURVE",
"199 142 CURVE SMOOTH",
"199 535 LINE",
"190 535 LINE",
"23 487 LINE",
"23 472 LINE",
"98 445 LINE",
"98 -47 LINE SMOOTH",
"98 -157 OFFCURVE",
"72 -210 OFFCURVE",
"17 -210 CURVE SMOOTH",
"-8 -210 OFFCURVE",
"-19 -198 OFFCURVE",
"-35 -160 CURVE SMOOTH",
"-46 -129 OFFCURVE",
"-62 -114 OFFCURVE",
"-91 -114 CURVE SMOOTH",
"-124 -114 OFFCURVE",
"-146 -136 OFFCURVE",
"-146 -173 CURVE SMOOTH",
"-146 -225 OFFCURVE",
"-101 -257 OFFCURVE",
"-28 -257 CURVE SMOOTH"
);
}
);
width = 284;
}
);
leftKerningGroup = j;
rightKerningGroup = j;
unicode = 0237;
},
{
glyphname = k;
layers = (
{
anchors = (
{
name = bottom;
position = "{379, 0}";
}
);
layerId = "FA6D65B5-4623-4FAC-A199-3F662257AC29";
paths = (
{
closed = 1;
nodes = (
"339 0 LINE",
"339 35 LINE",
"252 55 LINE",
"252 822 LINE",
"231 822 LINE",
"15 773 LINE",
"15 750 LINE",
"99 724 LINE",
"99 55 LINE",
"15 35 LINE",
"15 0 LINE"
);
},
{
closed = 1;
nodes = (
"675 0 LINE",
"675 35 LINE",
"594 55 LINE",
"392 370 LINE",
"302 248 LINE",
"445 0 LINE"
);
},
{
closed = 1;
nodes = (
"491 434 LINE SMOOTH",
"524 467 OFFCURVE",
"538 477 OFFCURVE",
"626 490 CURVE",
"626 525 LINE",
"353 525 LINE",
"353 490 LINE",
"421 483 OFFCURVE",
"439 478 OFFCURVE",
"439 467 CURVE SMOOTH",
"439 459 OFFCURVE",
"430 448 OFFCURVE",
"414 431 CURVE SMOOTH",
"201 207 LINE",
"223 159 LINE"
);
}
);
width = 658;
},
{
anchors = (
{
name = bottom;
position = "{323, 0}";
}
);
associatedMasterId = "FA6D65B5-4623-4FAC-A199-3F662257AC29";
layerId = "CBD44848-52BD-4DC5-BFA6-577546B7224D";
paths = (
{
closed = 1;
nodes = (
"263 0 LINE",
"263 20 LINE",
"189 35 LINE",
"189 822 LINE",
"180 822 LINE",
"26 773 LINE",
"26 760 LINE",
"98 733 LINE",
"98 35 LINE",
"23 20 LINE",
"23 0 LINE"
);
},
{
closed = 1;
nodes = (
"606 0 LINE",
"606 20 LINE",
"522 35 LINE",
"278 328 LINE",
"219 260 LINE",
"433 0 LINE"
);
},
{
closed = 1;
nodes = (
"399 448 LINE SMOOTH",
"429 483 OFFCURVE",
"444 490 OFFCURVE",
"524 505 CURVE",
"524 525 LINE",
"302 525 LINE",
"302 505 LINE",
"361 498 OFFCURVE",
"375 493 OFFCURVE",
"375 481 CURVE SMOOTH",
"375 473 OFFCURVE",
"369 461 OFFCURVE",
"354 445 CURVE SMOOTH",
"161 227 LINE",
"167 180 LINE"
);
}
);
width = 566;
},
{
anchors = (
{
name = bottom;
position = "{331, 0}";
}
);
layerId = "7C8D72FA-6E62-4564-8BB2-D9F9BC4EB15A";
paths = (
{
closed = 1;
nodes = (
"273 0 LINE",
"273 22 LINE",
"198 38 LINE",
"198 822 LINE",
"186 822 LINE",
"24 773 LINE",
"24 759 LINE",
"98 732 LINE",
"98 38 LINE",
"22 22 LINE",
"22 0 LINE"
);
},
{
closed = 1;
nodes = (
"615 0 LINE",
"615 22 LINE",
"532 38 LINE",
"294 334 LINE",
"230 259 LINE",
"434 0 LINE"
);
},
{
closed = 1;
nodes = (
"411 446 LINE SMOOTH",
"441 481 OFFCURVE",
"456 488 OFFCURVE",
"537 503 CURVE",
"537 525 LINE",
"309 525 LINE",
"309 503 LINE",
"369 496 OFFCURVE",
"384 491 OFFCURVE",
"384 479 CURVE SMOOTH",
"384 471 OFFCURVE",
"377 460 OFFCURVE",
"362 444 CURVE SMOOTH",
"167 224 LINE",
"175 177 LINE"
);
}
);
width = 578;
}
);
leftKerningGroup = h;
rightKerningGroup = k;
unicode = 006B;
},
{
glyphname = kgreenlandic;
layers = (
{
layerId = "FA6D65B5-4623-4FAC-A199-3F662257AC29";
paths = (
{
closed = 1;
nodes = (
"350 0 LINE",
"350 35 LINE",
"264 55 LINE",
"264 535 LINE",
"242 535 LINE",
"26 486 LINE",
"26 464 LINE",
"110 437 LINE",
"110 55 LINE",
"26 35 LINE",
"26 0 LINE"
);
},
{
closed = 1;
nodes = (
"686 0 LINE",
"686 35 LINE",
"605 55 LINE",
"403 370 LINE",
"313 248 LINE",
"457 0 LINE"
);
},
{
closed = 1;
nodes = (
"502 434 LINE SMOOTH",
"535 467 OFFCURVE",
"549 477 OFFCURVE",
"636 490 CURVE",
"636 525 LINE",
"365 525 LINE",
"365 490 LINE",
"432 483 OFFCURVE",
"450 478 OFFCURVE",
"450 467 CURVE SMOOTH",
"450 459 OFFCURVE",
"441 448 OFFCURVE",
"425 431 CURVE SMOOTH",
"212 207 LINE",
"234 159 LINE"
);
}
);
width = 669;
},
{
associatedMasterId = "FA6D65B5-4623-4FAC-A199-3F662257AC29";
layerId = "CBD44848-52BD-4DC5-BFA6-577546B7224D";
paths = (
{
closed = 1;
nodes = (
"271 0 LINE",
"271 20 LINE",
"197 35 LINE",
"197 535 LINE",
"187 535 LINE",
"34 486 LINE",
"34 473 LINE",
"106 446 LINE",
"106 35 LINE",
"31 20 LINE",
"31 0 LINE"
);
},
{
closed = 1;
nodes = (
"613 0 LINE",
"613 20 LINE",
"531 35 LINE",
"286 328 LINE",
"227 260 LINE",
"441 0 LINE"
);
},
{
closed = 1;
nodes = (
"407 448 LINE SMOOTH",
"437 483 OFFCURVE",
"452 490 OFFCURVE",
"532 505 CURVE",
"532 525 LINE",
"310 525 LINE",
"310 505 LINE",
"369 498 OFFCURVE",
"383 493 OFFCURVE",
"383 481 CURVE SMOOTH",
"383 473 OFFCURVE",
"376 461 OFFCURVE",
"362 445 CURVE SMOOTH",
"170 227 LINE",
"176 180 LINE"
);
}
);
width = 574;
},
{
layerId = "7C8D72FA-6E62-4564-8BB2-D9F9BC4EB15A";
paths = (
{
closed = 1;
nodes = (
"282 0 LINE",
"282 22 LINE",
"206 38 LINE",
"206 535 LINE",
"195 535 LINE",
"33 486 LINE",
"33 472 LINE",
"107 445 LINE",
"107 38 LINE",
"31 22 LINE",
"31 0 LINE"
);
},
{
closed = 1;
nodes = (
"623 0 LINE",
"623 22 LINE",
"540 38 LINE",
"302 334 LINE",
"239 259 LINE",
"442 0 LINE"
);
},
{
closed = 1;
nodes = (
"419 446 LINE SMOOTH",
"450 481 OFFCURVE",
"465 488 OFFCURVE",
"545 503 CURVE",
"545 525 LINE",
"317 525 LINE",
"317 503 LINE",
"377 496 OFFCURVE",
"392 491 OFFCURVE",
"392 479 CURVE SMOOTH",
"392 471 OFFCURVE",
"385 460 OFFCURVE",
"370 444 CURVE SMOOTH",
"175 224 LINE",
"183 177 LINE"
);
}
);
width = 586;
}
);
leftMetricsKey = n;
rightMetricsKey = k;
unicode = 0138;
},
{
glyphname = l;
layers = (
{
anchors = (
{
name = bottom;
position = "{180, 0}";
},
{
name = topcap;
position = "{177, 848}";
}
);
layerId = "FA6D65B5-4623-4FAC-A199-3F662257AC29";
paths = (
{
closed = 1;
nodes = (
"334 0 LINE",
"334 35 LINE",
"254 55 LINE",
"254 822 LINE",
"233 822 LINE",
"17 774 LINE",
"17 750 LINE",
"102 724 LINE",
"102 55 LINE",
"17 35 LINE",
"17 0 LINE"
);
}
);
width = 353;
},
{
anchors = (
{
name = bottom;
position = "{143, 0}";
},
{
name = topcap;
position = "{143, 848}";
}
);
associatedMasterId = "FA6D65B5-4623-4FAC-A199-3F662257AC29";
layerId = "CBD44848-52BD-4DC5-BFA6-577546B7224D";
paths = (
{
closed = 1;
nodes = (
"266 0 LINE",
"266 20 LINE",
"192 35 LINE",
"192 822 LINE",
"183 822 LINE",
"24 775 LINE",
"24 760 LINE",
"98 734 LINE",
"98 35 LINE",
"23 20 LINE",
"23 0 LINE"
);
}
);
width = 289;
},
{
anchors = (
{
name = bottom;
position = "{142, 0}";
},
{
name = topcap;
position = "{142, 848}";
}
);
associatedMasterId = "FA6D65B5-4623-4FAC-A199-3F662257AC29";
layerId = "49171B4C-9787-4E4D-BDE1-9BE5B70CD83A";
name = "Nov 19 18, 13:46";
paths = (
{
closed = 1;
nodes = (
"258 0 LINE",
"258 19 LINE",
"189 34 LINE",
"189 822 LINE",
"180 822 LINE",
"29 773 LINE",
"29 760 LINE",
"98 734 LINE",
"98 34 LINE",
"29 19 LINE",
"29 0 LINE"
);
}
);
width = 286;
},
{
anchors = (
{
name = bottom;
position = "{148, 0}";
},
{
name = topcap;
position = "{148, 848}";
}
);
layerId = "7C8D72FA-6E62-4564-8BB2-D9F9BC4EB15A";
paths = (
{
closed = 1;
nodes = (
"275 0 LINE",
"275 22 LINE",
"200 38 LINE",
"200 822 LINE",
"190 822 LINE",
"23 775 LINE",
"23 759 LINE",
"98 733 LINE",
"98 38 LINE",
"22 22 LINE",
"22 0 LINE"
);
}
);
width = 297;
}
);
leftKerningGroup = l;
rightKerningGroup = l;
unicode = 006C;
},
{
glyphname = lacute;
layers = (
{
layerId = "FA6D65B5-4623-4FAC-A199-3F662257AC29";
paths = (
{
closed = 1;
nodes = (
"334 0 LINE",
"334 35 LINE",
"254 55 LINE",
"254 822 LINE",
"233 822 LINE",
"17 774 LINE",
"17 750 LINE",
"102 724 LINE",
"102 55 LINE",
"17 35 LINE",
"17 0 LINE"
);
},
{
closed = 1;
nodes = (
"196 852 LINE SMOOTH",
"248 866 OFFCURVE",
"263 885 OFFCURVE",
"263 908 CURVE SMOOTH",
"263 932 OFFCURVE",
"243 950 OFFCURVE",
"221 950 CURVE SMOOTH",
"205 950 OFFCURVE",
"192 946 OFFCURVE",
"178 934 CURVE SMOOTH",
"35 828 LINE",
"46 807 LINE"
);
}
);
width = 353;
},
{
associatedMasterId = "FA6D65B5-4623-4FAC-A199-3F662257AC29";
layerId = "CBD44848-52BD-4DC5-BFA6-577546B7224D";
paths = (
{
closed = 1;
nodes = (
"258 0 LINE",
"258 19 LINE",
"189 34 LINE",
"189 822 LINE",
"180 822 LINE",
"29 773 LINE",
"29 760 LINE",
"98 734 LINE",
"98 34 LINE",
"29 19 LINE",
"29 0 LINE"
);
},
{
closed = 1;
nodes = (
"188 852 LINE SMOOTH",
"240 866 OFFCURVE",
"255 885 OFFCURVE",
"255 908 CURVE SMOOTH",
"255 932 OFFCURVE",
"235 950 OFFCURVE",
"213 950 CURVE SMOOTH",
"197 950 OFFCURVE",
"184 946 OFFCURVE",
"170 934 CURVE SMOOTH",
"27 828 LINE",
"38 807 LINE"
);
}
);
width = 286;
},
{
layerId = "7C8D72FA-6E62-4564-8BB2-D9F9BC4EB15A";
paths = (
{
closed = 1;
nodes = (
"268 0 LINE",
"268 21 LINE",
"198 37 LINE",
"198 822 LINE",
"187 822 LINE",
"27 773 LINE",
"27 759 LINE",
"99 733 LINE",
"99 37 LINE",
"27 21 LINE",
"27 0 LINE"
);
},
{
closed = 1;
nodes = (
"189 852 LINE SMOOTH",
"241 866 OFFCURVE",
"256 885 OFFCURVE",
"256 908 CURVE SMOOTH",
"256 932 OFFCURVE",
"236 950 OFFCURVE",
"214 950 CURVE SMOOTH",
"198 950 OFFCURVE",
"185 946 OFFCURVE",
"171 934 CURVE SMOOTH",
"28 828 LINE",
"39 807 LINE"
);
}
);
width = 295;
}
);
leftKerningGroup = l;
rightKerningGroup = l;
unicode = 013A;
},
{
glyphname = lslash;
layers = (
{
components = (
{
name = l;
transform = "{1, 0, 0, 1, 3, 0}";
}
);
layerId = "FA6D65B5-4623-4FAC-A199-3F662257AC29";
paths = (
{
closed = 1;
nodes = (
"338 448 LINE",
"338 541 LINE",
"29 377 LINE",
"29 283 LINE"
);
}
);
width = 357;
},
{
associatedMasterId = "FA6D65B5-4623-4FAC-A199-3F662257AC29";
components = (
{
name = l;
transform = "{1, 0, 0, 1, 3, 0}";
}
);
layerId = "CBD44848-52BD-4DC5-BFA6-577546B7224D";
paths = (
{
closed = 1;
nodes = (
"279 443 LINE",
"279 507 LINE",
"19 368 LINE",
"19 303 LINE"
);
}
);
width = 295;
},
{
components = (
{
alignment = -1;
name = l;
transform = "{1, 0, 0, 1, 3, 0}";
}
);
layerId = "7C8D72FA-6E62-4564-8BB2-D9F9BC4EB15A";
paths = (
{
closed = 1;
nodes = (
"287 444 LINE",
"287 512 LINE",
"20 369 LINE",
"20 301 LINE"
);
}
);
width = 303;
}
);
leftKerningGroup = l;
rightKerningGroup = l;
unicode = 0142;
},
